<?xml version="1.0" encoding="utf-8"?>
<svg viewBox="0 0 350 480" xmlns="http://www.w3.org/2000/svg">
  <path d="M 110.503 0.782 C 100.403 3.282 89.803 11.682 81.503 23.682 C 78.003 28.782 77.803 29.282 78.903 32.882 C 79.603 35.082 79.803 38.882 79.403 41.582 C 78.703 47.182 80.903 53.382 85.303 57.982 C 86.703 59.582 88.303 62.882 88.903 65.782 C 89.603 68.782 92.003 73.982 94.703 78.082 C 97.203 82.082 99.303 85.982 99.203 86.782 C 99.203 87.582 97.703 94.082 96.003 101.182 C 94.303 108.182 93.003 114.182 93.203 114.382 C 93.403 114.582 96.003 110.582 99.003 105.482 L 104.503 96.282 L 115.303 95.982 C 121.203 95.882 126.003 95.382 126.003 94.982 C 126.003 94.582 124.403 92.582 122.503 90.482 C 120.203 87.882 118.203 86.782 116.303 86.782 C 111.603 86.782 109.203 85.782 109.603 83.982 C 109.703 82.982 110.203 80.182 110.503 77.482 L 111.103 72.782 L 116.503 72.782 C 121.503 72.782 121.903 72.582 123.803 69.382 C 125.603 66.382 126.503 65.882 130.203 65.582 L 134.503 65.282 L 128.703 61.882 C 122.803 58.482 122.803 58.482 116.003 59.682 C 112.303 60.282 107.103 61.682 104.603 62.682 L 100.103 64.682 L 99.503 61.482 C 99.103 59.682 99.003 55.382 99.203 51.882 C 99.503 46.382 99.803 45.182 102.103 43.582 C 106.003 40.582 110.503 40.982 120.503 45.182 C 125.503 47.282 130.403 48.882 131.503 48.682 C 139.803 47.682 143.903 48.282 147.703 51.382 C 149.803 53.082 152.503 55.982 153.803 57.882 C 155.103 59.782 156.503 61.382 156.903 61.582 C 157.303 61.682 157.503 58.082 157.303 53.582 C 156.903 46.282 156.503 44.982 154.403 43.082 C 150.203 39.182 145.403 38.982 137.603 42.282 C 135.903 43.082 135.803 42.782 136.403 39.182 C 136.803 37.082 137.303 34.582 137.603 33.682 C 137.903 32.482 136.703 31.482 133.203 29.982 C 126.903 27.282 114.603 23.982 107.503 23.182 L 101.903 22.482 L 105.103 19.582 C 106.903 17.882 110.103 15.382 112.303 13.982 C 119.703 9.082 130.403 11.082 145.703 20.282 C 156.003 26.482 164.103 34.282 175.603 49.282 C 177.003 51.182 177.103 50.882 176.703 45.682 C 175.703 35.082 168.603 24.282 156.503 15.182 C 141.703 4.082 122.003 -2.118 110.503 0.782 Z M 179.003 54.682 C 179.003 57.182 182.803 64.882 188.303 73.782 C 191.603 78.982 194.303 83.382 194.403 83.382 C 194.403 83.482 205.303 82.482 218.503 81.282 C 231.703 80.082 242.803 79.282 243.303 79.482 C 243.703 79.682 246.303 82.882 249.003 86.482 C 263.303 105.382 275.003 139.882 275.003 163.182 C 275.003 179.582 271.903 196.982 265.403 217.482 L 261.803 228.582 L 270.103 244.482 C 274.603 253.182 281.503 266.382 285.403 273.782 L 292.503 287.282 L 293.003 301.282 L 293.503 315.282 L 296.203 309.682 C 300.003 301.682 301.003 297.282 301.003 288.782 C 301.003 277.182 296.603 264.782 285.403 244.582 C 280.803 236.182 280.203 234.482 281.003 232.082 C 283.003 226.382 286.003 207.882 287.203 194.982 C 288.103 184.582 288.103 178.382 287.103 166.982 C 283.803 127.382 278.603 108.282 266.203 90.082 C 258.703 79.182 251.403 73.682 238.403 69.182 C 231.103 66.682 229.103 66.382 213.303 66.182 L 196.003 65.982 L 190.803 62.182 C 187.903 60.082 184.003 57.282 182.303 55.982 C 180.503 54.582 179.003 54.082 179.003 54.682 Z"/>
  <path d="M 159.003 77.882 C 158.903 79.482 152.803 96.082 150.003 102.082 L 147.003 108.882 L 142.503 105.782 C 140.003 104.082 138.003 102.982 138.003 103.282 C 138.003 103.582 138.903 107.282 140.003 111.482 C 141.603 117.382 141.903 120.582 141.403 125.782 C 140.603 134.582 139.903 135.582 136.703 133.482 C 134.703 132.182 134.103 130.482 133.103 124.282 C 132.403 119.982 131.503 116.982 131.003 117.382 C 130.603 117.882 128.803 122.182 127.003 126.982 L 123.803 135.682 L 119.303 135.982 L 114.803 136.282 L 117.703 140.282 C 122.203 146.482 130.003 163.782 134.503 177.282 C 138.003 188.282 139.003 189.782 141.903 189.782 C 151.703 189.782 173.503 187.482 174.203 186.482 C 174.603 185.782 175.003 184.082 175.003 182.582 C 175.003 177.982 179.903 160.582 182.703 155.282 C 184.103 152.482 187.503 147.682 190.103 144.482 C 194.903 138.782 195.003 138.482 195.003 131.982 C 195.003 124.782 197.303 118.982 203.803 109.582 C 205.503 106.982 207.003 104.682 207.003 104.482 C 207.003 103.082 192.003 108.282 183.103 112.682 C 178.003 115.282 176.503 115.682 175.903 114.582 C 170.103 105.882 163.003 91.282 161.903 86.282 C 160.903 81.082 159.103 76.082 159.003 77.882 Z M 154.203 127.282 C 161.703 135.882 161.403 134.782 159.903 146.082 C 158.703 156.082 158.503 156.482 152.103 166.682 L 145.603 177.082 L 144.303 174.182 C 142.703 170.582 136.203 152.782 135.803 150.782 C 135.603 149.882 136.803 148.982 138.903 148.182 C 142.003 147.182 142.703 146.282 145.703 138.382 C 148.203 131.982 148.803 129.282 148.103 127.882 C 147.403 126.682 147.503 125.682 148.203 124.982 C 150.003 123.182 150.803 123.482 154.203 127.282 Z"/>
  <path d="M 52.908 288.921 C 50.748 285.458 49.535 284.129 46.303 278.482 C 43.103 272.782 43.003 272.182 43.103 262.482 C 43.203 256.882 43.503 251.282 43.803 250.082 C 44.203 248.882 46.803 245.182 49.503 241.882 L 54.503 235.782 L 55.203 244.382 C 55.503 249.082 56.603 256.482 57.503 260.982 C 58.403 265.382 60.903 274.282 63.103 280.682 C 65.403 287.082 67.603 293.782 68.103 295.482 C 69.103 298.682 69.303 298.782 74.503 298.782 C 80.503 298.782 80.603 298.582 79.103 292.782 C 76.603 283.282 76.103 284.182 84.603 283.482 C 88.803 283.182 92.403 282.682 92.703 282.482 C 92.903 282.182 94.203 275.882 95.403 268.382 C 96.703 260.882 98.003 254.382 98.403 254.082 C 98.703 253.782 99.003 257.382 99.003 262.082 C 99.003 268.882 99.403 271.482 101.003 274.282 C 103.403 278.482 103.503 282.082 101.603 291.982 C 99.203 304.582 92.103 322.582 88.103 326.182 C 86.603 327.482 86.003 327.382 82.003 324.882 C 77.115 321.793 74.135 317.983 68.631 312.528 C 68.058 314.465 60.767 326.744 61.09 327.228 C 69.232 339.438 75.935 348.873 89.603 364.382 C 92.603 367.782 96.003 371.782 97.203 373.382 C 98.503 374.982 100.603 377.582 102.003 379.182 C 103.403 380.782 105.003 382.582 105.503 383.182 C 106.103 383.882 107.603 385.582 108.903 387.082 L 111.403 389.782 L 108.303 393.082 C 106.703 394.782 102.303 400.082 98.703 404.782 C 89.903 416.082 83.103 421.882 77.103 422.882 C 67.503 424.682 65.003 426.982 65.003 433.782 C 65.003 437.982 67.303 438.782 80.203 438.882 C 93.903 438.882 92.803 439.582 72.003 443.782 C 63.503 445.582 54.803 447.382 52.703 447.882 L 49.003 448.882 L 49.003 455.882 C 49.003 462.082 49.203 462.882 50.803 462.382 C 51.703 462.082 62.903 460.082 75.503 457.782 C 88.203 455.582 112.703 451.282 130.003 448.182 C 147.303 445.182 167.803 441.582 175.503 440.182 C 192.403 437.082 193.203 437.082 199.303 439.182 C 207.203 441.882 207.003 441.982 207.003 431.182 C 207.003 425.982 207.403 421.882 207.803 422.182 C 208.303 422.482 221.003 426.382 236.103 430.782 C 251.203 435.282 274.103 442.082 287.003 445.982 C 299.903 449.782 312.003 453.382 313.803 453.982 C 323.903 456.882 313.303 452.482 272.203 436.682 L 226.503 419.182 L 226.203 403.682 L 226.003 388.282 L 229.303 386.182 C 233.003 383.782 228.603 383.382 268.003 389.782 L 286.503 392.782 L 294.803 389.182 C 299.303 387.082 303.003 385.182 303.003 384.882 C 302.903 384.582 294.503 380.482 284.203 375.882 C 273.903 371.182 263.303 366.382 260.503 365.082 C 257.803 363.882 247.603 359.282 238.003 354.882 L 220.503 346.982 L 218.803 340.882 L 217.203 334.782 L 221.203 324.482 C 223.503 318.882 225.603 313.982 225.903 313.582 C 226.303 313.182 239.803 317.382 255.903 322.782 C 272.103 328.282 285.503 332.682 285.703 332.482 C 286.703 331.382 282.603 310.882 280.803 307.782 C 273.403 295.482 264.503 291.982 248.403 295.082 C 229.903 298.682 226.003 298.382 217.103 292.882 C 213.803 290.882 204.903 283.182 197.303 275.782 C 185.303 264.082 175.503 256.282 167.303 251.882 C 164.303 250.282 164.403 250.882 168.403 257.082 C 179.203 273.582 186.103 288.682 193.503 311.782 C 197.203 323.082 200.603 333.882 201.103 335.782 C 205.603 352.982 206.003 354.082 212.203 360.182 C 219.803 367.782 222.403 372.682 221.603 378.182 C 220.503 385.282 217.203 389.082 202.503 400.182 C 194.803 405.982 185.103 413.382 180.903 416.582 C 174.103 421.782 172.503 422.582 164.603 424.182 L 155.903 426.082 L 153.203 422.882 L 150.503 419.782 L 144.203 422.082 C 136.103 425.082 127.703 424.382 120.603 420.082 C 116.403 417.582 116.003 416.982 116.003 413.582 L 116.003 409.782 L 121.903 409.782 C 125.603 409.782 129.403 409.082 132.103 407.782 C 135.103 406.482 138.703 405.782 143.303 405.782 L 150.003 405.782 L 150.003 402.382 C 150.003 393.682 148.303 389.182 142.803 383.682 C 137.203 378.082 131.003 366.782 125.003 351.082 C 122.103 343.482 122.003 342.882 122.003 325.482 L 122.003 307.682 L 126.203 310.182 C 129.703 312.182 133.603 317.182 147.103 336.782 C 157.103 351.282 163.603 361.582 163.403 362.582 C 162.103 367.582 156.203 399.282 156.403 399.582 C 156.703 399.782 169.903 377.882 177.703 364.082 L 180.103 359.882 L 177.403 353.082 C 165.203 321.982 149.203 298.482 123.103 273.582 L 111.003 262.082 L 110.903 252.682 C 110.803 247.482 111.003 241.182 111.503 238.682 C 112.103 234.382 112.503 233.982 115.803 232.982 C 126.503 229.882 132.403 229.282 150.103 229.282 L 168.703 229.282 L 175.603 235.282 C 191.203 248.882 198.003 253.182 210.403 257.182 C 216.803 259.282 220.203 259.782 228.403 259.782 C 242.103 259.782 242.503 259.282 236.503 252.182 L 231.603 246.482 L 233.503 243.382 C 245.203 223.782 249.703 213.282 251.503 201.082 C 253.203 189.282 251.303 178.082 245.303 165.282 C 243.003 160.282 240.003 155.782 239.003 155.782 C 237.903 155.782 231.403 176.082 229.603 185.282 C 227.703 195.282 226.003 210.782 226.003 218.682 C 226.003 221.982 225.603 224.882 225.103 225.282 C 220.703 227.982 199.503 229.782 184.503 228.682 C 165.003 227.282 164.303 227.182 158.703 224.982 C 136.903 216.582 120.803 214.182 105.303 216.882 C 97.903 218.182 98.603 217.182 93.903 232.782 C 92.103 238.582 89.603 245.382 88.303 247.982 C 86.003 252.782 85.903 252.782 81.103 252.782 C 75.703 252.782 75.703 252.782 74.403 260.282 C 73.603 264.882 72.103 268.382 72.003 265.782 C 72.003 264.982 70.903 256.482 69.503 246.882 L 67.103 229.482 L 79.203 216.382 C 85.803 209.182 92.203 202.782 93.403 202.082 C 94.503 201.482 103.403 199.482 113.003 197.782 C 122.603 195.982 131.003 194.482 131.503 194.282 C 132.103 194.082 125.303 193.882 116.403 193.882 L 100.403 193.782 L 101.803 185.982 C 102.603 181.582 103.203 170.582 103.303 160.282 C 103.503 144.982 103.203 141.482 101.603 136.782 C 99.703 131.082 94.003 120.782 92.903 120.782 C 92.503 120.782 90.803 122.982 89.103 125.582 C 84.603 132.682 82.903 138.382 82.903 146.382 C 82.903 152.182 83.403 154.782 86.003 160.382 C 87.603 164.082 90.203 168.682 91.603 170.482 C 94.103 173.782 94.203 174.182 93.503 183.782 L 92.803 193.682 L 79.803 204.482 C 69.303 213.282 66.103 216.482 63.003 221.882 C 59.203 228.282 58.903 228.582 51.503 231.382 C 44.803 233.982 43.503 234.782 40.803 239.082 C 34.403 249.182 32.603 260.882 35.503 274.682 C 37.615 284.75 39.911 290.989 45.197 301.375 C 45.596 302.159 52.736 288.666 52.908 288.921 Z"/>
  <path d="M 302.003 339.682 C 308.903 342.882 319.303 347.782 325.103 350.582 L 335.803 355.582 L 330.503 370.382 C 327.603 378.582 323.503 389.882 321.503 395.582 L 317.903 405.882 L 324.403 423.382 L 331.003 440.882 L 328.903 449.382 C 327.703 454.082 326.903 457.982 327.103 458.082 C 327.303 458.282 331.203 459.282 335.703 460.482 L 343.803 462.582 L 345.803 456.982 L 347.903 451.482 L 344.903 442.782 C 340.503 429.582 339.003 419.882 339.003 405.082 C 339.003 390.582 340.703 378.482 344.503 366.282 L 346.903 358.482 L 336.303 346.882 L 325.703 335.282 L 316.603 334.682 C 311.603 334.282 303.503 333.982 298.503 333.882 L 289.503 333.782 L 302.003 339.682 Z M 206.303 453.882 L 206.503 464.082 L 187.503 464.282 C 177.103 464.382 155.003 465.682 138.503 467.182 C 122.003 468.582 99.703 470.482 89.003 471.282 C 78.303 472.182 65.103 473.282 59.703 473.782 C 54.303 474.382 49.303 474.782 48.503 474.782 C 47.603 474.782 46.603 472.982 45.903 470.282 C 44.603 465.182 43.903 464.982 39.303 467.782 C 36.303 469.582 36.003 470.182 36.003 474.882 L 36.003 480.082 L 68.303 479.382 C 86.003 479.082 141.903 478.082 192.503 477.282 C 284.903 475.882 338.303 474.682 337.803 474.282 C 337.603 474.082 332.303 472.782 326.003 471.382 C 319.703 469.982 306.003 466.782 295.503 464.382 C 285.103 461.982 269.303 458.382 260.503 456.382 C 251.703 454.382 240.703 451.782 236.003 450.682 C 231.303 449.682 223.503 447.782 218.503 446.682 C 213.603 445.582 208.703 444.382 207.803 444.182 C 206.203 443.682 206.103 444.682 206.303 453.882 Z"/>
  <g transform="matrix(0.175797, -0.050582, 0.050582, 0.175797, -11.522511, 294.257904)">
    <path d="M130.415,277.741C95.083,313.074,45.038,324.723,0,312.697c5.918,22.164,17.568,43.116,34.956,60.504 c52.721,52.721,138.198,52.721,190.919,0c26.361-26.36,26.36-69.099,0-95.459C199.514,251.38,156.776,251.38,130.415,277.741z"/>
    <path d="M 212.771 234.276 C 225.499 239.103 237.174 246.614 247.088 256.528 C 257.165 266.605 264.544 278.366 269.278 290.906 L 378.225 185.412 L 322.309 128.421 C 302.015 148.715 226.908 220.139 212.771 234.276 Z"/>
    <path d="M 480.639 26.519 C 465.018 10.898 439.691 10.898 424.071 26.519 C 418.184 32.406 369.575 81.015 321.57 129.02 L 378.138 185.589 L 480.639 83.088 C 496.26 67.467 496.26 42.14 480.639 26.519 Z"/>
  </g>
</svg>