<svg xmlns="http://www.w3.org/2000/svg" width="314" height="480" version="1.0" viewBox="0 0 314 480">
  <path d="M76.5 1c-10.1 2.5-20.7 10.9-29 22.9-3.5 5.1-3.7 5.6-2.6 9.2.7 2.2.9 6 .5 8.7-.7 5.6 1.5 11.8 5.9 16.4 1.4 1.6 3 4.9 3.6 7.8.7 3 3.1 8.2 5.8 12.3 2.5 4 4.6 7.9 4.5 8.7 0 .8-1.5 7.3-3.2 14.4-1.7 7-3 13-2.8 13.2.2.2 2.8-3.8 5.8-8.9l5.5-9.2 10.8-.3c5.9-.1 10.7-.6 10.7-1s-1.6-2.4-3.5-4.5c-2.3-2.6-4.3-3.7-6.2-3.7-4.7 0-7.1-1-6.7-2.8.1-1 .6-3.8.9-6.5l.6-4.7h5.4c5 0 5.4-.2 7.3-3.4 1.8-3 2.7-3.5 6.4-3.8l4.3-.3-5.8-3.4c-5.9-3.4-5.9-3.4-12.7-2.2-3.7.6-8.9 2-11.4 3l-4.5 2-.6-3.2c-.4-1.8-.5-6.1-.3-9.6.3-5.5.6-6.7 2.9-8.3 3.9-3 8.4-2.6 18.4 1.6 5 2.1 9.9 3.7 11 3.5 8.3-1 12.4-.4 16.2 2.7 2.1 1.7 4.8 4.6 6.1 6.5 1.3 1.9 2.7 3.5 3.1 3.7.4.1.6-3.5.4-8-.4-7.3-.8-8.6-2.9-10.5-4.2-3.9-9-4.1-16.8-.8-1.7.8-1.8.5-1.2-3.1.4-2.1.9-4.6 1.2-5.5.3-1.2-.9-2.2-4.4-3.7-6.3-2.7-18.6-6-25.7-6.8l-5.6-.7 3.2-2.9c1.8-1.7 5-4.2 7.2-5.6 7.4-4.9 18.1-2.9 33.4 6.3 10.3 6.2 18.4 14 29.9 29 1.4 1.9 1.5 1.6 1.1-3.6-1-10.6-8.1-21.4-20.2-30.5C107.7 4.3 88-1.9 76.5 1zM145 54.9c0 2.5 3.8 10.2 9.3 19.1 3.3 5.2 6 9.6 6.1 9.6 0 .1 10.9-.9 24.1-2.1 13.2-1.2 24.3-2 24.8-1.8.4.2 3 3.4 5.7 7 14.3 18.9 26 53.4 26 76.7 0 16.4-3.1 33.8-9.6 54.3l-3.6 11.1 8.3 15.9c4.5 8.7 11.4 21.9 15.3 29.3l7.1 13.5.5 14 .5 14 2.7-5.6c3.8-8 4.8-12.4 4.8-20.9 0-11.6-4.4-24-15.6-44.2-4.6-8.4-5.2-10.1-4.4-12.5 2-5.7 5-24.2 6.2-37.1.9-10.4.9-16.6-.1-28-3.3-39.6-8.5-58.7-20.9-76.9-7.5-10.9-14.8-16.4-27.8-20.9-7.3-2.5-9.3-2.8-25.1-3l-17.3-.2-5.2-3.8c-2.9-2.1-6.8-4.9-8.5-6.2-1.8-1.4-3.3-1.9-3.3-1.3z"/>
  <path d="M125 78.1c-.1 1.6-6.2 18.2-9 24.2l-3 6.8-4.5-3.1c-2.5-1.7-4.5-2.8-4.5-2.5 0 .3.9 4 2 8.2 1.6 5.9 1.9 9.1 1.4 14.3-.8 8.8-1.5 9.8-4.7 7.7-2-1.3-2.6-3-3.6-9.2-.7-4.3-1.6-7.3-2.1-6.9-.4.5-2.2 4.8-4 9.6l-3.2 8.7-4.5.3-4.5.3 2.9 4c4.5 6.2 12.3 23.5 16.8 37 3.5 11 4.5 12.5 7.4 12.5 9.8 0 31.6-2.3 32.3-3.3.4-.7.8-2.4.8-3.9 0-4.6 4.9-22 7.7-27.3 1.4-2.8 4.8-7.6 7.4-10.8 4.8-5.7 4.9-6 4.9-12.5 0-7.2 2.3-13 8.8-22.4 1.7-2.6 3.2-4.9 3.2-5.1 0-1.4-15 3.8-23.9 8.2-5.1 2.6-6.6 3-7.2 1.9-5.8-8.7-12.9-23.3-14-28.3-1-5.2-2.8-10.2-2.9-8.4zm-4.8 49.4c7.5 8.6 7.2 7.5 5.7 18.8-1.2 10-1.4 10.4-7.8 20.6l-6.5 10.4-1.3-2.9c-1.6-3.6-8.1-21.4-8.5-23.4-.2-.9 1-1.8 3.1-2.6 3.1-1 3.8-1.9 6.8-9.8 2.5-6.4 3.1-9.1 2.4-10.5-.7-1.2-.6-2.2.1-2.9 1.8-1.8 2.6-1.5 6 2.3z"/>
  <path d="M55.1 125.8c-4.5 7.1-6.2 12.8-6.2 20.8 0 5.8.5 8.4 3.1 14 1.6 3.7 4.2 8.3 5.6 10.1 2.5 3.3 2.6 3.7 1.9 13.3l-.7 9.9-13 10.8c-10.5 8.8-13.7 12-16.8 17.4-3.8 6.4-4.1 6.7-11.5 9.5-6.7 2.6-8 3.4-10.7 7.7-6.4 10.1-8.2 21.8-5.3 35.6 5.6 26.7 20.7 51.8 54.1 89.7 3 3.4 6.4 7.4 7.6 9 1.3 1.6 3.4 4.2 4.8 5.8 1.4 1.6 3 3.4 3.5 4 .6.7 2.1 2.4 3.4 3.9l2.5 2.7-3.1 3.3c-1.6 1.7-6 7-9.6 11.7-8.8 11.3-15.6 17.1-21.6 18.1-9.6 1.8-12.1 4.1-12.1 10.9 0 4.2 2.3 5 15.2 5.1 13.7 0 12.6.7-8.2 4.9-8.5 1.8-17.2 3.6-19.3 4.1l-3.7 1v7c0 6.2.2 7 1.8 6.5.9-.3 12.1-2.3 24.7-4.6 12.7-2.2 37.2-6.5 54.5-9.6 17.3-3 37.8-6.6 45.5-8 16.9-3.1 17.7-3.1 23.8-1 7.9 2.7 7.7 2.8 7.7-8 0-5.2.4-9.3.8-9 .5.3 13.2 4.2 28.3 8.6 15.1 4.5 38 11.3 50.9 15.2 12.9 3.8 25 7.4 26.8 8 10.1 2.9-.5-1.5-41.6-17.3l-45.7-17.5-.3-15.5-.2-15.4 3.3-2.1c3.7-2.4-.7-2.8 38.7 3.6l18.5 3 8.3-3.6c4.5-2.1 8.2-4 8.2-4.3-.1-.3-8.5-4.4-18.8-9-10.3-4.7-20.9-9.5-23.7-10.8-2.7-1.2-12.9-5.8-22.5-10.2l-17.5-7.9-1.7-6.1-1.6-6.1 4-10.3c2.3-5.6 4.4-10.5 4.7-10.9.4-.4 13.9 3.8 30 9.2 16.2 5.5 29.6 9.9 29.8 9.7 1-1.1-3.1-21.6-4.9-24.7-7.4-12.3-16.3-15.8-32.4-12.7-18.5 3.6-22.4 3.3-31.3-2.2-3.3-2-12.2-9.7-19.8-17.1-12-11.7-21.8-19.5-30-23.9-3-1.6-2.9-1 1.1 5.2 10.8 16.5 17.7 31.6 25.1 54.7 3.7 11.3 7.1 22.1 7.6 24 4.5 17.2 4.9 18.3 11.1 24.4 7.6 7.6 10.2 12.5 9.4 18-1.1 7.1-4.4 10.9-19.1 22-7.7 5.8-17.4 13.2-21.6 16.4-6.8 5.2-8.4 6-16.3 7.6l-8.7 1.9-2.7-3.2-2.7-3.1-6.3 2.3c-8.1 3-16.5 2.3-23.6-2-4.2-2.5-4.6-3.1-4.6-6.5V410h5.9c3.7 0 7.5-.7 10.2-2 3-1.3 6.6-2 11.2-2h6.7v-3.4c0-8.7-1.7-13.2-7.2-18.7-5.6-5.6-11.8-16.9-17.8-32.6-2.9-7.6-3-8.2-3-25.6v-17.8l4.2 2.5c3.5 2 7.4 7 20.9 26.6 10 14.5 16.5 24.8 16.3 25.8-1.3 5-7.2 36.7-7 37 .3.2 13.5-21.7 21.3-35.5l2.4-4.2-2.7-6.8c-12.2-31.1-28.2-54.6-54.3-79.5L77 262.3l-.1-9.4c-.1-5.2.1-11.5.6-14 .6-4.3 1-4.7 4.3-5.7 10.7-3.1 16.6-3.7 34.3-3.7h18.6l6.9 6c15.6 13.6 22.4 17.9 34.8 21.9 6.4 2.1 9.8 2.6 18 2.6 13.7 0 14.1-.5 8.1-7.6l-4.9-5.7 1.9-3.1c11.7-19.6 16.2-30.1 18-42.3 1.7-11.8-.2-23-6.2-35.8-2.3-5-5.3-9.5-6.3-9.5-1.1 0-7.6 20.3-9.4 29.5-1.9 10-3.6 25.5-3.6 33.4 0 3.3-.4 6.2-.9 6.6-4.4 2.7-25.6 4.5-40.6 3.4-19.5-1.4-20.2-1.5-25.8-3.7-21.8-8.4-37.9-10.8-53.4-8.1-7.4 1.3-6.7.3-11.4 15.9-1.8 5.8-4.3 12.6-5.6 15.2-2.3 4.8-2.4 4.8-7.2 4.8-5.4 0-5.4 0-6.7 7.5-.8 4.6-2.3 8.1-2.4 5.5 0-.8-1.1-9.3-2.5-18.9l-2.4-17.4 12.1-13.1c6.6-7.2 13-13.6 14.2-14.3 1.1-.6 10-2.6 19.6-4.3 9.6-1.8 18-3.3 18.5-3.5.6-.2-6.2-.4-15.1-.4l-16-.1 1.4-7.8c.8-4.4 1.4-15.4 1.5-25.7.2-15.3-.1-18.8-1.7-23.5-1.9-5.7-7.6-16-8.7-16-.4 0-2.1 2.2-3.8 4.8zM23.5 261.2c.9 4.4 3.4 13.3 5.6 19.7 2.3 6.4 4.5 13.1 5 14.8 1 3.2 1.2 3.3 6.4 3.3 6 0 6.1-.2 4.6-6-2.5-9.5-3-8.6 5.5-9.3 4.2-.3 7.8-.8 8.1-1 .2-.3 1.5-6.6 2.7-14.1 1.3-7.5 2.6-14 3-14.3.3-.3.6 3.3.6 8 0 6.8.4 9.4 2 12.2 2.4 4.2 2.5 7.8.6 17.7-2.4 12.6-9.5 30.6-13.5 34.2-1.5 1.3-2.1 1.2-6.1-1.3-10.6-6.7-19.9-18.8-35.7-46.4-3.2-5.7-3.3-6.3-3.2-16 .1-5.6.4-11.2.7-12.4.4-1.2 3-4.9 5.7-8.2l5-6.1.7 8.6c.3 4.7 1.4 12.1 2.3 16.6z"/>
  <path d="M268 339.9c6.9 3.2 17.3 8.1 23.1 10.9l10.7 5-5.3 14.8c-2.9 8.2-7 19.5-9 25.2l-3.6 10.3 6.5 17.5 6.6 17.5-2.1 8.5c-1.2 4.7-2 8.6-1.8 8.7.2.2 4.1 1.2 8.6 2.4l8.1 2.1 2-5.6 2.1-5.5-3-8.7c-4.4-13.2-5.9-22.9-5.9-37.7 0-14.5 1.7-26.6 5.5-38.8l2.4-7.8-10.6-11.6-10.6-11.6-9.1-.6c-5-.4-13.1-.7-18.1-.8l-9-.1 12.5 5.9zM172.3 454.1l.2 10.2-19 .2c-10.4.1-32.5 1.4-49 2.9-16.5 1.4-38.8 3.3-49.5 4.1-10.7.9-23.9 2-29.3 2.5-5.4.6-10.4 1-11.2 1-.9 0-1.9-1.8-2.6-4.5-1.3-5.1-2-5.3-6.6-2.5-3 1.8-3.3 2.4-3.3 7.1v5.2l32.3-.7c17.7-.3 73.6-1.3 124.2-2.1 92.4-1.4 145.8-2.6 145.3-3-.2-.2-5.5-1.5-11.8-2.9-6.3-1.4-20-4.6-30.5-7-10.4-2.4-26.2-6-35-8s-19.8-4.6-24.5-5.7c-4.7-1-12.5-2.9-17.5-4-4.9-1.1-9.8-2.3-10.7-2.5-1.6-.5-1.7.5-1.5 9.7z"/>
</svg>
