<?xml version="1.0" encoding="utf-8"?>
<svg viewBox="66.415 3.469 1047.485 488.721" xmlns="http://www.w3.org/2000/svg">
  <path d="M 203.797 5.198 C 193.697 7.698 183.097 16.098 174.797 28.098 C 171.297 33.198 171.097 33.698 172.197 37.298 C 172.897 39.498 173.097 43.298 172.697 45.998 C 171.997 51.598 174.197 57.798 178.597 62.398 C 179.997 63.998 181.597 67.298 182.197 70.198 C 182.897 73.198 185.297 78.398 187.997 82.498 C 190.497 86.498 192.597 90.398 192.497 91.198 C 192.497 91.998 190.997 98.498 189.297 105.598 C 187.597 112.598 186.297 118.598 186.497 118.798 C 186.697 118.998 189.297 114.998 192.297 109.898 L 197.797 100.698 L 208.597 100.398 C 214.497 100.298 219.297 99.798 219.297 99.398 C 219.297 98.998 217.697 96.998 215.797 94.898 C 213.497 92.298 211.497 91.198 209.597 91.198 C 204.897 91.198 202.497 90.198 202.897 88.398 C 202.997 87.398 203.497 84.598 203.797 81.898 L 204.397 77.198 L 209.797 77.198 C 214.797 77.198 215.197 76.998 217.097 73.798 C 218.897 70.798 219.797 70.298 223.497 69.998 L 227.797 69.698 L 221.997 66.298 C 216.097 62.898 216.097 62.898 209.297 64.098 C 205.597 64.698 200.397 66.098 197.897 67.098 L 193.397 69.098 L 192.797 65.898 C 192.397 64.098 192.297 59.798 192.497 56.298 C 192.797 50.798 193.097 49.598 195.397 47.998 C 199.297 44.998 203.797 45.398 213.797 49.598 C 218.797 51.698 223.697 53.298 224.797 53.098 C 233.097 52.098 237.197 52.698 240.997 55.798 C 243.097 57.498 245.797 60.398 247.097 62.298 C 248.397 64.198 249.797 65.798 250.197 65.998 C 250.597 66.098 250.797 62.498 250.597 57.998 C 250.197 50.698 249.797 49.398 247.697 47.498 C 243.497 43.598 238.697 43.398 230.897 46.698 C 229.197 47.498 229.097 47.198 229.697 43.598 C 230.097 41.498 230.597 38.998 230.897 38.098 C 231.197 36.898 229.997 35.898 226.497 34.398 C 220.197 31.698 207.897 28.398 200.797 27.598 L 195.197 26.898 L 198.397 23.998 C 200.197 22.298 203.397 19.798 205.597 18.398 C 212.997 13.498 223.697 15.498 238.997 24.698 C 249.297 30.898 257.397 38.698 268.897 53.698 C 270.297 55.598 270.397 55.298 269.997 50.098 C 268.997 39.498 261.897 28.698 249.797 19.598 C 234.997 8.498 215.297 2.298 203.797 5.198 Z M 272.297 59.098 C 272.297 61.598 276.097 69.298 281.597 78.198 C 284.897 83.398 287.597 87.798 287.697 87.798 C 287.697 87.898 298.597 86.898 311.797 85.698 C 324.997 84.498 336.097 83.698 336.597 83.898 C 336.997 84.098 339.597 87.298 342.297 90.898 C 356.597 109.798 368.297 144.298 368.297 167.598 C 368.297 183.998 365.197 201.398 358.697 221.898 L 355.097 232.998 L 363.397 248.898 C 367.897 257.598 374.797 270.798 378.697 278.198 L 385.797 291.698 L 386.297 305.698 L 386.797 319.698 L 389.497 314.098 C 393.297 306.098 394.297 301.698 394.297 293.198 C 394.297 281.598 389.897 269.198 378.697 248.998 C 374.097 240.598 373.497 238.898 374.297 236.498 C 376.297 230.798 379.297 212.298 380.497 199.398 C 381.397 188.998 381.397 182.798 380.397 171.398 C 377.097 131.798 371.897 112.698 359.497 94.498 C 351.997 83.598 344.697 78.098 331.697 73.598 C 324.397 71.098 322.397 70.798 306.597 70.598 L 289.297 70.398 L 284.097 66.598 C 281.197 64.498 277.297 61.698 275.597 60.398 C 273.797 58.998 272.297 58.498 272.297 59.098 Z" transform="matrix(1, 0, 0, 1, -28.108586756776475, 3.5066677585245145)"/>
  <path d="M 252.297 82.298 C 252.197 83.898 246.097 100.498 243.297 106.498 L 240.297 113.298 L 235.797 110.198 C 233.297 108.498 231.297 107.398 231.297 107.698 C 231.297 107.998 232.197 111.698 233.297 115.898 C 234.897 121.798 235.197 124.998 234.697 130.198 C 233.897 138.998 233.197 139.998 229.997 137.898 C 227.997 136.598 227.397 134.898 226.397 128.698 C 225.697 124.398 224.797 121.398 224.297 121.798 C 223.897 122.298 222.097 126.598 220.297 131.398 L 217.097 140.098 L 212.597 140.398 L 208.097 140.698 L 210.997 144.698 C 215.497 150.898 223.297 168.198 227.797 181.698 C 231.297 192.698 232.297 194.198 235.197 194.198 C 244.997 194.198 266.797 191.898 267.497 190.898 C 267.897 190.198 268.297 188.498 268.297 186.998 C 268.297 182.398 273.197 164.998 275.997 159.698 C 277.397 156.898 280.797 152.098 283.397 148.898 C 288.197 143.198 288.297 142.898 288.297 136.398 C 288.297 129.198 290.597 123.398 297.097 113.998 C 298.797 111.398 300.297 109.098 300.297 108.898 C 300.297 107.498 285.297 112.698 276.397 117.098 C 271.297 119.698 269.797 120.098 269.197 118.998 C 263.397 110.298 256.297 95.698 255.197 90.698 C 254.197 85.498 252.397 80.498 252.297 82.298 Z M 247.497 131.698 C 254.997 140.298 254.697 139.198 253.197 150.498 C 251.997 160.498 251.797 160.898 245.397 171.098 L 238.897 181.498 L 237.597 178.598 C 235.997 174.998 229.497 157.198 229.097 155.198 C 228.897 154.298 230.097 153.398 232.197 152.598 C 235.297 151.598 235.997 150.698 238.997 142.798 C 241.497 136.398 242.097 133.698 241.397 132.298 C 240.697 131.098 240.797 130.098 241.497 129.398 C 243.297 127.598 244.097 127.898 247.497 131.698 Z" transform="matrix(1, 0, 0, 1, -28.108586756776475, 3.5066677585245145)"/>
  <path d="M 146.202 293.337 C 144.042 289.874 142.829 288.545 139.597 282.898 C 136.397 277.198 136.297 276.598 136.397 266.898 C 136.497 261.298 136.797 255.698 137.097 254.498 C 137.497 253.298 140.097 249.598 142.797 246.298 L 147.797 240.198 L 148.497 248.798 C 148.797 253.498 149.897 260.898 150.797 265.398 C 151.697 269.798 154.197 278.698 156.397 285.098 C 158.697 291.498 160.897 298.198 161.397 299.898 C 162.397 303.098 162.597 303.198 167.797 303.198 C 173.797 303.198 173.897 302.998 172.397 297.198 C 169.897 287.698 169.397 288.598 177.897 287.898 C 182.097 287.598 185.697 287.098 185.997 286.898 C 186.197 286.598 187.497 280.298 188.697 272.798 C 189.997 265.298 191.297 258.798 191.697 258.498 C 191.997 258.198 192.297 261.798 192.297 266.498 C 192.297 273.298 192.697 275.898 194.297 278.698 C 196.697 282.898 196.797 286.498 194.897 296.398 C 192.497 308.998 185.397 326.998 181.397 330.598 C 179.897 331.898 179.297 331.798 175.297 329.298 C 170.409 326.209 167.429 322.399 161.925 316.944 C 161.352 318.881 154.061 331.16 154.384 331.644 C 162.526 343.854 169.229 353.289 182.897 368.798 C 185.897 372.198 189.297 376.198 190.497 377.798 C 191.797 379.398 193.897 381.998 195.297 383.598 C 196.697 385.198 198.297 386.998 198.797 387.598 C 199.397 388.298 200.897 389.998 202.197 391.498 L 204.697 394.198 L 201.597 397.498 C 199.997 399.198 195.597 404.498 191.997 409.198 C 183.197 420.498 176.397 426.298 170.397 427.298 C 160.797 429.098 158.297 431.398 158.297 438.198 C 158.297 442.398 160.597 443.198 173.497 443.298 C 187.197 443.298 186.097 443.998 165.297 448.198 C 156.797 449.998 148.097 451.798 145.997 452.298 L 142.297 453.298 L 142.297 460.298 C 142.297 466.498 142.497 467.298 144.097 466.798 C 144.997 466.498 156.197 464.498 168.797 462.198 C 181.497 459.998 205.997 455.698 223.297 452.598 C 240.597 449.598 261.097 445.998 268.797 444.598 C 285.697 441.498 286.497 441.498 292.597 443.598 C 300.497 446.298 300.297 446.398 300.297 435.598 C 300.297 430.398 300.697 426.298 301.097 426.598 C 301.597 426.898 314.297 430.798 329.397 435.198 C 344.497 439.698 367.397 446.498 380.297 450.398 C 393.197 454.198 405.297 457.798 407.097 458.398 C 417.197 461.298 406.597 456.898 365.497 441.098 L 319.797 423.598 L 319.497 408.098 L 319.297 392.698 L 322.597 390.598 C 326.297 388.198 321.897 387.798 361.297 394.198 L 379.797 397.198 L 388.097 393.598 C 392.597 391.498 396.297 389.598 396.297 389.298 C 396.197 388.998 387.797 384.898 377.497 380.298 C 367.197 375.598 356.597 370.798 353.797 369.498 C 351.097 368.298 340.897 363.698 331.297 359.298 L 313.797 351.398 L 312.097 345.298 L 310.497 339.198 L 314.497 328.898 C 316.797 323.298 318.897 318.398 319.197 317.998 C 319.597 317.598 333.097 321.798 349.197 327.198 C 365.397 332.698 378.797 337.098 378.997 336.898 C 379.997 335.798 375.897 315.298 374.097 312.198 C 366.697 299.898 357.797 296.398 341.697 299.498 C 323.197 303.098 319.297 302.798 310.397 297.298 C 307.097 295.298 298.197 287.598 290.597 280.198 C 278.597 268.498 268.797 260.698 260.597 256.298 C 257.597 254.698 257.697 255.298 261.697 261.498 C 272.497 277.998 279.397 293.098 286.797 316.198 C 290.497 327.498 293.897 338.298 294.397 340.198 C 298.897 357.398 299.297 358.498 305.497 364.598 C 313.097 372.198 315.697 377.098 314.897 382.598 C 313.797 389.698 310.497 393.498 295.797 404.598 C 288.097 410.398 278.397 417.798 274.197 420.998 C 267.397 426.198 265.797 426.998 257.897 428.598 L 249.197 430.498 L 246.497 427.298 L 243.797 424.198 L 237.497 426.498 C 229.397 429.498 220.997 428.798 213.897 424.498 C 209.697 421.998 209.297 421.398 209.297 417.998 L 209.297 414.198 L 215.197 414.198 C 218.897 414.198 222.697 413.498 225.397 412.198 C 228.397 410.898 231.997 410.198 236.597 410.198 L 243.297 410.198 L 243.297 406.798 C 243.297 398.098 241.597 393.598 236.097 388.098 C 230.497 382.498 224.297 371.198 218.297 355.498 C 215.397 347.898 215.297 347.298 215.297 329.898 L 215.297 312.098 L 219.497 314.598 C 222.997 316.598 226.897 321.598 240.397 341.198 C 250.397 355.698 256.897 365.998 256.697 366.998 C 255.397 371.998 249.497 403.698 249.697 403.998 C 249.997 404.198 263.197 382.298 270.997 368.498 L 273.397 364.298 L 270.697 357.498 C 258.497 326.398 242.497 302.898 216.397 277.998 L 204.297 266.498 L 204.197 257.098 C 204.097 251.898 204.297 245.598 204.797 243.098 C 205.397 238.798 205.797 238.398 209.097 237.398 C 219.797 234.298 225.697 233.698 243.397 233.698 L 261.997 233.698 L 268.897 239.698 C 284.497 253.298 291.297 257.598 303.697 261.598 C 310.097 263.698 313.497 264.198 321.697 264.198 C 335.397 264.198 335.797 263.698 329.797 256.598 L 324.897 250.898 L 326.797 247.798 C 338.497 228.198 342.997 217.698 344.797 205.498 C 346.497 193.698 344.597 182.498 338.597 169.698 C 336.297 164.698 333.297 160.198 332.297 160.198 C 331.197 160.198 324.697 180.498 322.897 189.698 C 320.997 199.698 319.297 215.198 319.297 223.098 C 319.297 226.398 318.897 229.298 318.397 229.698 C 313.997 232.398 292.797 234.198 277.797 233.098 C 258.297 231.698 257.597 231.598 251.997 229.398 C 230.197 220.998 214.097 218.598 198.597 221.298 C 191.197 222.598 191.897 221.598 187.197 237.198 C 185.397 242.998 182.897 249.798 181.597 252.398 C 179.297 257.198 179.197 257.198 174.397 257.198 C 168.997 257.198 168.997 257.198 167.697 264.698 C 166.897 269.298 165.397 272.798 165.297 270.198 C 165.297 269.398 164.197 260.898 162.797 251.298 L 160.397 233.898 L 172.497 220.798 C 179.097 213.598 185.497 207.198 186.697 206.498 C 187.797 205.898 196.697 203.898 206.297 202.198 C 215.897 200.398 224.297 198.898 224.797 198.698 C 225.397 198.498 218.597 198.298 209.697 198.298 L 193.697 198.198 L 195.097 190.398 C 195.897 185.998 196.497 174.998 196.597 164.698 C 196.797 149.398 196.497 145.898 194.897 141.198 C 192.997 135.498 187.297 125.198 186.197 125.198 C 185.797 125.198 184.097 127.398 182.397 129.998 C 177.897 137.098 176.197 142.798 176.197 150.798 C 176.197 156.598 176.697 159.198 179.297 164.798 C 180.897 168.498 183.497 173.098 184.897 174.898 C 187.397 178.198 187.497 178.598 186.797 188.198 L 186.097 198.098 L 173.097 208.898 C 162.597 217.698 159.397 220.898 156.297 226.298 C 152.497 232.698 152.197 232.998 144.797 235.798 C 138.097 238.398 136.797 239.198 134.097 243.498 C 127.697 253.598 125.897 265.298 128.797 279.098 C 130.909 289.166 133.205 295.405 138.491 305.791 C 138.89 306.575 146.03 293.082 146.202 293.337 Z" transform="matrix(1, 0, 0, 1, -28.108586756776475, 3.5066677585245145)"/>
  <path d="M 395.297 344.098 C 402.197 347.298 412.597 352.198 418.397 354.998 L 429.097 359.998 L 423.797 374.798 C 420.897 382.998 416.797 394.298 414.797 399.998 L 411.197 410.298 L 417.697 427.798 L 424.297 445.298 L 422.197 453.798 C 420.997 458.498 420.197 462.398 420.397 462.498 C 420.597 462.698 424.497 463.698 428.997 464.898 L 437.097 466.998 L 439.097 461.398 L 441.197 455.898 L 438.197 447.198 C 433.797 433.998 432.297 424.298 432.297 409.498 C 432.297 394.998 433.997 382.898 437.797 370.698 L 440.197 362.898 L 429.597 351.298 L 418.997 339.698 L 409.897 339.098 C 404.897 338.698 396.797 338.398 391.797 338.298 L 382.797 338.198 L 395.297 344.098 Z M 299.597 458.298 L 299.797 468.498 L 280.797 468.698 C 270.397 468.798 248.297 470.098 231.797 471.598 C 215.297 472.998 192.997 474.898 182.297 475.698 C 171.597 476.598 158.397 477.698 152.997 478.198 C 147.597 478.798 142.597 479.198 141.797 479.198 C 140.897 479.198 139.897 477.398 139.197 474.698 C 137.897 469.598 137.197 469.398 132.597 472.198 C 129.597 473.998 129.297 474.598 129.297 479.298 L 129.297 484.498 L 161.597 483.798 C 179.297 483.498 235.197 482.498 285.797 481.698 C 378.197 480.298 431.597 479.098 431.097 478.698 C 430.897 478.498 425.597 477.198 419.297 475.798 C 412.997 474.398 399.297 471.198 388.797 468.798 C 378.397 466.398 362.597 462.798 353.797 460.798 C 344.997 458.798 333.997 456.198 329.297 455.098 C 324.597 454.098 316.797 452.198 311.797 451.098 C 306.897 449.998 301.997 448.798 301.097 448.598 C 299.497 448.098 299.397 449.098 299.597 458.298 Z" transform="matrix(1, 0, 0, 1, -28.108586756776475, 3.5066677585245145)"/>
  <g transform="matrix(0.1757970154285431, -0.05058200657367706, 0.05058200657367706, 0.1757970154285431, 53.663263829161, 302.18067898899324)">
    <path d="M130.415,277.741C95.083,313.074,45.038,324.723,0,312.697c5.918,22.164,17.568,43.116,34.956,60.504 c52.721,52.721,138.198,52.721,190.919,0c26.361-26.36,26.36-69.099,0-95.459C199.514,251.38,156.776,251.38,130.415,277.741z"/>
    <path d="M 212.771 234.276 C 225.499 239.103 237.174 246.614 247.088 256.528 C 257.165 266.605 264.544 278.366 269.278 290.906 L 378.225 185.412 L 322.309 128.421 C 302.015 148.715 226.908 220.139 212.771 234.276 Z"/>
    <path d="M 480.639 26.519 C 465.018 10.898 439.691 10.898 424.071 26.519 C 418.184 32.406 369.575 81.015 321.57 129.02 L 378.138 185.589 L 480.639 83.088 C 496.26 67.467 496.26 42.14 480.639 26.519 Z"/>
  </g>
  <path d="M 482.84 277.138 Q 477.696 277.138 473.505 273.709 Q 469.314 270.28 466.266 264.374 Q 460.742 254.087 458.075 236.18 Q 456.17 223.798 455.217 207.605 L 455.027 197.509 L 455.027 187.222 Q 454.836 182.269 454.836 175.22 Q 454.836 163.79 455.789 155.027 Q 456.551 145.883 459.599 136.93 Q 462.647 129.119 468.362 125.881 Q 471.791 124.357 475.22 124.357 Q 485.316 124.357 491.222 132.358 Q 497.699 141.311 499.794 152.36 Q 502.842 165.695 503.223 177.887 Q 503.985 191.413 503.985 203.414 L 503.985 214.273 Q 503.985 217.511 503.033 226.465 Q 502.271 233.513 502.271 238.466 L 502.271 239.228 Q 501.128 244.562 501.128 251.801 Q 501.128 257.135 498.842 262.85 Q 496.556 268.565 492.365 272.566 Q 488.174 277.138 482.84 277.138 Z M 483.221 266.66 Q 487.031 266.66 489.698 259.612 Q 491.984 253.325 493.031 244.277 Q 494.079 235.228 494.841 223.798 Q 495.222 218.845 495.222 211.034 L 495.032 193.508 Q 494.651 183.221 492.746 167.791 Q 491.222 154.646 487.031 144.55 Q 485.126 139.787 482.268 137.12 Q 479.411 134.453 476.172 134.453 Q 471.41 134.453 469.124 141.883 Q 466.266 149.693 465.314 159.028 Q 464.171 169.124 463.98 178.268 L 463.79 184.555 Q 463.599 187.222 463.599 191.794 L 463.599 192.556 Q 463.599 205.319 466.266 223.988 Q 469.314 249.325 475.22 259.993 Q 479.03 266.66 483.221 266.66 Z M 570.633 275.042 Q 566.251 275.042 561.298 265.517 Q 553.869 251.23 546.63 218.464 Q 544.534 209.51 543.201 201.89 Q 536.343 215.606 536.343 235.037 L 536.343 270.28 Q 536.343 274.661 532.533 274.661 Q 529.675 274.661 527.866 273.042 Q 526.056 271.423 526.056 268.565 L 526.056 210.844 Q 526.056 202.462 527.961 179.983 Q 529.866 160.361 529.866 149.122 Q 531.39 145.502 535.39 145.502 Q 537.867 145.502 539.581 147.217 Q 541.296 148.931 541.296 151.408 L 541.296 151.979 Q 538.819 156.17 538.819 186.65 L 538.819 193.508 L 545.868 179.602 Q 552.345 166.076 558.06 156.361 Q 563.394 146.836 565.87 146.836 Q 568.918 146.836 571.109 148.169 Q 573.3 149.503 573.3 151.979 L 568.728 159.599 Q 554.44 182.65 552.726 186.269 Q 552.726 189.508 552.535 191.984 L 552.345 197.699 Q 552.345 205.891 558.917 228.275 Q 565.489 250.658 569.871 257.897 L 572.347 261.326 Q 575.967 266.279 575.967 270.089 Q 575.967 272.185 574.348 273.614 Q 572.728 275.042 570.633 275.042 Z M 601.701 243.419 Q 599.796 243.419 598.081 238.657 Q 596.367 233.704 596.367 223.988 Q 596.367 220.559 596.748 211.034 Q 597.129 203.986 597.129 195.413 L 596.748 164.171 L 596.367 132.929 Q 596.367 129.881 598.843 127.691 Q 601.32 125.5 604.368 125.5 Q 606.273 125.5 607.606 126.833 Q 608.94 128.167 608.94 130.262 Q 608.94 147.026 607.035 175.792 Q 604.939 207.605 604.939 221.321 Q 604.939 231.418 604.653 235.895 Q 604.368 240.371 603.701 241.895 Q 603.034 243.419 601.701 243.419 Z M 598.272 275.995 Q 595.986 275.995 593.985 273.899 Q 591.985 271.804 591.985 268.756 Q 591.985 265.327 594.271 262.755 Q 596.557 260.183 599.796 260.183 Q 603.225 260.183 605.415 262.755 Q 607.606 265.327 607.606 269.327 Q 607.606 275.995 598.272 275.995 Z M 677.301 275.995 Q 670.443 275.995 665.49 273.518 Q 662.442 271.804 662.442 269.518 Q 662.442 267.232 663.585 265.803 Q 664.728 264.374 666.823 264.374 Q 668.728 264.374 672.348 265.898 Q 676.348 267.422 677.301 267.422 Q 680.92 267.422 683.873 264.279 Q 686.826 261.136 688.54 255.992 Q 691.969 246.467 691.969 238.847 Q 691.969 230.656 689.397 221.607 Q 686.826 212.558 682.444 203.986 L 679.396 197.89 Q 674.634 188.365 672.062 182.84 Q 669.49 177.316 667.585 170.839 Q 664.728 161.695 664.728 153.122 Q 664.728 146.264 667.109 140.168 Q 669.49 134.072 674.253 129.881 Q 679.015 125.309 686.064 125.309 Q 689.493 125.309 692.731 127.31 Q 695.97 129.31 697.303 132.358 L 694.065 136.358 Q 689.112 136.358 686.635 134.453 Q 683.206 134.834 680.634 137.787 Q 678.063 140.74 676.729 144.55 Q 675.586 148.169 675.586 151.789 Q 675.586 159.028 677.586 166.553 Q 679.587 174.077 682.825 180.745 L 696.16 207.415 Q 699.399 214.273 701.304 222.845 Q 703.209 231.418 703.209 239.99 Q 703.209 252.563 697.113 263.612 Q 693.874 269.327 688.731 272.661 Q 683.587 275.995 677.301 275.995 Z M 747.401 275.423 Q 742.448 275.423 738.257 272.28 Q 734.066 269.137 731.399 263.803 Q 725.874 252.182 724.541 238.466 Q 722.826 225.512 722.826 213.511 Q 722.826 211.225 723.017 209.701 L 723.017 206.272 Q 723.017 205.319 722.826 205.319 L 722.826 201.89 L 723.017 188.555 Q 723.207 182.459 724.541 169.124 Q 725.493 159.98 728.922 151.408 Q 730.256 147.598 732.351 145.598 Q 734.447 143.597 737.114 143.597 Q 744.734 143.597 750.83 146.36 Q 756.926 149.122 761.117 154.075 Q 764.927 158.837 767.594 165.791 Q 770.261 172.744 771.404 180.554 Q 772.547 188.555 772.547 197.509 L 772.547 199.033 Q 772.547 204.938 772.737 209.701 L 772.928 220.559 Q 772.928 275.423 747.401 275.423 Z M 746.639 267.422 Q 750.068 267.422 752.925 264.66 Q 755.783 261.898 757.307 257.135 Q 760.926 247.42 761.688 236.18 Q 762.641 226.465 762.641 219.416 Q 762.641 210.844 761.307 196.937 Q 760.164 182.269 760.164 175.03 L 760.164 171.601 Q 759.783 164.362 755.307 159.028 Q 750.83 153.694 744.353 153.694 Q 737.876 153.694 735.78 161.123 Q 733.875 167.029 733.875 176.363 Q 733.875 179.983 734.066 182.459 L 734.066 187.603 L 733.685 196.366 Q 733.304 200.366 733.304 205.129 Q 733.304 215.416 733.875 225.512 Q 734.637 239.8 737.685 253.325 Q 740.733 267.422 746.639 267.422 Z M 808.191 274.852 Q 805.714 274.852 803.809 272.756 Q 801.904 270.661 801.904 267.994 Q 801.904 265.136 804 262.85 Q 806.095 260.564 808.953 260.564 Q 811.62 260.564 813.715 262.85 Q 815.811 265.136 815.811 267.803 Q 815.811 270.851 813.62 272.852 Q 811.429 274.852 808.191 274.852 Z M 863.247 274.852 Q 860.77 274.852 858.865 272.756 Q 856.96 270.661 856.96 267.994 Q 856.96 265.136 859.056 262.85 Q 861.151 260.564 864.009 260.564 Q 866.676 260.564 868.771 262.85 Q 870.867 265.136 870.867 267.803 Q 870.867 270.851 868.676 272.852 Q 866.485 274.852 863.247 274.852 Z M 918.272 274.852 Q 915.796 274.852 913.891 272.756 Q 911.986 270.661 911.986 267.994 Q 911.986 265.136 914.081 262.85 Q 916.177 260.564 919.034 260.564 Q 921.701 260.564 923.797 262.85 Q 925.892 265.136 925.892 267.803 Q 925.892 270.851 923.701 272.852 Q 921.511 274.852 918.272 274.852 Z" transform="matrix(1.375711, 0, 0, 1.232258, -175.501648, -56.17857)" style="fill: rgb(51, 51, 51); white-space: pre;"/>
</svg>