<svg version="1.0" xmlns="http://www.w3.org/2000/svg" width="1280" height="1280" viewBox="0 0 960 960">
  <path d="M353.5 1c-5.7 1.2-17.1 5.6-20.5 8-1.5 1.1-3.2 2-3.7 2-.4 0-2.3 1.4-4.2 3-1.8 1.7-3.7 3-4.1 3-1.7 0-19.9 19.3-25.4 26.9-9.2 12.7-10 14.8-7.8 22.7.7 2.3 1.1 9.2 1 15.5-.1 10.9.7 16.2 3.5 21.4.6 1.1 1.1 2.3 1.2 2.7 0 .4 2.4 3.9 5.3 7.8 4.1 5.4 6.3 9.5 9.2 17.9 3.4 10 5.9 15 14.2 29 2.7 4.4 4.9 8.8 5.3 10.3.2.5.4 1.1.5 1.5.1.5.2 1.2.1 1.6-.1.4-.4 2.4-.7 4.5-.3 2-.8 4-1 4.3-.2.3-.6 1.9-.9 3.6-.2 1.7-1.7 8-3.1 13.9-4 16.9-5.4 23.7-5.4 26.3 0 1.8 3.9-4 12.5-18.4 4.1-6.9 5.2-8.7 8-13l2-3.1 9.7.1c5.4 0 9.8-.2 9.8-.5s4.5-.6 10-.7c11.9-.1 13.5-.6 12.1-3-1.5-2.7-9.3-10.8-12.2-12.7-1.5-.9-5.3-1.9-8.4-2.1-3.2-.3-7.1-1-8.7-1.7-2.6-1.2-2.8-1.7-2.4-5.3 1.1-8.5 2.8-20 3.1-20.5.2-.3 3.9-.5 8.2-.4 9.6.1 13.5-1.3 16.6-6.3 4.5-7 6.5-8.1 16-8.2 2.6-.1 4.7-.6 4.7-1.1 0-.6-.4-1-1-1-.5 0-3.8-1.7-7.2-3.8-11.1-6.7-13.5-7.5-20.2-6.9-3.4.4-7.2.9-8.6 1.2-1.4.3-3.6.8-5 1.1-5.8 1.1-14.9 3.9-19.9 6.1-2.9 1.3-5.6 2.2-5.8 1.9-1.1-1.1-1.7-8.8-1.7-20.6.1-14.9 1.3-18.4 7.6-22 7.9-4.4 15.1-3.4 39.2 6 13.1 5 13.9 5.2 19.6 4.9 13.4-.6 18.9-.1 24.2 2.4 5.9 2.7 13.1 9.4 19.6 18 2.4 3.2 4.7 5.5 5.1 5.2.9-.5.7-20.9-.4-27-.8-5-3-8.2-8.4-12-6.5-4.6-16.1-4.4-28.8.6-1.8.7-3.5 1-3.8.7-.4-.3.1-4.7 1.1-9.7 1.5-7.7 1.5-9.3.3-10.7-1.5-1.8-9.9-5.9-14.4-7-1.7-.4-3.4-1-4-1.4-.8-.6-9.5-3.2-15.3-4.5-.9-.3-3.7-.9-6.2-1.6-8.2-2-11.7-2.6-19-3.5-3-.4-6.4-.8-7.5-1-1.1-.1-2.3-.3-2.7-.3-1.4-.2 8-8.7 15.8-14.4 8.5-6.1 13.7-7.9 22.7-7.7 17.2.3 43.7 12.3 65.6 29.8 6.2 4.9 22.8 21.5 27.8 27.7 1.8 2.2 5.9 7.4 9.3 11.5 3.3 4.1 6 7.8 6 8.3 0 .4.4.6.9.3.9-.6.7-8.6-.4-15.1-1.4-8.1-6.2-18.8-12.9-28.5-3.9-5.8-17.2-19.6-22.5-23.5-2.3-1.7-5.6-4.2-7.4-5.7-1.8-1.5-3.6-2.8-4-2.8-.5 0-2.7-1.3-5-2.8-7.9-5.3-29.2-15.3-35.7-16.7-.8-.2-5.3-1.3-10-2.5-9.1-2.3-24.8-3.3-31.5-2zM488.5 112.2c.8 3.8 8.8 20 14.5 29.4 2.2 3.5 4 6.7 4 7 0 .2.5 1 1.1 1.7.6.7 3.3 4.7 5.9 8.9l4.9 7.7 4.3-.4c2.4-.2 7.9-.7 12.3-1 4.4-.4 9.1-.8 10.5-1 1.4-.2 6.3-.7 11-1 4.7-.4 9.9-.8 11.5-1 1.7-.3 6.8-.7 11.5-1.1 4.7-.3 10.1-.7 12-1 1.9-.2 8.2-.6 14-.9l10.5-.7 2.4 2.8c13.6 15.7 26.2 36.6 37.1 61.9 2.2 5 8 20.1 8.4 22 .3 1.1.8 2.6 2.5 7.5.7 1.9 1.4 4.4 1.6 5.4.3 1 .9 3.3 1.5 5.1.6 1.8 1.2 4.1 1.4 5.1.2 1.1.9 3.9 1.6 6.4.7 2.5 1.4 5.6 1.7 7 .3 1.4.6 3.2.8 4 .8 3.5 1.9 11.6 1.7 12.2-.1.5.1.8.5.8.5 0 .8 1.5.9 3.2.2 5.3 1.3 23.3 1.5 23.8.1.3.1.9 0 1.3s-.3 6.1-.6 12.5-.7 12.8-.9 14.2c-.3 1.4-.7 5-1.1 8.1-.3 3.1-.7 6.5-.9 7.5-.9 4.8-2.8 16.4-2.7 16.9 0 .2-.6 2.2-1.4 4.4-.7 2.2-1.2 4.1-1 4.3.3.2-.2 2.6-1.1 5.3-.8 2.8-1.4 5-1.4 5 .1 0-.1.7-.3 1.5-.2.8-1.9 6.7-3.6 13-1.7 6.3-5 17.3-7.3 24.3l-4.2 12.8 4.2 8.2c2.3 4.5 7.2 13.8 10.8 20.7 3.6 6.9 10.2 19.5 14.6 28 4.5 8.5 10 19.1 12.3 23.5 2.4 4.4 7.3 13.8 11 21 3.7 7.1 7.1 13.5 7.6 14.1.5.6 1.2 8.5 1.5 17.5.3 9 .7 20 .9 24.4.1 4.4.4 9.8.4 12l.2 4 3.3-7c1.8-3.9 4-8.6 4.9-10.5 3.3-7.3 5.8-17.8 6.2-26.3.3-4.9.7-9.3 1.1-9.8.3-.5.2-.9-.3-.9-.4 0-.8-2.1-.7-4.8 0-2.6-.3-6.4-.8-8.5-.4-2-1.1-5.4-1.4-7.5-.3-2-1-4.4-1.5-5.3-.4-.9-1-2.7-1.3-4-1-5.4-8.3-22.8-15.7-37.4-3.1-6-8.8-17.2-12.7-24.7-7.4-14.5-7.4-14.6-4.9-24.3.9-3.3 1.8-7.1 2.1-8.5.2-1.4.7-3.6 1-5 .3-1.4.7-3.9 1-5.5.2-1.7.7-4.4 1-6 .5-3.1 2.2-13.5 3.1-19.5.3-1.9.8-5.8 1.1-8.5.3-2.8.7-6.1 1-7.5 2.3-13.2 2.3-50.7 0-72-.2-1.9-.7-6.9-1.1-11-.4-4.1-.8-8.9-1.1-10.5-.2-1.7-.6-5.3-.9-8-.9-8.4-2.4-18.7-4.1-27.5-.2-1.4-.7-4.1-1-6-2.3-14.6-11.3-44-16.8-54.9-1.4-2.8-2.3-5.1-1.9-5.1.3 0 .1-.6-.5-1.3-.5-.6-2.4-3.8-4.2-7-3.3-6.1-11.9-19.3-14.8-22.9-7.7-9.4-23.8-23.8-26.7-23.8-.4 0-1.9-.8-3.3-1.8-3-2.1-17.8-8.2-25.7-10.5-10.8-3.3-14.3-3.6-49-4.2l-30-.6-5.5-3.7c-3-2-6.1-4.2-6.8-4.9-.7-.7-2.6-2-4.2-3-1.7-.9-3-2.1-3-2.5 0-.4-.6-.8-1.4-.8-.8 0-1.6-.3-1.8-.8-.6-1.3-7.2-5.9-9.7-6.7-2.2-.7-2.3-.5-1.6 2.7z" />
  <path d="M445.1 165.2c-1.9 5.7-4 11.6-4.7 13.3-.7 1.6-2.2 5.5-3.4 8.5-1.1 3-2.5 6.4-3 7.5-1.6 3.9-2.3 6-2.2 6.7.1.5-.2.8-.8.8-.5 0-1 .5-1 1 0 1.9-5.5 14-6.3 14-.4 0-4.1-2.3-8.2-5-8-5.4-10-6.1-9-3.1.3 1.1.7 2.8.9 3.8.2 1 1.2 4.7 2.1 8.3 2 7.6 2.3 9.2 3.1 14.5 1.2 8.8-.3 27.2-2.6 31.6-1.2 2.2-2.2 2.4-5.2.6-4.8-2.7-5.9-5.1-8.3-17.7-2.1-11.4-3.7-16.2-4.8-15-.5.6-7.3 17.8-11.5 29l-2.8 7.5-4.4.2c-2.5 0-4.5.2-4.5.3 0 .1-1.8.3-4 .4-2.2.2-4.1.4-4.3.5-.2 0 1.7 2.9 4.2 6.3 5.6 7.9 12.9 21.8 19.6 37.3 2.9 6.6 5.8 13.3 6.5 15 .7 1.6 3.4 8.8 5.9 16 11.9 33.5 10.9 31.8 19.9 31.8 9.2.1 40.9-2.3 50.2-3.8 1.7-.3 4.2-.7 5.8-.9 4.5-.8 6.7-1.7 6.8-2.9 0-.7.2-2.1.5-3.2.2-1.1.6-3.8.8-6 .7-5.8 1.4-9.6 2.5-13.3.5-1.8 1-3.3.9-3.5-.3-2 8-27.3 11.3-33.9 3.4-7.1 16.5-25.9 19.9-28.8 3-2.6 5.4-10 5-15.5-.2-3.5-.2-3.7.4-9.2.7-6.5 1.6-10.4 3.8-15.3 2.5-5.8 5.1-11.2 6-12.5 1.9-2.5 7.8-11.7 7.8-12.1 0-.2 1.4-2.3 3.1-4.6 2.7-3.8 2.8-4.3 1.2-4.9-1.6-.5-23.4 6.3-30.7 9.6-1.7.7-7.1 3.2-12.1 5.5-4.9 2.3-10.6 4.8-12.6 5.5-3.5 1.3-3.7 1.2-5.7-1.4-2.4-3.3-13.1-22.1-15.6-27.6-1.1-2.2-3.3-6.9-5-10.5-3.1-6.2-4.9-11.6-9.6-27.8-1.1-3.9-2.2-7.2-2.3-7.2-.1 0-1.8 4.6-3.6 10.2zm-6.4 89.6c2.9 3.1 6.9 8.1 9 11 3.3 4.9 3.6 5.9 3.5 11.9-.1 3.7-.3 7.8-.6 9.2-.3 1.4-.8 4.5-1.1 6.8-1.6 13.4-2 15-5.5 23-1.2 2.9-2.6 5.3-3.1 5.3s-.8.3-.7.7c.1.5-1.3 3.3-3.2 6.3-1.9 3-6 9.5-9 14.4-3.1 4.9-6.2 9.2-6.9 9.4-.8.3-1.1 0-.8-.6.4-.5 0-1.5-.8-2.2-.8-.7-1.5-1.8-1.5-2.4 0-.6-1.1-3.8-2.4-7.1-1.3-3.3-3.4-8.6-4.5-11.8-1.2-3.1-3-8.1-4-11-1.1-2.8-2.3-6.1-2.7-7.2-.4-1.1-1.3-3.9-1.9-6.2-1.1-3.9-1-4.4.9-5.6 1.2-.8 3.1-1.7 4.3-2.1 3.8-1.2 7.2-4.6 9.4-9.4 1.2-2.6 2.3-4.9 2.3-5.2.1-.3 1.1-3 2.3-6 4.4-10.9 5.6-16.7 4.3-20.6-1-3.1-1-3.8.6-5.4 2.9-2.9 6.1-1.6 12.1 4.8z" />
  <path d="M314 242.8c0 .5-.8 1.7-1.8 2.8-2.4 2.6-7.6 11.2-10 16.6-7.5 16.6-8.6 36.6-2.9 51.8 2.2 5.8 8.4 18.5 11.2 22.9.6.9 2.4 3.7 4.1 6.3 2.9 4.4 3 5.2 2.8 13.5-.1 4.8-.5 12.8-.9 17.8-.4 4.9-.7 9.8-.7 10.7.1 1.6-2.9 4.6-11.2 11.3-2.1 1.6-4.5 3.7-5.4 4.5-.9.9-3.9 3.3-6.7 5.5-2.7 2.2-5.7 4.7-6.6 5.5-.9.8-4.4 4-7.9 7-10.6 9.2-15.8 15.1-21.7 24.4-3 4.9-6.2 9.6-7.1 10.6-1.8 1.8-8.7 6.7-8.7 6.2 0-1.1-20.1 7.7-22.3 9.8-5.1 4.8-11.3 15.3-14.9 25.5-3.5 9.6-4.6 16.6-4.6 29-.1 9.1.7 18.8 1.8 21.5.3.8.7 2.8 1 4.5 1.3 8.7 5.1 21.3 9.9 32.9 4.6 11 8.4 18.6 9.4 18.6.7 0 4.3-5.5 9-14 1.4-2.5 3.1-5.4 3.8-6.5 2.2-3 1.8-4.2-4.4-13.9-3.2-5-7.4-12.2-9.3-16.1l-3.4-7v-17c-.1-23.7.5-27.3 5-33.7 6.6-9.2 16-20.7 17-20.7.6-.1 1.1 1.8 1.1 4.2.1 4.6 1.3 18.8 1.9 22.7.2 1.4.6 4.3 1 6.5.3 2.2.7 5.3 1 7 .2 1.6.9 5.5 1.5 8.5s1.3 6.6 1.6 7.9c.3 1.3.9 3.1 1.3 4 .5.9.9 1.9 1 2.3.1.5.1.9.2 1 0 .2.2 1.1.4 2.1.3 1.5 2.3 8.7 4.2 14.7.2.8.4 1.7.5 2 0 .3.4 1.2.9 2.1.6 1.2.1 3.1-1.5 6-5.8 10.6-7.7 14.1-13.9 25.3-3.7 6.5-6.7 11.9-6.7 12.1 0 .1-3.6 6.4-8 14s-8 13.9-8 14c0 .1-2.5 4.4-5.5 9.4-5.5 9.2-5.9 11.1-2.7 11.1 5.2.2 13.8 4.8 19.4 10.4 1.5 1.6 3 2.7 3.2 2.5.4-.5 11.5-19.9 15.1-26.4 1.5-2.8 3.1-5.5 3.5-6 1.5-1.9 7.1-12 7.7-13.8.3-.9.9-1.7 1.4-1.7.5 0 .9-.4.9-1 0-.5 2.1-4.8 4.7-9.4 4.1-7.3 5-8.3 6.8-7.7 1.7.6 9.1.7 15.6.2 3-.2 3.1-3.5.3-14.9-3.3-13-2.9-14 4.7-14.7 2.4-.2 7.6-.6 11.4-1 12.6-1 12.2-.8 13.4-7.8.6-3.4 1.3-7.3 1.6-8.7.3-1.4.8-4.1 1.1-6 .2-1.9.9-5.8 1.5-8.6 1.7-8.6 2.1-10.8 2.3-12.9.7-4.9 3-13.5 3.5-12.9.3.3.7 3.6.8 7.2.4 15.2 1.3 25.3 2.3 27.2.6 1.1.8 2 .4 2s0 .8.8 1.7c2.9 3.3 4.6 10.3 4.2 18.2-.1 4.2-.5 8.6-.7 9.7-.3 1.2-.8 3.7-1.1 5.5-1.2 6.8-1.8 9.5-3.7 16.4-1.1 3.8-2.2 7.7-2.4 8.5-2.2 8.7-11.3 30.8-16.1 39-4.2 7.2-6.7 9.4-9.7 8.7-4.8-1.3-14.9-8.9-24.4-18.5l-9.9-10-2.8 5.2c-1.5 2.8-4.6 8.7-6.9 13.1-2.3 4.4-4.5 8.2-4.8 8.5-.9.8-.1 4.4 1 4.8.6.2 1.1.8 1.1 1.3 0 .9 3.6 6.6 5 7.9.3.3 1.4 1.8 2.4 3.5 2.6 4 20.8 28.7 22.1 30 .6.5 2.9 3.2 5 6 2.2 2.7 5 6.1 6.2 7.5 5 5.8 6.7 7.7 9.6 11.3 3 3.7 7.5 8.8 11.6 13.2 1 1.1 4.4 5.3 7.7 9.4 3.2 4.1 7.5 9.3 9.5 11.5 2 2.3 7 8 11.1 12.7l7.6 8.5-5.2 5.5c-2.8 3.1-6.9 7.8-9 10.5-2.2 2.7-4.6 5.6-5.3 6.4-.7.8-4.5 5.5-8.4 10.5-16.9 21.3-29.8 31.5-42.9 33.9-1.9.3-4.6.8-5.9 1.1-2.9.5-9.8 4.1-11.8 6-3.6 3.7-5.6 16.1-2.9 19.4 3 3.7 13.1 5 42.5 5.1 3.5 0 4.1.3 3.2 1.4-.9 1.1-8.1 3-18.9 5.1-.9.2-1.8.4-1.9.5-.4.3-1.3.5-6.6 1.4-6.6 1-7.3 1.2-14.2 2.9-3.3.9-8 1.9-10.5 2.2-2.4.4-4.7.8-5.1 1-.3.2-2.1.7-4 1-1.9.3-5 1-6.9 1.4-1.9.5-4.7 1.2-6.2 1.5-4.3 1-5.7 3-4.8 7 .4 1.9.4 3.9 0 4.6-.4.6-.5 2.6-.3 4.3.3 1.8.6 5 .7 7.2.2 2.2.4 4.4.5 4.8.1.9-.4 1 22.6-3.3 9.4-1.8 17.9-3.3 19-3.5 6-1.1 14.3-2.6 16.5-3 1.3-.3 4-.7 6-1 2-.3 4.7-.8 6-1 1.4-.3 4-.8 5.9-1.1 1.8-.3 4.3-.8 5.5-1 1.1-.3 3.5-.7 5.1-.9 5.2-.8 7.8-1.2 23.5-4.2 4.7-.8 9.6-1.7 11-1.9 4.1-.5 16.3-2.7 22.5-4 1.7-.4 4.1-.8 5.5-1 1.4-.1 6.6-1 11.5-1.9 5-.9 10.1-1.8 11.5-1.9 1.4-.2 3.6-.6 5-.9 1.4-.4 4.3-.9 6.5-1.3 2.2-.3 5.4-.8 7-1.2 1.7-.3 4.2-.6 5.8-.6 1.5-.1 2.7-.4 2.7-.7 0-.3.6-.6 1.3-.6 2.7-.1 9.4-1.2 14-2.2 2.6-.6 6.5-1.3 8.5-1.6 2-.3 4.8-.7 6.2-1 1.4-.3 4.1-.8 6-1.1 1.9-.3 4.9-.7 6.5-1 1.7-.3 3.7-.7 4.5-.9.8-.2 3.1-.6 5-.9 1.9-.3 4.6-.8 6-1.1 16.3-3.4 28.8-4.5 35.5-3.3 1.7.3 5.7 1.6 8.9 2.8 6.4 2.5 10.2 2.8 11.8 1.2.6-.6 1.2-3.2 1.4-5.9.2-2.6.3-4.8.4-4.8 0 0 .2-5.3.3-11.7.2-6.4.6-12 1-12.4.3-.4 3.3.1 6.4 1.1 3.2.9 8.5 2.5 11.8 3.5 3.3 1 10.5 3.2 16 4.8 5.5 1.7 19.2 5.8 30.5 9.2 18.2 5.4 23.4 6.9 29 8.5.8.2 12.1 3.6 25 7.5s24.2 7.3 25 7.5c2.4.6 48.8 14.4 57.5 17.1 4.4 1.4 9.4 2.9 11.1 3.3 1.8.5 3.7 1.1 4.3 1.5.6.4 1.1.3 1.1-.1 0-.8-2.5-2-17.5-8.3-2.2-.9-7.8-3.2-12.5-4.9-4.7-1.8-9.4-3.7-10.5-4.2-2.4-1-18.8-7.3-19.5-7.4-.3-.1-1.6-.6-3-1.2-2.2-.9-5.8-2.4-13.5-5.3-1.1-.4-4.9-1.9-8.5-3.3-3.6-1.5-13.2-5.2-21.5-8.3-8.2-3.1-17-6.5-19.5-7.4-2.5-1-7.2-2.7-10.5-3.9-3.3-1.3-6.9-2.6-8-3.1-1.8-.8-15.3-6-28.9-11.1-2.7-1-5.3-2.2-5.8-2.7s-1-14.5-1.1-31.2l-.2-30.4 5.5-3.9c5.3-3.7 5.7-3.8 12-3.2 3.6.3 9.4 1 13 1.5 3.6.6 8.1 1.3 10 1.6 1.9.2 6 .9 9 1.4 3 .5 7.2 1.2 9.4 1.5 2.1.3 4.1.7 4.5.9.3.2 3 .7 5.9 1 2.9.3 6.3.8 7.5 1.1 1.2.2 3.8.7 5.7 1 1.9.2 4.6.7 6 1 1.4.2 4.1.7 6 .9 4.6.6 10.9 1.6 14 2.2 1.4.3 4.5.7 7 1 2.5.4 4.6.8 4.8.9.2.2 3.6-1.2 7.5-3 17.2-7.8 24.7-11.6 24.7-12.4 0-.5-1.1-1.6-2.5-2.5-1.4-.9-2.5-1.4-2.5-1.1 0 .4-1.3-.3-2.9-1.4-1.6-1.2-3.4-2.1-4-2.1-.6 0-2.5-.8-4.3-1.8-1.8-1-6.2-3.1-9.8-4.7-3.6-1.5-10.3-4.6-15-6.7-4.7-2.2-9.8-4.6-11.5-5.3-1.6-.7-7.4-3.4-12.8-5.9-5.4-2.5-10-4.6-10.2-4.6-.3 0-4.8-2-10.1-4.5s-9.7-4.5-9.9-4.5c-.2 0-5.1-2.3-11-5-5.9-2.8-10.8-5-11-5-.2 0-5-2.2-10.7-4.8-5.7-2.7-12-5.5-14-6.2-2.1-.8-3.8-1.8-3.8-2.2 0-.4-.8-.8-1.7-.9-1 0-5.1-1.7-9.2-3.7-7.1-3.6-7.4-3.9-8.6-8.5-.7-2.6-1.2-4.9-1.3-5-.3-.9-1.2-4-2.4-8.7l-1.5-5.5L571 653c8.3-20.7 10.7-26 11.7-26 .4 0 3.1.7 5.8 1.6 2.8.8 5.8 1.7 6.9 1.9 1 .3 3.7 1.1 6 1.9 4.1 1.5 28.7 9.4 31.6 10.2 3.4.8 26.6 9 27.8 9.8.6.4 1.2.5 1.2.2 0-.5 15.8 4.9 16.7 5.8.4.3 1.8.6 3.3.6 1.5 0 3 .3 3.3.7 1.2 1.1 15 5.2 15.9 4.7 1.1-.7-.7-14.1-3.6-27.4-4.8-21.7-6.4-24.8-17.7-36.1-9.4-9.3-19.4-12.8-35.7-12.4-5.3.1-12.6.7-16.2 1.4-3.6.7-7.4 1.4-8.5 1.6-1.1.2-2 .4-2 .5 0 .1-1.6.3-3.5.5-1.9.3-4.6.7-6 1-6 1.4-21.7 1.4-26.6.1-5.5-1.4-17.9-7.6-21-10.4-1.1-.9-5.1-4.2-8.9-7.4-3.9-3.1-9.1-7.6-11.6-10-2.5-2.3-10.2-9.5-16.9-15.8-6.8-6.3-13.3-12.4-14.4-13.5-1.2-1.1-5-4.5-8.6-7.4-3.6-3-6.7-5.7-7-6.1-.9-1.2-19.4-14.2-23.4-16.4-2.1-1.1-4.8-2.7-6-3.3-3.3-1.9-3.2.9.1 5.9 3.3 5.1 3.3 5 11.8 19.3 3.6 6 7 11.7 7.5 12.5 2.3 3.7 13.5 27.3 16.7 35 1.8 4.7 3.8 9.4 4.2 10.5 2.5 6 3.6 9 8.2 22.8 2.8 8.4 5.3 15.9 5.7 16.7.3.8.6 1.7.7 2 .7 2.6 5.2 16.9 7 22 1.3 3.6 3.9 12.3 5.9 19.5 2 7.1 4.1 14.5 4.7 16.3.6 1.8 1.2 4.3 1.5 5.7 1.5 8.3 7.3 19 14.2 26.2 11.2 11.7 15.3 16.9 18.2 22.8 3.5 7.1 4.2 12.2 2.5 18.7-.7 2.6-1.1 4.9-.9 5.1.3.2-.2 1-1.1 1.7-.8.7-1.5 1.7-1.5 2.3 0 .9-5.6 8.3-8.5 11.2-3.8 3.9-16.2 13.9-35 28-7.7 5.8-14.9 11.2-16 12.1-4.3 3.5-16.8 13-18.3 13.9-.9.5-2.7 2-4.1 3.3-5.3 4.7-16.3 9.1-30.9 12.3l-14.3 3.1-3.2-3.8c-4.6-5.4-7.7-8.4-8.6-8.4-.5 0-4 1.2-7.7 2.6-19.8 7.7-37.3 6.4-53.1-3.9-6.7-4.4-7.3-5.5-7.3-13.7v-5.5l10.8-.2c9-.1 12.2-.6 19.9-3.2 12.1-4 13.9-4.3 26.6-4.5l10.9-.1-.6-10.5c-.5-11.1-.6-11.9-2.4-16.3-.7-1.6-1.2-3.2-1.2-3.6 0-1.1-6.6-9.7-10.7-14.1-11.4-12.1-22.2-31.8-34-61.8-4.7-12-4.9-12.7-6.2-20.6-.9-5-1.6-68.6-.8-68.6 1.7 0 11.2 6.3 14.4 9.5 2.2 2.3 15.6 19.4 18.1 23.1.7 1 3.8 5.5 7 10 3.1 4.4 9.8 14.1 14.7 21.5 5 7.4 9.2 13.6 9.5 13.9.3.3 2.1 3 4 6s3.8 5.6 4.2 5.8c.5.2.8.8.8 1.4 0 .5.9 2.2 1.9 3.7 1.1 1.5 3.3 5.2 5 8.2 2.7 5 2.9 5.9 2 9.9-.6 2.5-1.3 5.5-1.5 6.7-.2 1.3-.6 3.4-.9 4.8-.3 1.4-.7 3.7-1 5.2-.7 3.4-7.2 38.8-7.9 42.3-.2 1.4-.7 4.3-1.2 6.5-.6 3.7-.6 3.9.9 2.6 1-.7 1.7-1.8 1.7-2.3 0-.5 1.1-2.4 2.5-4.2 1.4-1.8 2.5-3.6 2.5-3.9 0-.4 1.7-3.3 3.7-6.4 2.1-3.2 4.3-6.8 5-8.1 2.4-4.2 3.9-6.7 7.1-12.2 3.5-5.9 4-6.7 9-14.7 1.7-3 3.2-5.5 3.2-5.8 0-.2 1.4-2.8 3.1-5.7 8.7-14.6 8.5-14 5.4-21.3-2-4.5-2.4-5.5-6-14.5-6.7-16.8-19.2-41.7-28.2-56.5-.7-1.1-1.6-2.7-2-3.5-1.8-3.8-18.9-28.6-21.3-31-.3-.3-1.6-2.1-2.9-4-2-2.9-7-9-13.6-16.6-.5-.6-3.5-4-6.5-7.5-5.9-6.8-29.2-30.3-45.4-45.7-9.5-9.1-9.8-9.4-9.4-13.3.2-2.1.1-3.9-.2-3.9-.7 0-.4-10.6.4-11.9.4-.6.3-1.1-.1-1.1-.5 0-.8-2.4-.6-5.3.8-19.6 2-27.4 4.7-29.6 1.5-1.2 18.7-5.9 24.6-6.7 1.9-.3 4.6-.7 6-.9 6.6-1.2 21.1-1.8 49.4-1.9 34-.1 30.3-.7 38.1 6.2 1.7 1.5 7.3 6.3 12.5 10.7 5.2 4.4 9.7 8.2 10 8.5.3.3 4.1 3.2 8.5 6.6 16.7 12.7 33.6 20.9 54.3 26.4 7.1 1.8 12 2.2 29.3 2.3 14.2.1 17.1-.2 19.3-1.6 2.5-1.7 2.5-1.9 1.2-4.5-.8-1.5-4.8-6.7-8.9-11.6l-7.6-8.9 2.5-3.6c1.4-2 3-4.8 3.7-6.4.6-1.5 1.5-2.7 1.9-2.7.4 0 .8-.4.8-1 0-.5 1.4-3.3 3.1-6.2 8.4-14 21.1-41 22.4-47.6.2-.9.8-2.8 1.3-4.2 1.1-2.8 3.9-16.2 4.7-22.5 1.1-8.3.5-25.9-1.1-32.5-.4-1.4-.8-3.4-.9-4.5-1.7-13.2-18.7-49.4-23.1-49.5-1 0-6.1 10.9-6.8 14.5-.3 1.3-5.5 18.3-6.6 21.5-.8 2.2-3 9.9-3.6 12.5-1.5 6.8-3.6 17.6-3.9 19.8-.2 1.5-.9 6.3-1.5 10.6s-1.3 10-1.6 12.7c-.3 2.7-.7 6.5-.9 8.4-.3 3-1 13.6-2 31.6-.1 2.8-.5 5.6-.9 6.3-.7 1.2-9.5 4-14.9 4.7-1.7.3-4.5.7-6.2.9-14 2-53.5 2.7-70.5 1.2-4.1-.4-10.6-.9-14.5-1.2-9.6-.8-19.7-2.4-21-3.4-.5-.5-2.1-1.1-3.5-1.4-1.4-.3-6.8-2.1-12-4.1-5.2-2-12-4.3-15-5.2-9.5-2.7-20.4-5.5-23-6-19-3.5-35.3-4.8-37.7-3.1-.8.6-1.3.5-1.3-.1s-.6-1-1.2-.7c-.7.2-4.5.6-8.4.9-8 .6-16.7 2.2-20.4 3.7-2.1.9-5.3 4.3-5.6 5.9 0 .3-.5 1.6-1.1 3-.6 1.4-2.3 6.5-3.7 11.5-3.1 10.1-3.2 10.6-7.7 23-1.7 4.9-4 10.9-5 13.2-1.1 2.3-1.9 4.6-1.9 5 0 .5-1.3 2.4-2.8 4.2-2.7 3.2-3 3.3-11 3.6-6.8.2-8.5.6-9.7 2.1-.8 1-1.5 2.1-1.5 2.4-.1.3-.3 1.2-.5 2-.5 1.9-1.4 6.2-1.9 9.2-1.5 8.5-4.5 14.7-4.7 9.6 0-1.3-.2-3.2-.4-4.3-.1-1.1-.5-4.3-.9-7.1s-.9-6.1-1.1-7.5c-.3-1.3-.7-5.1-1.1-8.3-.3-3.3-.7-6.2-.9-6.5-.1-.3-.6-3.5-1-7.1-.4-3.6-.9-7.4-1.1-8.5-.2-1.1-.6-3.6-.9-5.5-.2-1.9-.9-6.6-1.4-10.3-.9-6.6-.9-6.9 1.7-9.6 1.5-1.5 7-7.4 12.2-13.1 25.9-28.2 36.6-38.8 39.8-39.5 1.2-.3 3.1-.7 4.2-1 4.3-1.1 5.8-1.4 13-3 4.1-.9 8.6-1.9 10-2.1 1.4-.2 3.6-.7 5-.9 4.7-1 6.7-1.3 10.6-1.9 2.2-.4 4.6-.8 5.4-1.1.8-.2 3.1-.6 5-.9 7.4-1.2 18.2-3.4 18.7-4 .3-.3-1.9-.5-4.8-.6-3 0-16.5-.1-30.1-.2l-24.8-.3.5-3.8c.3-2.2.7-4.2.9-4.6.2-.3.7-3.1 1-6.1.3-3 .8-6.6 1.1-8 1.6-8.2 2.6-70.9 1.2-80.8-.8-5.9-4.3-16.6-6.5-20-.8-1.2-1.1-2.2-.7-2.2.5 0 .2-.8-.6-1.8-.8-.9-2.4-3.6-3.5-5.9-1-2.4-2.2-4.3-2.6-4.3-.5 0-.8-.5-.8-1.1 0-1.9-4.1-6.9-5.6-6.9-.8 0-1.4.4-1.4.8z" />
  <path d="M194.7 661.6c-6 2.1-9.4 5.1-14.7 12.8-5.5 8.3-11.9 14.3-18.9 17.9-5.4 2.9-14 5.5-18.8 5.9-1.8.1-3.3.4-3.3.7 0 .7 4.9 6.9 7.6 9.6 5.8 5.8 17.8 11.9 25.5 13.1 5.8.9 14.9.6 20.3-.7 11.7-2.7 24.7-12.1 30.4-21.9 3.1-5.3 3.3-5.9 3.9-13.2.5-6.3-1.4-12-6.1-17.5-5.6-6.6-17.4-9.7-25.9-6.7zM710.6 668.2c.3.5 1.2.8 2 .8s1.4.4 1.4 1c0 .5.6 1 1.4 1 .8 0 5.4 2 10.3 4.4 4.8 2.4 11.1 5.4 13.8 6.6 4.7 2.1 14.9 6.9 34 16 4.4 2.1 12.4 5.9 17.8 8.4l9.8 4.7-.7 3.2c-.3 1.7-1 3.8-1.5 4.7-.4.8-1.2 2.8-1.7 4.5-.6 1.6-5.4 15.1-10.7 30-19.8 55-20.6 57.5-19.6 60.9 1.2 3.9 1.8 5.6 14.6 39.5 9.5 25.2 10.5 28.6 9.6 31.4-1 3.2-5.6 22.9-6.5 28-.3 2 0 3 1.6 3.8 1.1.6 2.2.8 2.5.6.2-.3 2 .1 3.9.9s3.4 1.2 3.4.9c0-.3.8-.1 1.9.4 1 .6 3.3 1.3 5.2 1.6 1.9.3 5.8 1.3 8.8 2.2 6 1.7 6.6 1.4 7.7-4.5.3-1.7 1.1-3.2 1.7-3.2.6 0 .8-.3.4-.6-.3-.3.3-2.7 1.4-5.2 2.3-5.4 2.7-9.3 1.1-12.5-1.7-3.5-5.2-13.7-4.7-13.7.2 0-.4-2-1.5-4.5s-1.8-4.5-1.6-4.5c.2 0-.3-2.1-1.1-4.8-.8-2.6-1.6-5.7-1.8-6.9-.2-1.1-.6-2.9-.9-4-.3-1-.8-3.5-1.2-5.7-.3-2.1-.7-4.8-1-6-2.5-13.2-2.5-64 .1-76.6.3-1.4.7-4.3 1-6.5.2-2.2.9-5.5 1.4-7.4.6-1.9.9-3.7.6-3.9-.2-.3 0-1.2.4-2.1.5-.9 1.1-3 1.4-4.6.2-1.7 1.5-6.4 2.8-10.5 1.2-4.1 2.4-8 2.5-8.5.1-.6.9-3.1 1.7-5.7 1.7-5.4 2.8-3.5-10.3-17.8-4.5-4.9-9.1-9.9-10.2-11.2-1.1-1.3-6.2-6.8-11.4-12.4-8-8.6-9.8-10.1-12.6-10.2-1.8 0-6.7-.3-10.8-.6-23.7-1.7-57-2.5-56.4-1.4zM543.2 890.1c-.5 1.2-.7 9.9-.5 19.5.2 12.5 0 17.5-.9 18-.7.4-12.2.8-25.7 1-22 .1-33.5.5-56.4 1.9-14 .8-24.4 1.5-30.2 2-17.1 1.4-20.3 1.6-23.5 2-1.9.2-7.1.7-11.5 1-7.8.5-13.8 1-24 2-8.1.7-16.5 1.4-24.5 2-4.1.3-10 .8-13.1 1-3.1.3-8.3.7-11.5 1-3.2.2-9 .7-12.9 1.1-3.8.3-9.2.7-12 .9-2.7.2-7.7.6-11 .9-3.3.3-8.5.8-11.5 1-3 .3-8.9.8-13 1.2-4.1.3-9.1.8-11 .9-9.9.8-18.7 1.6-20.7 2-3 .7-5.8-2.6-7.3-8.3-1.7-7.2-3.6-9.5-6.8-8.7-4.1 1-11 5.7-12.1 8.3-.6 1.2-1.1 6.1-1.1 10.8v8.5l30.3-.6c16.6-.3 40.3-.8 52.7-1 12.4-.2 38-.7 57-1 19-.4 45.8-.8 59.5-1 13.8-.2 40.1-.6 58.5-1 18.4-.3 45-.8 59-1 14-.2 41.9-.7 62-1 20.1-.4 47.8-.8 61.5-1 46.4-.7 98.7-1.8 142.4-3 9.6-.3 17.9-.9 18.3-1.3.5-.5.3-.9-.4-.9-1.9-.1-17.3-3.5-29.3-6.5-2.2-.6-4.1-1-4.2-1-.2 0-3.1-.6-6.5-1.5-8.2-1.9-10.9-2.5-13.3-2.8-1.1-.2-2-.4-2-.5 0-.2-.9-.4-2-.6-3.6-.6-5-.9-6.2-1.7-.7-.5-1.3-.6-1.3-.3 0 .2-1.5 0-3.2-.5-1.8-.5-4.6-1.2-6.3-1.5-1.6-.2-3.8-.7-4.7-1-.9-.3-2.5-.6-3.5-.8-1-.2-8.9-2-17.5-4.1-8.7-2-16.6-3.8-17.6-4-1-.2-5-1.1-8.8-2-10.6-2.5-11.7-2.7-13.9-3-1.1-.2-4-.8-6.5-1.5s-5.2-1.3-6-1.5c-1.9-.4-23.7-5.4-27-6.2-1.4-.4-3.2-.8-4-.9-.8-.1-4.4-.9-8-1.9-3.6-.9-7.4-1.9-8.5-2.1-3.1-.6-41.4-9.4-56.3-12.9-1.7-.4-2.4 0-3 1.6z" />
</svg>