<?xml version="1.0" encoding="utf-8"?>
<svg viewBox="66.415 3.469 1047.485 488.721" xmlns="http://www.w3.org/2000/svg" xmlns:bx="https://boxy-svg.com">
  <defs>
    <style bx:fonts="Amatic SC">@import url(https://fonts.googleapis.com/css2?family=Amatic+SC%3Aital%2Cwght%400%2C400%3B0%2C700&amp;display=swap);</style>
    <bx:grid x="67.416" y="3.455" width="54.388" height="54.388"/>
  </defs>
  <path d="M 386.87 292.802 C 383.283 292.802 380.033 291.739 377.107 289.591 C 374.182 287.45 371.656 284.537 369.536 280.849 C 365.68 274.425 362.829 265.618 360.968 254.436 C 359.639 246.697 358.644 237.774 357.979 227.66 L 357.779 218.204 L 357.779 208.561 C 357.65 205.472 357.582 201.725 357.582 197.323 C 357.582 190.18 357.913 183.876 358.577 178.405 C 359.109 172.687 360.434 167.043 362.561 161.447 C 364.686 156.568 367.746 153.119 371.731 151.098 C 374.119 150.141 376.505 149.67 378.901 149.67 C 385.939 149.67 391.524 152.166 395.638 157.159 C 400.156 162.759 403.14 169.007 404.603 175.903 C 406.727 184.234 407.922 192.207 408.187 199.817 C 408.721 208.272 408.986 216.237 408.986 223.735 L 408.986 233.907 C 408.986 235.928 408.655 239.74 407.989 245.33 C 407.457 249.736 407.195 253.483 407.195 256.574 L 407.195 257.291 C 406.398 260.615 406 264.546 406 269.069 C 406 272.398 405.202 275.848 403.606 279.419 C 402.014 282.989 399.757 286.024 396.835 288.522 C 393.912 291.377 390.596 292.802 386.87 292.802 Z M 387.268 282.989 C 389.927 282.989 392.186 280.79 394.042 276.387 C 395.638 272.457 396.805 267.671 397.533 262.024 C 398.262 256.367 398.892 249.972 399.421 242.834 C 399.689 239.74 399.82 235.75 399.82 230.874 L 399.623 214.452 C 399.361 208.029 398.562 199.997 397.233 190.361 C 396.17 182.153 394.183 174.894 391.256 168.585 C 389.927 165.613 388.263 163.289 386.274 161.623 C 384.283 159.956 382.156 159.127 379.899 159.127 C 376.576 159.127 374.119 161.447 372.526 166.088 C 370.528 170.971 369.206 176.324 368.54 182.153 C 367.746 188.459 367.281 194.463 367.145 200.179 L 366.945 206.069 C 366.814 207.733 366.746 209.991 366.746 212.848 L 366.746 213.565 C 366.746 221.535 367.675 231.348 369.536 243.012 C 371.656 258.838 374.779 270.083 378.901 276.747 C 381.557 280.911 384.349 282.989 387.268 282.989 Z M 478.698 290.841 C 475.642 290.841 472.388 287.868 468.935 281.919 C 463.753 272.995 458.641 258.3 453.597 237.837 C 452.134 232.247 450.94 227.061 450.002 222.309 C 445.219 230.874 442.833 241.225 442.833 253.362 L 442.833 286.377 C 442.833 289.115 441.505 290.487 438.847 290.487 C 436.856 290.487 435.23 289.98 433.964 288.968 C 432.7 287.96 432.074 286.56 432.074 284.774 L 432.074 230.699 C 432.074 225.461 432.734 215.826 434.063 201.783 C 435.396 189.525 436.061 179.892 436.061 172.87 C 437.121 170.608 439.051 169.476 441.836 169.476 C 443.562 169.476 445.026 170.011 446.218 171.085 C 447.413 172.148 448.013 173.47 448.013 175.011 L 448.013 175.552 C 446.288 178.163 445.42 188.99 445.42 208.029 L 445.42 214.452 L 452.795 201.427 C 457.314 192.981 461.564 185.724 465.547 179.652 C 469.265 173.704 471.99 170.731 473.717 170.731 C 475.841 170.731 477.669 171.145 479.198 171.976 C 480.729 172.811 481.486 173.999 481.486 175.552 L 476.702 182.684 C 466.744 197.083 461.16 205.407 459.97 207.673 C 459.97 209.695 459.902 211.484 459.77 213.029 L 459.573 218.379 C 459.573 223.497 461.861 233.047 466.445 247.024 C 471.025 261.009 474.85 270.258 477.899 274.78 L 480.487 277.988 C 483.015 281.087 484.278 283.822 484.278 286.2 C 484.278 287.512 483.713 288.614 482.584 289.506 C 481.456 290.399 480.161 290.841 478.698 290.841 Z M 511.194 261.215 C 509.867 261.215 508.604 259.725 507.41 256.754 C 506.214 253.663 505.612 249.079 505.612 243.012 C 505.612 240.87 505.748 236.826 506.012 230.874 C 506.283 226.472 506.414 221.598 506.414 216.237 L 506.012 186.969 L 505.612 157.697 C 505.612 155.794 506.48 154.152 508.203 152.789 C 509.928 151.425 511.854 150.74 513.986 150.74 C 515.311 150.74 516.444 151.156 517.364 151.986 C 518.3 152.822 518.768 153.893 518.768 155.197 C 518.768 165.668 518.097 179.892 516.774 197.86 C 515.311 217.727 514.58 231.945 514.58 240.509 C 514.58 246.815 514.483 251.372 514.279 254.167 C 514.083 256.962 513.755 258.838 513.29 259.785 C 512.819 260.734 512.124 261.215 511.194 261.215 Z M 507.602 291.739 C 506.012 291.739 504.516 291.08 503.126 289.776 C 501.728 288.464 501.034 286.856 501.034 284.953 C 501.034 282.811 501.831 280.937 503.424 279.334 C 505.017 277.725 506.943 276.917 509.202 276.917 C 511.595 276.917 513.547 277.725 515.078 279.334 C 516.607 280.937 517.364 282.989 517.364 285.49 C 517.364 289.653 514.112 291.739 507.602 291.739 Z M 590.268 291.739 C 585.484 291.739 581.365 290.959 577.92 289.413 C 575.788 288.346 574.726 287.098 574.726 285.666 C 574.726 284.238 575.126 283.077 575.92 282.182 C 576.719 281.296 577.849 280.849 579.312 280.849 C 580.637 280.849 582.561 281.321 585.085 282.275 C 587.88 283.227 589.607 283.7 590.268 283.7 C 592.793 283.7 595.082 282.722 597.14 280.759 C 599.203 278.799 600.828 276.211 602.024 272.995 C 604.412 267.042 605.611 261.692 605.611 256.929 C 605.611 251.814 604.713 246.43 602.923 240.777 C 601.121 235.126 598.704 229.626 595.646 224.273 L 592.457 218.559 C 589.142 212.61 586.583 207.909 584.785 204.46 C 582.995 201.007 581.433 197.26 580.105 193.219 C 578.112 187.505 577.117 181.973 577.117 176.611 C 577.117 172.332 577.948 168.288 579.608 164.484 C 581.269 160.677 583.76 157.461 587.075 154.842 C 590.4 151.986 594.517 150.56 599.432 150.56 C 601.824 150.56 604.145 151.188 606.406 152.434 C 608.666 153.683 610.264 155.259 611.188 157.159 L 607.802 160.912 C 604.353 160.912 601.76 160.315 600.03 159.127 C 597.646 159.365 595.547 160.41 593.754 162.255 C 591.96 164.09 590.602 166.203 589.669 168.585 C 588.871 170.851 588.474 173.108 588.474 175.371 C 588.474 179.892 589.172 184.502 590.571 189.202 C 591.96 193.899 593.792 198.334 596.045 202.498 L 609.993 227.48 C 612.25 231.765 614.045 236.588 615.378 241.94 C 616.708 247.291 617.368 252.651 617.368 258.003 C 617.368 265.855 615.24 273.239 610.992 280.133 C 608.732 283.7 605.81 286.526 602.221 288.614 C 598.633 290.694 594.651 291.739 590.268 291.739 Z M 663.588 291.201 C 660.134 291.201 656.947 290.215 654.028 288.254 C 651.101 286.289 648.714 283.646 646.853 280.314 C 642.999 273.054 640.604 265.141 639.676 256.574 C 638.476 248.482 637.885 240.693 637.885 233.196 C 637.885 231.765 637.953 230.582 638.086 229.626 L 638.086 226.41 C 638.086 225.821 638.019 225.52 637.885 225.52 L 637.885 222.309 L 638.086 209.815 C 638.219 206.007 638.746 199.938 639.676 191.61 C 640.344 185.899 641.87 180.368 644.26 175.011 C 645.19 172.631 646.383 170.819 647.846 169.567 C 649.307 168.318 650.969 167.694 652.83 167.694 C 658.145 167.694 662.926 168.557 667.177 170.282 C 671.425 172.008 675.013 174.413 677.932 177.508 C 680.593 180.484 682.853 184.148 684.71 188.487 C 686.57 192.83 687.9 197.446 688.698 202.317 C 689.488 207.312 689.89 212.61 689.89 218.204 L 689.89 219.633 C 689.89 223.315 689.957 226.649 690.086 229.626 L 690.289 239.801 C 690.289 274.063 681.391 291.201 663.588 291.201 Z M 662.792 283.7 C 665.18 283.7 667.375 282.84 669.368 281.115 C 671.359 279.393 672.888 277.044 673.955 274.063 C 676.472 267.999 678 261.451 678.531 254.436 C 679.198 248.365 679.53 243.13 679.53 238.725 C 679.53 233.374 679.06 226.355 678.137 217.668 C 677.34 208.507 676.933 201.661 676.933 197.142 L 676.933 193.932 C 676.67 189.41 674.977 185.48 671.856 182.153 C 668.733 178.816 664.916 177.152 660.401 177.152 C 655.882 177.152 652.892 179.474 651.432 184.114 C 650.106 187.801 649.442 192.563 649.442 198.388 C 649.442 200.652 649.505 202.553 649.641 204.104 L 649.641 208.924 L 649.247 217.131 C 648.978 219.633 648.845 222.371 648.845 225.343 C 648.845 231.765 649.045 238.135 649.442 244.439 C 649.977 253.362 651.299 262.049 653.427 270.493 C 655.549 279.303 658.675 283.7 662.792 283.7 Z M 727.178 290.665 C 725.444 290.665 723.917 290.013 722.591 288.702 C 721.261 287.393 720.594 285.903 720.594 284.238 C 720.594 282.453 721.327 280.849 722.787 279.419 C 724.246 277.988 725.978 277.274 727.968 277.274 C 729.832 277.274 731.491 277.988 732.949 279.419 C 734.411 280.849 735.143 282.392 735.143 284.06 C 735.143 285.961 734.381 287.538 732.852 288.79 C 731.322 290.042 729.431 290.665 727.178 290.665 Z M 784.76 290.665 C 783.029 290.665 781.504 290.013 780.176 288.702 C 778.847 287.393 778.183 285.903 778.183 284.238 C 778.183 282.453 778.912 280.849 780.374 279.419 C 781.834 277.988 783.56 277.274 785.555 277.274 C 787.416 277.274 789.076 277.988 790.534 279.419 C 792.001 280.849 792.726 282.392 792.726 284.06 C 792.726 285.961 791.965 287.538 790.44 288.79 C 788.909 290.042 787.017 290.665 784.76 290.665 Z M 842.312 290.665 C 840.586 290.665 839.057 290.013 837.732 288.702 C 836.396 287.393 835.736 285.903 835.736 284.238 C 835.736 282.453 836.467 280.849 837.928 279.419 C 839.391 277.988 841.117 277.274 843.108 277.274 C 844.969 277.274 846.628 277.988 848.092 279.419 C 849.556 280.849 850.284 282.392 850.284 284.06 C 850.284 285.961 849.521 287.538 847.989 288.79 C 846.462 290.042 844.571 290.665 842.312 290.665 Z" style="white-space: pre;"/>
  <text style="font-family: &quot;Amatic SC&quot;; font-size: 54.8px; font-weight: 700; white-space: pre;" transform="matrix(0.504201, 0, 0, 0.504201, 128.809952, 152.368927)"><tspan x="487.081" y="364.106">Draw to explain・Draw to grasp・Organize your drawings</tspan><tspan x="487.08099365234375" dy="1.2em">​</tspan></text>
</svg>