<?xml version="1.0" encoding="utf-8"?>
<svg viewBox="66.415 3.469 1047.485 488.721" xmlns="http://www.w3.org/2000/svg" xmlns:bx="https://boxy-svg.com">
  <defs>
    <style bx:fonts="Amatic SC">@import url(https://fonts.googleapis.com/css2?family=Amatic+SC%3Aital%2Cwght%400%2C400%3B0%2C700&amp;display=swap);</style>
    <bx:grid x="67.416" y="3.455" width="54.388" height="54.388"/>
  </defs>
  <path d="M 310.192 118.777 C 304.586 120.164 298.706 124.825 294.101 131.486 C 292.158 134.313 292.047 134.592 292.66 136.588 C 293.048 137.809 293.157 139.918 292.937 141.414 C 292.547 144.522 293.768 147.963 296.209 150.516 C 296.985 151.404 297.874 153.235 298.206 154.844 C 298.595 156.508 299.927 159.394 301.424 161.668 C 302.814 163.886 303.979 166.052 303.923 166.495 C 303.923 166.94 303.089 170.547 302.145 174.486 C 301.203 178.37 300.482 181.7 300.592 181.811 C 300.704 181.922 302.145 179.703 303.81 176.87 L 306.862 171.767 L 312.856 171.6 C 316.131 171.545 318.792 171.267 318.792 171.048 C 318.792 170.822 317.904 169.714 316.849 168.55 C 315.574 167.107 314.465 166.495 313.409 166.495 C 310.802 166.495 309.47 165.939 309.693 164.944 C 309.749 164.388 310.026 162.833 310.192 161.336 L 310.525 158.726 L 313.521 158.726 C 316.295 158.726 316.516 158.617 317.573 156.841 C 318.572 155.177 319.07 154.9 321.123 154.733 L 323.509 154.567 L 320.288 152.679 C 317.017 150.794 317.017 150.794 313.244 151.46 C 311.192 151.791 308.306 152.568 306.919 153.123 L 304.42 154.234 L 304.088 152.457 C 303.868 151.46 303.81 149.073 303.923 147.131 C 304.088 144.079 304.255 143.412 305.53 142.526 C 307.696 140.86 310.192 141.084 315.741 143.412 C 318.514 144.578 321.233 145.465 321.844 145.356 C 326.451 144.8 328.726 145.133 330.834 146.855 C 331.999 147.795 333.496 149.405 334.219 150.46 C 334.938 151.514 335.716 152.4 335.937 152.513 C 336.159 152.568 336.272 150.57 336.159 148.075 C 335.937 144.023 335.716 143.302 334.55 142.247 C 332.221 140.085 329.558 139.972 325.228 141.804 C 324.286 142.247 324.23 142.083 324.563 140.085 C 324.785 138.917 325.063 137.532 325.228 137.031 C 325.394 136.364 324.73 135.812 322.788 134.98 C 319.293 133.481 312.467 131.65 308.527 131.204 L 305.421 130.817 L 307.196 129.209 C 308.195 128.265 309.972 126.878 311.192 126.1 C 315.296 123.382 321.233 124.492 329.723 129.597 C 335.439 133.038 339.932 137.363 346.315 145.689 C 347.09 146.742 347.146 146.574 346.926 143.691 C 346.37 137.809 342.429 131.816 335.716 126.766 C 327.504 120.61 316.573 117.167 310.192 118.777 Z M 348.2 148.685 C 348.2 150.072 350.307 154.344 353.359 159.282 C 355.192 162.166 356.69 164.608 356.744 164.608 C 356.744 164.667 362.792 164.109 370.119 163.444 C 377.442 162.778 383.603 162.335 383.879 162.445 C 384.098 162.556 385.544 164.334 387.042 166.327 C 394.975 176.816 401.467 195.959 401.467 208.888 C 401.467 217.989 399.75 227.642 396.142 239.017 L 394.145 245.176 L 398.75 253.998 C 401.246 258.825 405.076 266.15 407.238 270.256 L 411.178 277.748 L 411.457 285.516 L 411.734 293.283 L 413.232 290.176 C 415.339 285.739 415.896 283.296 415.896 278.579 C 415.896 272.144 413.454 265.263 407.238 254.056 C 404.687 249.393 404.354 248.45 404.797 247.117 C 405.908 243.956 407.571 233.691 408.236 226.533 C 408.738 220.762 408.738 217.323 408.181 210.997 C 406.351 189.023 403.465 178.426 396.586 168.327 C 392.423 162.279 388.373 159.227 381.159 156.729 C 377.11 155.341 375.999 155.177 367.232 155.064 L 357.634 154.954 L 354.749 152.846 C 353.14 151.68 350.976 150.127 350.032 149.405 C 349.033 148.627 348.2 148.352 348.2 148.685 Z" style=""/>
  <path d="M 337.104 161.556 C 337.049 162.445 333.664 171.657 332.108 174.985 L 330.443 178.759 L 327.948 177.039 C 326.561 176.095 325.452 175.485 325.452 175.652 C 325.452 175.817 325.951 177.871 326.561 180.2 C 327.449 183.475 327.616 185.251 327.337 188.134 C 326.894 193.017 326.507 193.574 324.73 192.408 C 323.622 191.687 323.287 190.742 322.733 187.302 C 322.344 184.918 321.844 183.252 321.568 183.475 C 321.345 183.751 320.346 186.137 319.348 188.802 L 317.573 193.628 L 315.073 193.795 L 312.579 193.963 L 314.188 196.181 C 316.684 199.621 321.013 209.221 323.509 216.71 C 325.452 222.814 326.005 223.647 327.616 223.647 C 333.053 223.647 345.147 222.37 345.538 221.817 C 345.759 221.428 345.982 220.484 345.982 219.652 C 345.982 217.099 348.699 207.445 350.255 204.504 C 351.032 202.952 352.916 200.286 354.359 198.513 C 357.022 195.35 357.08 195.183 357.08 191.577 C 357.08 187.582 358.354 184.361 361.963 179.147 C 362.905 177.704 363.737 176.427 363.737 176.317 C 363.737 175.541 355.415 178.426 350.477 180.867 C 347.646 182.31 346.813 182.531 346.48 181.922 C 343.262 177.095 339.322 168.992 338.712 166.218 C 338.158 163.331 337.16 160.56 337.104 161.556 Z M 334.441 188.969 C 338.601 193.74 338.435 193.13 337.604 199.398 C 336.936 204.949 336.827 205.169 333.275 210.83 L 329.668 216.601 L 328.946 214.991 C 328.059 212.994 324.453 203.117 324.23 202.007 C 324.12 201.506 324.785 201.009 325.951 200.565 C 327.671 200.01 328.059 199.511 329.723 195.127 C 331.112 191.577 331.442 190.077 331.056 189.301 C 330.667 188.635 330.725 188.08 331.112 187.691 C 332.108 186.693 332.555 186.86 334.441 188.969 Z" style=""/>
  <path d="M 278.236 278.657 C 277.037 276.735 276.363 275.997 274.571 272.865 C 272.794 269.701 272.738 269.367 272.794 263.986 C 272.85 260.88 273.015 257.773 273.182 257.106 C 273.403 256.439 274.845 254.388 276.344 252.556 L 279.12 249.172 L 279.511 253.943 C 279.674 256.552 280.286 260.657 280.785 263.154 C 281.283 265.596 282.67 270.535 283.89 274.085 C 285.169 277.635 286.39 281.355 286.666 282.298 C 287.22 284.074 287.332 284.13 290.217 284.13 C 293.546 284.13 293.602 284.016 292.77 280.799 C 291.382 275.526 291.105 276.028 295.82 275.639 C 298.151 275.472 300.149 275.194 300.316 275.083 C 300.425 274.915 301.148 271.423 301.812 267.26 C 302.535 263.098 303.257 259.493 303.478 259.325 C 303.645 259.157 303.81 261.156 303.81 263.764 C 303.81 267.538 304.034 268.979 304.919 270.535 C 306.253 272.865 306.309 274.861 305.254 280.356 C 303.923 287.346 299.982 297.333 297.763 299.331 C 296.931 300.052 296.597 299.997 294.378 298.61 C 291.667 296.896 290.013 294.783 286.958 291.757 C 286.641 292.831 282.593 299.644 282.773 299.911 C 287.293 306.688 291.012 311.922 298.595 320.527 C 300.261 322.415 302.145 324.633 302.814 325.521 C 303.534 326.41 304.699 327.85 305.476 328.739 C 306.253 329.628 307.14 330.627 307.419 330.959 C 307.752 331.346 308.585 332.293 309.303 333.122 L 310.69 334.62 L 308.97 336.452 C 308.085 337.397 305.642 340.334 303.645 342.944 C 298.763 349.215 294.989 352.433 291.659 352.986 C 286.333 353.987 284.946 355.262 284.946 359.036 C 284.946 361.366 286.222 361.81 293.379 361.865 C 300.98 361.865 300.37 362.256 288.829 364.584 C 284.113 365.583 279.285 366.581 278.12 366.859 L 276.067 367.414 L 276.067 371.299 C 276.067 374.738 276.181 375.181 277.066 374.905 C 277.564 374.738 283.781 373.628 290.774 372.352 C 297.818 371.131 311.413 368.745 321.013 367.024 C 330.612 365.36 341.987 363.364 346.258 362.586 C 355.637 360.866 356.078 360.866 359.464 362.031 C 363.847 363.528 363.737 363.585 363.737 357.593 C 363.737 354.707 363.96 352.433 364.18 352.599 C 364.458 352.767 371.505 354.928 379.884 357.372 C 388.262 359.868 400.969 363.641 408.128 365.804 C 415.285 367.914 421.999 369.911 422.995 370.243 C 428.601 371.851 422.72 369.412 399.916 360.645 L 374.558 350.934 L 374.391 342.335 L 374.279 333.789 L 376.111 332.624 C 378.163 331.291 375.722 331.07 397.584 334.62 L 407.85 336.285 L 412.455 334.29 C 414.951 333.122 417.005 332.068 417.005 331.904 C 416.948 331.735 412.286 329.46 406.574 326.908 C 400.858 324.3 394.975 321.637 393.424 320.917 C 391.925 320.248 386.265 317.698 380.938 315.258 L 371.228 310.872 L 370.284 307.489 L 369.396 304.103 L 371.616 298.386 C 372.892 295.28 374.057 292.56 374.224 292.341 C 374.445 292.119 381.936 294.449 390.869 297.442 C 399.858 300.497 407.295 302.939 407.405 302.827 C 407.959 302.217 405.686 290.842 404.687 289.121 C 400.581 282.298 395.643 280.356 386.708 282.073 C 376.443 284.074 374.279 283.906 369.34 280.854 C 367.509 279.745 362.574 275.472 358.354 271.367 C 351.698 264.874 346.258 260.545 341.708 258.104 C 340.045 257.217 340.099 257.55 342.318 260.99 C 348.312 270.147 352.14 278.524 356.245 291.341 C 358.299 297.611 360.184 303.605 360.463 304.658 C 362.962 314.204 363.181 314.814 366.624 318.196 C 370.84 322.415 372.282 325.133 371.838 328.186 C 371.228 332.125 369.396 334.234 361.238 340.391 C 356.967 343.609 351.585 347.716 349.257 349.492 C 345.483 352.378 344.595 352.822 340.21 353.707 L 335.382 354.765 L 333.884 352.986 L 332.386 351.266 L 328.891 352.543 C 324.397 354.208 319.737 353.82 315.797 351.434 C 313.468 350.044 313.244 349.713 313.244 347.826 L 313.244 345.719 L 316.516 345.719 C 318.572 345.719 320.68 345.33 322.177 344.611 C 323.843 343.888 325.839 343.501 328.391 343.501 L 332.108 343.501 L 332.108 341.612 C 332.108 336.786 331.165 334.29 328.113 331.237 C 325.009 328.128 321.568 321.859 318.238 313.148 C 316.629 308.931 316.573 308.597 316.573 298.942 L 316.573 289.067 L 318.905 290.454 C 320.845 291.563 323.01 294.338 330.501 305.212 C 336.051 313.258 339.655 318.974 339.546 319.528 C 338.824 322.302 335.549 339.893 335.661 340.061 C 335.827 340.17 343.152 328.018 347.478 320.361 L 348.811 318.031 L 347.314 314.258 C 340.544 297.003 331.665 283.961 317.184 270.147 L 310.469 263.764 L 310.414 258.549 C 310.357 255.662 310.469 252.168 310.748 250.78 C 311.08 248.394 311.301 248.172 313.132 247.618 C 319.07 245.896 322.344 245.565 332.167 245.565 L 342.485 245.565 L 346.315 248.893 C 354.97 256.439 358.743 258.825 365.623 261.046 C 369.175 262.21 371.062 262.488 375.611 262.488 C 383.214 262.488 383.434 262.21 380.105 258.272 L 377.387 255.109 L 378.441 253.389 C 384.933 242.513 387.43 236.687 388.429 229.918 C 389.371 223.369 388.318 217.154 384.987 210.052 C 383.713 207.278 382.049 204.782 381.494 204.782 C 380.881 204.782 377.278 216.046 376.275 221.15 C 375.223 226.699 374.279 235.298 374.279 239.682 C 374.279 241.514 374.057 243.125 373.78 243.344 C 371.339 244.842 359.575 245.843 351.252 245.232 C 340.431 244.454 340.045 244.4 336.936 243.18 C 324.839 238.518 315.908 237.187 307.307 238.684 C 303.199 239.404 303.59 238.851 300.98 247.506 C 299.982 250.726 298.595 254.498 297.874 255.941 C 296.597 258.604 296.542 258.604 293.881 258.604 C 290.884 258.604 290.884 258.604 290.161 262.765 C 289.716 265.319 288.885 267.26 288.829 265.818 C 288.829 265.373 288.219 260.657 287.442 255.331 L 286.112 245.676 L 292.824 238.408 C 296.488 234.413 300.036 230.859 300.704 230.474 C 301.315 230.138 306.253 229.029 311.579 228.088 C 316.907 227.085 321.568 226.255 321.844 226.144 C 322.177 226.033 318.404 225.923 313.468 225.923 L 304.586 225.868 L 305.364 221.539 C 305.809 219.097 306.142 212.994 306.196 207.278 C 306.309 198.79 306.142 196.847 305.254 194.239 C 304.198 191.076 301.037 185.362 300.425 185.362 C 300.204 185.362 299.261 186.583 298.317 188.026 C 295.82 191.965 294.879 195.127 294.879 199.566 C 294.879 202.783 295.155 204.228 296.597 207.335 C 297.486 209.388 298.928 211.939 299.704 212.937 C 301.092 214.768 301.148 214.991 300.76 220.319 L 300.37 225.812 L 293.157 231.803 C 287.332 236.687 285.556 238.462 283.836 241.459 C 281.729 245.01 281.56 245.176 277.455 246.728 C 273.74 248.172 273.015 248.617 271.518 251.003 C 267.966 256.607 266.967 263.098 268.576 270.755 C 269.747 276.342 271.021 279.803 273.956 285.566 C 274.176 286.002 278.139 278.516 278.236 278.657 Z" style=""/>
  <path d="M 416.449 306.822 C 420.278 308.597 426.05 311.317 429.266 312.871 L 435.204 315.644 L 432.263 323.857 C 430.654 328.407 428.379 334.676 427.269 337.839 L 425.271 343.555 L 428.878 353.265 L 432.54 362.976 L 431.378 367.693 C 430.709 370.3 430.265 372.465 430.376 372.52 C 430.489 372.629 432.652 373.183 435.149 373.849 L 439.642 375.015 L 440.753 371.908 L 441.918 368.856 L 440.254 364.03 C 437.812 356.705 436.981 351.322 436.981 343.112 C 436.981 335.065 437.922 328.352 440.033 321.584 L 441.362 317.255 L 435.483 310.817 L 429.6 304.381 L 424.552 304.048 C 421.775 303.826 417.282 303.66 414.507 303.605 L 409.514 303.55 L 416.449 306.822 Z M 363.35 370.189 L 363.459 375.848 L 352.916 375.957 C 347.146 376.015 334.885 376.735 325.729 377.57 C 316.573 378.345 304.198 379.4 298.261 379.844 C 292.326 380.344 285.001 380.952 282.002 381.23 C 279.009 381.564 276.235 381.787 275.789 381.787 C 275.291 381.787 274.736 380.787 274.347 379.288 C 273.625 376.459 273.238 376.347 270.685 377.9 C 269.02 378.9 268.853 379.231 268.853 381.841 L 268.853 384.725 L 286.776 384.337 C 296.597 384.17 327.616 383.616 355.691 383.171 C 406.962 382.394 436.592 381.73 436.312 381.508 C 436.202 381.398 433.262 380.676 429.766 379.898 C 426.27 379.122 418.669 377.346 412.844 376.015 C 407.073 374.684 398.305 372.685 393.424 371.575 C 388.542 370.467 382.438 369.022 379.828 368.411 C 377.221 367.859 372.892 366.804 370.119 366.193 C 367.4 365.583 364.681 364.917 364.18 364.806 C 363.293 364.529 363.237 365.083 363.35 370.189 Z" style=""/>
  <g transform="matrix(0.097545, -0.028065, 0.028065, 0.097545, 242.482224, 281.619232)" style="">
    <path d="M130.415,277.741C95.083,313.074,45.038,324.723,0,312.697c5.918,22.164,17.568,43.116,34.956,60.504 c52.721,52.721,138.198,52.721,190.919,0c26.361-26.36,26.36-69.099,0-95.459C199.514,251.38,156.776,251.38,130.415,277.741z"/>
    <path d="M 212.771 234.276 C 225.499 239.103 237.174 246.614 247.088 256.528 C 257.165 266.605 264.544 278.366 269.278 290.906 L 378.225 185.412 L 322.309 128.421 C 302.015 148.715 226.908 220.139 212.771 234.276 Z"/>
    <path d="M 480.639 26.519 C 465.018 10.898 439.691 10.898 424.071 26.519 C 418.184 32.406 369.575 81.015 321.57 129.02 L 378.138 185.589 L 480.639 83.088 C 496.26 67.467 496.26 42.14 480.639 26.519 Z"/>
  </g>
  <path d="M 477.524 288.202 C 473.937 288.202 470.687 287.139 467.761 284.991 C 464.836 282.85 462.31 279.937 460.19 276.249 C 456.334 269.825 453.483 261.018 451.622 249.836 C 450.293 242.097 449.298 233.174 448.633 223.06 L 448.433 213.604 L 448.433 203.961 C 448.304 200.872 448.236 197.125 448.236 192.723 C 448.236 185.58 448.567 179.276 449.231 173.805 C 449.763 168.087 451.088 162.443 453.215 156.847 C 455.34 151.968 458.4 148.519 462.385 146.498 C 464.773 145.541 467.159 145.07 469.555 145.07 C 476.593 145.07 482.178 147.566 486.292 152.559 C 490.81 158.159 493.794 164.407 495.257 171.303 C 497.381 179.634 498.576 187.607 498.841 195.217 C 499.375 203.672 499.64 211.637 499.64 219.135 L 499.64 229.307 C 499.64 231.328 499.309 235.14 498.643 240.73 C 498.111 245.136 497.849 248.883 497.849 251.974 L 497.849 252.691 C 497.052 256.015 496.654 259.946 496.654 264.469 C 496.654 267.798 495.856 271.248 494.26 274.819 C 492.668 278.389 490.411 281.424 487.489 283.922 C 484.566 286.777 481.25 288.202 477.524 288.202 Z M 477.922 278.389 C 480.581 278.389 482.84 276.19 484.696 271.787 C 486.292 267.857 487.459 263.071 488.187 257.424 C 488.916 251.767 489.546 245.372 490.075 238.234 C 490.343 235.14 490.474 231.15 490.474 226.274 L 490.277 209.852 C 490.015 203.429 489.216 195.397 487.887 185.761 C 486.824 177.553 484.837 170.294 481.91 163.985 C 480.581 161.013 478.917 158.689 476.928 157.023 C 474.937 155.356 472.81 154.527 470.553 154.527 C 467.23 154.527 464.773 156.847 463.18 161.488 C 461.182 166.371 459.86 171.724 459.194 177.553 C 458.4 183.859 457.935 189.863 457.799 195.579 L 457.599 201.469 C 457.468 203.133 457.4 205.391 457.4 208.248 L 457.4 208.965 C 457.4 216.935 458.329 226.748 460.19 238.412 C 462.31 254.238 465.433 265.483 469.555 272.147 C 472.211 276.311 475.003 278.389 477.922 278.389 Z M 569.352 286.241 C 566.296 286.241 563.042 283.268 559.589 277.319 C 554.407 268.395 549.295 253.7 544.251 233.237 C 542.788 227.647 541.594 222.461 540.656 217.709 C 535.873 226.274 533.487 236.625 533.487 248.762 L 533.487 281.777 C 533.487 284.515 532.159 285.887 529.501 285.887 C 527.51 285.887 525.884 285.38 524.618 284.368 C 523.354 283.36 522.728 281.96 522.728 280.174 L 522.728 226.099 C 522.728 220.861 523.388 211.226 524.717 197.183 C 526.05 184.925 526.715 175.292 526.715 168.27 C 527.775 166.008 529.705 164.876 532.49 164.876 C 534.216 164.876 535.68 165.411 536.872 166.485 C 538.067 167.548 538.667 168.87 538.667 170.411 L 538.667 170.952 C 536.942 173.563 536.074 184.39 536.074 203.429 L 536.074 209.852 L 543.449 196.827 C 547.968 188.381 552.218 181.124 556.201 175.052 C 559.919 169.104 562.644 166.131 564.371 166.131 C 566.495 166.131 568.323 166.545 569.852 167.376 C 571.383 168.211 572.14 169.399 572.14 170.952 L 567.356 178.084 C 557.398 192.483 551.814 200.807 550.624 203.073 C 550.624 205.095 550.556 206.884 550.424 208.429 L 550.227 213.779 C 550.227 218.897 552.515 228.447 557.099 242.424 C 561.679 256.409 565.504 265.658 568.553 270.18 L 571.141 273.388 C 573.669 276.487 574.932 279.222 574.932 281.6 C 574.932 282.912 574.367 284.014 573.238 284.906 C 572.11 285.799 570.815 286.241 569.352 286.241 Z M 601.848 256.615 C 600.521 256.615 599.258 255.125 598.064 252.154 C 596.868 249.063 596.266 244.479 596.266 238.412 C 596.266 236.27 596.402 232.226 596.666 226.274 C 596.937 221.872 597.068 216.998 597.068 211.637 L 596.666 182.369 L 596.266 153.097 C 596.266 151.194 597.134 149.552 598.857 148.189 C 600.582 146.825 602.508 146.14 604.64 146.14 C 605.965 146.14 607.098 146.556 608.018 147.386 C 608.954 148.222 609.422 149.293 609.422 150.597 C 609.422 161.068 608.751 175.292 607.428 193.26 C 605.965 213.127 605.234 227.345 605.234 235.909 C 605.234 242.215 605.137 246.772 604.933 249.567 C 604.737 252.362 604.409 254.238 603.944 255.185 C 603.473 256.134 602.778 256.615 601.848 256.615 Z M 598.256 287.139 C 596.666 287.139 595.17 286.48 593.78 285.176 C 592.382 283.864 591.688 282.256 591.688 280.353 C 591.688 278.211 592.485 276.337 594.078 274.734 C 595.671 273.125 597.597 272.317 599.856 272.317 C 602.249 272.317 604.201 273.125 605.732 274.734 C 607.261 276.337 608.018 278.389 608.018 280.89 C 608.018 285.053 604.766 287.139 598.256 287.139 Z M 680.922 287.139 C 676.138 287.139 672.019 286.359 668.574 284.813 C 666.442 283.746 665.38 282.498 665.38 281.066 C 665.38 279.638 665.78 278.477 666.574 277.582 C 667.373 276.696 668.503 276.249 669.966 276.249 C 671.291 276.249 673.215 276.721 675.739 277.675 C 678.534 278.627 680.261 279.1 680.922 279.1 C 683.447 279.1 685.736 278.122 687.794 276.159 C 689.857 274.199 691.482 271.611 692.678 268.395 C 695.066 262.442 696.265 257.092 696.265 252.329 C 696.265 247.214 695.367 241.83 693.577 236.177 C 691.775 230.526 689.358 225.026 686.3 219.673 L 683.111 213.959 C 679.796 208.01 677.237 203.309 675.439 199.86 C 673.649 196.407 672.087 192.66 670.759 188.619 C 668.766 182.905 667.771 177.373 667.771 172.011 C 667.771 167.732 668.602 163.688 670.262 159.884 C 671.923 156.077 674.414 152.861 677.729 150.242 C 681.054 147.386 685.171 145.96 690.086 145.96 C 692.478 145.96 694.799 146.588 697.06 147.834 C 699.32 149.083 700.918 150.659 701.842 152.559 L 698.456 156.312 C 695.007 156.312 692.414 155.715 690.684 154.527 C 688.3 154.765 686.201 155.81 684.408 157.655 C 682.614 159.49 681.256 161.603 680.323 163.985 C 679.525 166.251 679.128 168.508 679.128 170.771 C 679.128 175.292 679.826 179.902 681.225 184.602 C 682.614 189.299 684.446 193.734 686.699 197.898 L 700.647 222.88 C 702.904 227.165 704.699 231.988 706.032 237.34 C 707.362 242.691 708.022 248.051 708.022 253.403 C 708.022 261.255 705.894 268.639 701.646 275.533 C 699.386 279.1 696.464 281.926 692.875 284.014 C 689.287 286.094 685.305 287.139 680.922 287.139 Z M 754.242 286.601 C 750.788 286.601 747.601 285.615 744.682 283.654 C 741.755 281.689 739.368 279.046 737.507 275.714 C 733.653 268.454 731.258 260.541 730.33 251.974 C 729.13 243.882 728.539 236.093 728.539 228.596 C 728.539 227.165 728.607 225.982 728.74 225.026 L 728.74 221.81 C 728.74 221.221 728.673 220.92 728.539 220.92 L 728.539 217.709 L 728.74 205.215 C 728.873 201.407 729.4 195.338 730.33 187.01 C 730.998 181.299 732.524 175.768 734.914 170.411 C 735.844 168.031 737.037 166.219 738.5 164.967 C 739.961 163.718 741.623 163.094 743.484 163.094 C 748.799 163.094 753.58 163.957 757.831 165.682 C 762.079 167.408 765.667 169.813 768.586 172.908 C 771.247 175.884 773.507 179.548 775.364 183.887 C 777.224 188.23 778.554 192.846 779.352 197.717 C 780.142 202.712 780.544 208.01 780.544 213.604 L 780.544 215.033 C 780.544 218.715 780.611 222.049 780.74 225.026 L 780.943 235.201 C 780.943 269.463 772.045 286.601 754.242 286.601 Z M 753.446 279.1 C 755.834 279.1 758.029 278.24 760.022 276.515 C 762.013 274.793 763.542 272.444 764.609 269.463 C 767.126 263.399 768.654 256.851 769.185 249.836 C 769.852 243.765 770.184 238.53 770.184 234.125 C 770.184 228.774 769.714 221.755 768.791 213.068 C 767.994 203.907 767.587 197.061 767.587 192.542 L 767.587 189.332 C 767.324 184.81 765.631 180.88 762.51 177.553 C 759.387 174.216 755.57 172.552 751.055 172.552 C 746.536 172.552 743.546 174.874 742.086 179.514 C 740.76 183.201 740.096 187.963 740.096 193.788 C 740.096 196.052 740.159 197.953 740.295 199.504 L 740.295 204.324 L 739.901 212.531 C 739.632 215.033 739.499 217.771 739.499 220.743 C 739.499 227.165 739.699 233.535 740.096 239.839 C 740.631 248.762 741.953 257.449 744.081 265.893 C 746.203 274.703 749.329 279.1 753.446 279.1 Z M 817.832 286.065 C 816.098 286.065 814.571 285.413 813.245 284.102 C 811.915 282.793 811.248 281.303 811.248 279.638 C 811.248 277.853 811.981 276.249 813.441 274.819 C 814.9 273.388 816.632 272.674 818.622 272.674 C 820.486 272.674 822.145 273.388 823.603 274.819 C 825.065 276.249 825.797 277.792 825.797 279.46 C 825.797 281.361 825.035 282.938 823.506 284.19 C 821.976 285.442 820.085 286.065 817.832 286.065 Z M 875.414 286.065 C 873.683 286.065 872.158 285.413 870.83 284.102 C 869.501 282.793 868.837 281.303 868.837 279.638 C 868.837 277.853 869.566 276.249 871.028 274.819 C 872.488 273.388 874.214 272.674 876.209 272.674 C 878.07 272.674 879.73 273.388 881.188 274.819 C 882.655 276.249 883.38 277.792 883.38 279.46 C 883.38 281.361 882.619 282.938 881.094 284.19 C 879.563 285.442 877.671 286.065 875.414 286.065 Z M 932.966 286.065 C 931.24 286.065 929.711 285.413 928.386 284.102 C 927.05 282.793 926.39 281.303 926.39 279.638 C 926.39 277.853 927.121 276.249 928.582 274.819 C 930.045 273.388 931.771 272.674 933.762 272.674 C 935.623 272.674 937.282 273.388 938.746 274.819 C 940.21 276.249 940.938 277.792 940.938 279.46 C 940.938 281.361 940.175 282.938 938.643 284.19 C 937.116 285.442 935.225 286.065 932.966 286.065 Z" style="white-space: pre;"/>
  <text style="fill: rgb(163, 163, 163); font-family: &quot;Amatic SC&quot;; font-size: 15.9px; font-weight: 700; white-space: pre;" x="465.05" y="371.266">okso.app</text>
  <text style="font-family: &quot;Amatic SC&quot;; font-size: 54.8px; font-weight: 700; white-space: pre;" transform="matrix(0.504201, 0, 0, 0.504201, 219.463547, 147.769226)"><tspan x="487.081" y="364.106">Draw to explain・Draw to grasp・Organize your drawings</tspan><tspan x="487.08099365234375" dy="1.2em">​</tspan></text>
</svg>