<?xml version="1.0" encoding="utf-8"?>
<svg viewBox="66.415 3.469 1047.485 488.721" xmlns="http://www.w3.org/2000/svg" xmlns:bx="https://boxy-svg.com">
  <defs>
    <style bx:fonts="Amatic SC">@import url(https://fonts.googleapis.com/css2?family=Amatic+SC%3Aital%2Cwght%400%2C400%3B0%2C700&amp;display=swap);</style>
    <bx:grid x="67.416" y="3.455" width="54.388" height="54.388"/>
  </defs>
  <path d="M 274.745 51.754 C 266.507 53.794 257.861 60.645 251.092 70.431 C 248.238 74.591 248.074 74.999 248.972 77.935 C 249.543 79.73 249.705 82.829 249.38 85.03 C 248.809 89.598 250.602 94.655 254.192 98.406 C 255.333 99.711 256.639 102.402 257.128 104.768 C 257.698 107.215 259.656 111.456 261.859 114.799 C 263.897 118.061 265.61 121.243 265.528 121.894 C 265.528 122.548 264.305 127.849 262.918 133.64 C 261.531 139.349 260.472 144.243 260.634 144.405 C 260.798 144.568 262.918 141.307 265.365 137.146 L 269.851 129.642 L 278.66 129.399 C 283.472 129.317 287.386 128.909 287.386 128.583 C 287.386 128.256 286.08 126.625 284.531 124.913 C 282.656 122.792 281.024 121.894 279.474 121.894 C 275.641 121.894 273.684 121.079 274.01 119.612 C 274.092 118.796 274.5 116.512 274.745 114.309 L 275.234 110.476 L 279.638 110.476 C 283.716 110.476 284.042 110.314 285.592 107.704 C 287.059 105.258 287.794 104.85 290.811 104.604 L 294.318 104.36 L 289.587 101.586 C 284.776 98.814 284.776 98.814 279.231 99.793 C 276.213 100.281 271.972 101.424 269.933 102.239 L 266.262 103.871 L 265.773 101.26 C 265.446 99.793 265.365 96.286 265.528 93.431 C 265.773 88.945 266.017 87.966 267.893 86.662 C 271.074 84.215 274.745 84.542 282.9 87.966 C 286.978 89.679 290.974 90.984 291.872 90.822 C 298.641 90.006 301.985 90.495 305.085 93.023 C 306.797 94.409 308.999 96.775 310.059 98.324 C 311.119 99.873 312.262 101.178 312.587 101.343 C 312.914 101.424 313.077 98.488 312.914 94.817 C 312.587 88.864 312.262 87.803 310.549 86.254 C 307.123 83.073 303.209 82.909 296.846 85.601 C 295.46 86.254 295.378 86.009 295.867 83.073 C 296.195 81.36 296.602 79.322 296.846 78.587 C 297.091 77.608 296.113 76.793 293.258 75.57 C 288.12 73.367 278.087 70.676 272.297 70.023 L 267.731 69.452 L 270.34 67.087 C 271.808 65.701 274.418 63.662 276.213 62.52 C 282.247 58.524 290.974 60.155 303.452 67.658 C 311.854 72.715 318.459 79.076 327.839 91.311 C 328.98 92.86 329.062 92.614 328.737 88.375 C 327.921 79.73 322.129 70.921 312.262 63.499 C 300.19 54.446 284.123 49.389 274.745 51.754 Z M 330.612 95.715 C 330.612 97.753 333.711 104.034 338.196 111.292 C 340.888 115.533 343.091 119.121 343.172 119.121 C 343.172 119.204 352.062 118.388 362.828 117.409 C 373.593 116.43 382.647 115.779 383.055 115.941 C 383.38 116.104 385.501 118.715 387.703 121.65 C 399.366 137.065 408.908 165.202 408.908 184.205 C 408.908 197.582 406.38 211.772 401.078 228.492 L 398.142 237.546 L 404.912 250.513 C 408.582 257.608 414.209 268.375 417.391 274.41 L 423.181 285.42 L 423.589 296.838 L 423.997 308.257 L 426.198 303.689 C 429.298 297.165 430.114 293.575 430.114 286.644 C 430.114 277.182 426.525 267.069 417.391 250.595 C 413.639 243.744 413.149 242.357 413.802 240.4 C 415.433 235.751 417.88 220.662 418.858 210.141 C 419.592 201.659 419.592 196.603 418.776 187.305 C 416.085 155.007 411.845 139.43 401.732 124.586 C 395.614 115.696 389.66 111.211 379.057 107.54 C 373.104 105.501 371.473 105.258 358.586 105.093 L 344.477 104.93 L 340.237 101.832 C 337.871 100.119 334.69 97.835 333.303 96.775 C 331.835 95.633 330.612 95.225 330.612 95.715 Z" style=""/>
  <path d="M 314.301 114.636 C 314.219 115.941 309.244 129.48 306.959 134.373 L 304.513 139.92 L 300.844 137.391 C 298.804 136.005 297.172 135.107 297.172 135.352 C 297.172 135.597 297.908 138.614 298.804 142.04 C 300.108 146.852 300.354 149.462 299.946 153.702 C 299.294 160.879 298.723 161.696 296.113 159.983 C 294.482 158.922 293.993 157.535 293.177 152.479 C 292.606 148.973 291.872 146.525 291.464 146.852 C 291.137 147.26 289.67 150.766 288.201 154.681 L 285.592 161.777 L 281.921 162.022 L 278.252 162.266 L 280.616 165.528 C 284.287 170.585 290.649 184.695 294.318 195.705 C 297.172 204.676 297.988 205.9 300.354 205.9 C 308.346 205.9 326.126 204.025 326.698 203.209 C 327.023 202.638 327.35 201.251 327.35 200.028 C 327.35 196.276 331.346 182.084 333.629 177.762 C 334.772 175.479 337.544 171.563 339.664 168.954 C 343.58 164.305 343.662 164.061 343.662 158.759 C 343.662 152.887 345.537 148.156 350.839 140.491 C 352.225 138.371 353.449 136.494 353.449 136.33 C 353.449 135.189 341.214 139.43 333.956 143.019 C 329.796 145.14 328.572 145.465 328.083 144.568 C 323.353 137.473 317.563 125.565 316.665 121.486 C 315.85 117.246 314.382 113.168 314.301 114.636 Z M 310.386 154.927 C 316.502 161.94 316.258 161.043 315.034 170.259 C 314.055 178.415 313.893 178.74 308.672 187.061 L 303.372 195.542 L 302.311 193.176 C 301.006 190.24 295.705 175.723 295.378 174.092 C 295.216 173.358 296.195 172.625 297.908 171.971 C 300.436 171.156 301.006 170.422 303.452 163.979 C 305.492 158.759 305.98 156.557 305.41 155.415 C 304.839 154.437 304.921 153.621 305.492 153.05 C 306.959 151.582 307.613 151.827 310.386 154.927 Z" style=""/>
  <path d="M 227.771 286.757 C 226.009 283.932 225.02 282.849 222.384 278.243 C 219.774 273.595 219.692 273.105 219.774 265.193 C 219.855 260.626 220.1 256.059 220.344 255.08 C 220.671 254.102 222.792 251.084 224.994 248.392 L 229.072 243.418 L 229.643 250.431 C 229.887 254.264 230.784 260.3 231.518 263.97 C 232.252 267.559 234.291 274.817 236.085 280.037 C 237.961 285.257 239.756 290.721 240.164 292.108 C 240.979 294.718 241.142 294.8 245.382 294.8 C 250.277 294.8 250.359 294.636 249.135 289.906 C 247.095 282.157 246.688 282.892 253.621 282.321 C 257.046 282.076 259.982 281.668 260.226 281.505 C 260.39 281.26 261.451 276.123 262.429 270.005 C 263.489 263.888 264.549 258.587 264.875 258.343 C 265.121 258.097 265.365 261.033 265.365 264.866 C 265.365 270.413 265.692 272.533 266.995 274.817 C 268.953 278.243 269.036 281.179 267.485 289.253 C 265.528 299.53 259.738 314.21 256.475 317.146 C 255.252 318.206 254.762 318.125 251.5 316.086 C 247.513 313.567 245.082 310.459 240.594 306.01 C 240.127 307.59 234.179 317.604 234.443 317.999 C 241.084 327.958 246.552 335.652 257.698 348.301 C 260.146 351.075 262.918 354.336 263.897 355.642 C 264.957 356.947 266.67 359.067 267.812 360.372 C 268.953 361.678 270.259 363.145 270.667 363.635 C 271.156 364.206 272.38 365.593 273.439 366.815 L 275.478 369.017 L 272.95 371.709 C 271.645 373.095 268.057 377.418 265.121 381.251 C 257.944 390.468 252.397 395.198 247.503 396.013 C 239.675 397.481 237.635 399.357 237.635 404.904 C 237.635 408.329 239.51 408.981 250.031 409.063 C 261.205 409.063 260.308 409.634 243.344 413.06 C 236.412 414.527 229.316 415.996 227.603 416.404 L 224.585 417.219 L 224.585 422.927 C 224.585 427.984 224.749 428.637 226.053 428.229 C 226.788 427.984 235.923 426.353 246.199 424.477 C 256.557 422.684 276.538 419.176 290.649 416.648 C 304.758 414.201 321.478 411.265 327.758 410.123 C 341.541 407.594 342.193 407.594 347.168 409.307 C 353.611 411.509 353.449 411.591 353.449 402.783 C 353.449 398.542 353.775 395.198 354.1 395.442 C 354.508 395.687 364.867 398.868 377.182 402.457 C 389.497 406.127 408.174 411.673 418.696 414.853 C 429.217 417.953 439.084 420.889 440.553 421.378 C 448.79 423.743 440.145 420.155 406.625 407.268 L 369.352 392.996 L 369.108 380.355 L 368.944 367.793 L 371.636 366.081 C 374.653 364.124 371.065 363.798 403.199 369.017 L 418.288 371.464 L 425.057 368.529 C 428.727 366.815 431.745 365.265 431.745 365.022 C 431.663 364.776 424.811 361.432 416.412 357.68 C 408.012 353.847 399.366 349.932 397.083 348.872 C 394.88 347.893 386.561 344.142 378.732 340.554 L 364.459 334.11 L 363.072 329.136 L 361.767 324.16 L 365.029 315.759 C 366.906 311.193 368.619 307.195 368.863 306.87 C 369.189 306.544 380.199 309.969 393.33 314.372 C 406.542 318.859 417.471 322.447 417.635 322.285 C 418.45 321.387 415.106 304.667 413.639 302.139 C 407.604 292.108 400.345 289.253 387.213 291.781 C 372.125 294.718 368.944 294.473 361.685 289.988 C 358.994 288.356 351.737 282.076 345.537 276.041 C 335.75 266.498 327.758 260.137 321.07 256.548 C 318.623 255.243 318.704 255.732 321.967 260.789 C 330.775 274.246 336.403 286.562 342.437 305.402 C 345.455 314.618 348.228 323.426 348.636 324.975 C 352.307 339.004 352.632 339.9 357.689 344.876 C 363.888 351.075 366.008 355.071 365.356 359.557 C 364.459 365.347 361.767 368.447 349.778 377.499 C 343.498 382.229 335.587 388.265 332.162 390.875 C 326.615 395.116 325.311 395.769 318.867 397.073 L 311.772 398.624 L 309.57 396.013 L 307.367 393.485 L 302.23 395.361 C 295.623 397.808 288.773 397.237 282.982 393.729 C 279.557 391.691 279.231 391.201 279.231 388.428 L 279.231 385.329 L 284.042 385.329 C 287.059 385.329 290.16 384.758 292.361 383.699 C 294.808 382.637 297.744 382.067 301.495 382.067 L 306.959 382.067 L 306.959 379.293 C 306.959 372.199 305.573 368.529 301.087 364.043 C 296.521 359.475 291.464 350.259 286.57 337.454 C 284.205 331.256 284.123 330.766 284.123 316.575 L 284.123 302.058 L 287.549 304.097 C 290.403 305.728 293.585 309.806 304.595 325.791 C 312.752 337.618 318.052 346.018 317.888 346.834 C 316.829 350.911 312.016 376.765 312.179 377.011 C 312.424 377.173 323.19 359.312 329.551 348.057 L 331.509 344.631 L 329.307 339.086 C 319.357 313.721 306.308 294.554 285.021 274.246 L 275.152 264.866 L 275.07 257.201 C 274.989 252.96 275.152 247.821 275.559 245.782 C 276.049 242.274 276.375 241.949 279.066 241.133 C 287.794 238.605 292.606 238.116 307.042 238.116 L 322.211 238.116 L 327.839 243.01 C 340.562 254.102 346.108 257.608 356.221 260.871 C 361.442 262.584 364.214 262.992 370.901 262.992 C 382.076 262.992 382.401 262.584 377.508 256.793 L 373.512 252.144 L 375.062 249.616 C 384.604 233.631 388.274 225.067 389.742 215.117 C 391.128 205.492 389.578 196.358 384.685 185.918 C 382.809 181.841 380.363 178.17 379.547 178.17 C 378.65 178.17 373.35 194.727 371.88 202.23 C 370.331 210.386 368.944 223.027 368.944 229.471 C 368.944 232.161 368.619 234.527 368.211 234.854 C 364.621 237.056 347.331 238.524 335.098 237.626 C 319.193 236.484 318.623 236.403 314.055 234.61 C 296.275 227.758 283.144 225.8 270.503 228.003 C 264.467 229.063 265.038 228.247 261.205 240.971 C 259.738 245.701 257.698 251.246 256.639 253.368 C 254.762 257.282 254.681 257.282 250.767 257.282 C 246.362 257.282 246.362 257.282 245.302 263.399 C 244.649 267.151 243.425 270.005 243.344 267.885 C 243.344 267.232 242.446 260.3 241.305 252.47 L 239.348 238.279 L 249.216 227.595 C 254.6 221.723 259.818 216.503 260.798 215.933 C 261.695 215.443 268.953 213.812 276.783 212.425 C 284.613 210.956 291.464 209.733 291.872 209.571 C 292.361 209.407 286.816 209.244 279.557 209.244 L 266.507 209.163 L 267.649 202.801 C 268.301 199.212 268.79 190.24 268.872 181.841 C 269.036 169.362 268.79 166.507 267.485 162.674 C 265.936 158.025 261.288 149.625 260.39 149.625 C 260.064 149.625 258.677 151.42 257.29 153.54 C 253.621 159.33 252.234 163.979 252.234 170.504 C 252.234 175.234 252.642 177.356 254.762 181.922 C 256.067 184.94 258.188 188.691 259.33 190.159 C 261.369 192.851 261.451 193.176 260.88 201.007 L 260.308 209.082 L 249.705 217.89 C 241.142 225.067 238.532 227.676 236.004 232.081 C 232.905 237.3 232.66 237.546 226.625 239.828 C 221.161 241.949 220.1 242.602 217.897 246.108 C 212.678 254.346 211.21 263.888 213.574 275.144 C 215.298 283.354 217.17 288.444 221.482 296.914 C 221.807 297.554 227.63 286.548 227.771 286.757 Z" style=""/>
  <path d="M 430.929 328.157 C 436.556 330.766 445.039 334.763 449.768 337.047 L 458.497 341.124 L 454.174 353.195 C 451.808 359.883 448.464 369.099 446.832 373.748 L 443.897 382.148 L 449.198 396.421 L 454.581 410.694 L 452.869 417.627 C 451.89 421.46 451.237 424.641 451.4 424.722 C 451.563 424.885 454.745 425.701 458.414 426.679 L 465.02 428.391 L 466.651 423.825 L 468.364 419.34 L 465.918 412.243 C 462.329 401.477 461.106 393.567 461.106 381.496 C 461.106 369.67 462.492 359.801 465.591 349.851 L 467.548 343.49 L 458.904 334.029 L 450.258 324.568 L 442.837 324.079 C 438.758 323.752 432.153 323.508 428.074 323.426 L 420.734 323.344 L 430.929 328.157 Z M 352.878 421.297 L 353.04 429.616 L 337.544 429.778 C 329.062 429.86 311.038 430.92 297.58 432.144 C 284.123 433.286 265.936 434.835 257.21 435.488 C 248.482 436.222 237.718 437.12 233.312 437.526 C 228.908 438.016 224.831 438.342 224.177 438.342 C 223.444 438.342 222.628 436.874 222.057 434.672 C 220.997 430.512 220.426 430.349 216.675 432.633 C 214.228 434.101 213.983 434.591 213.983 438.424 L 213.983 442.665 L 240.326 442.094 C 254.762 441.849 300.354 441.034 341.622 440.381 C 416.983 439.24 460.535 438.261 460.127 437.934 C 459.964 437.771 455.641 436.712 450.504 435.568 C 445.365 434.427 434.191 431.818 425.627 429.86 C 417.146 427.903 404.26 424.966 397.083 423.335 C 389.906 421.705 380.934 419.584 377.1 418.686 C 373.267 417.871 366.906 416.321 362.828 415.424 C 358.831 414.527 354.835 413.549 354.1 413.385 C 352.796 412.977 352.714 413.793 352.878 421.297 Z" style=""/>
  <g transform="matrix(0.143377, -0.041253, 0.041253, 0.143377, 175.222656, 291.109558)" style="">
    <path d="M130.415,277.741C95.083,313.074,45.038,324.723,0,312.697c5.918,22.164,17.568,43.116,34.956,60.504 c52.721,52.721,138.198,52.721,190.919,0c26.361-26.36,26.36-69.099,0-95.459C199.514,251.38,156.776,251.38,130.415,277.741z"/>
    <path d="M 212.771 234.276 C 225.499 239.103 237.174 246.614 247.088 256.528 C 257.165 266.605 264.544 278.366 269.278 290.906 L 378.225 185.412 L 322.309 128.421 C 302.015 148.715 226.908 220.139 212.771 234.276 Z"/>
    <path d="M 480.639 26.519 C 465.018 10.898 439.691 10.898 424.071 26.519 C 418.184 32.406 369.575 81.015 321.57 129.02 L 378.138 185.589 L 480.639 83.088 C 496.26 67.467 496.26 42.14 480.639 26.519 Z"/>
  </g>
  <path d="M 505.989 269.734 C 502.271 269.734 498.897 268.624 495.868 266.404 C 492.839 264.184 490.223 261.163 488.02 257.339 C 484.027 250.679 481.067 241.553 479.14 229.959 C 477.763 221.943 476.73 212.693 476.041 202.21 L 475.835 192.406 L 475.835 182.416 C 475.697 179.209 475.628 175.324 475.628 170.76 C 475.628 163.361 475.972 156.824 476.661 151.151 C 477.212 145.231 478.589 139.373 480.792 133.576 C 482.995 128.52 486.162 124.943 490.292 122.847 C 492.771 121.86 495.249 121.367 497.728 121.367 C 505.025 121.367 510.808 123.957 515.076 129.137 C 519.758 134.933 522.856 141.408 524.37 148.561 C 526.573 157.194 527.812 165.457 528.087 173.35 C 528.638 182.107 528.914 190.37 528.914 198.14 L 528.914 208.685 C 528.914 210.782 528.569 214.728 527.881 220.525 C 527.331 225.088 527.055 228.973 527.055 232.179 L 527.055 232.919 C 526.229 236.373 525.816 240.443 525.816 245.129 C 525.816 248.582 524.99 252.159 523.338 255.859 C 521.685 259.559 519.345 262.704 516.316 265.294 C 513.286 268.254 509.844 269.734 505.989 269.734 Z M 506.402 259.559 C 509.156 259.559 511.496 257.277 513.424 252.715 C 515.076 248.644 516.281 243.68 517.038 237.823 C 517.795 231.964 518.449 225.335 519 217.935 C 519.275 214.728 519.413 210.597 519.413 205.54 L 519.207 188.52 C 518.932 181.86 518.105 173.536 516.729 163.546 C 515.627 155.036 513.562 147.513 510.533 140.976 C 509.156 137.893 507.434 135.488 505.369 133.761 C 503.304 132.034 501.101 131.171 498.76 131.171 C 495.318 131.171 492.771 133.576 491.118 138.386 C 489.053 143.443 487.676 148.993 486.988 155.036 C 486.162 161.572 485.68 167.8 485.542 173.72 L 485.336 179.826 C 485.197 181.552 485.128 183.896 485.128 186.856 L 485.128 187.596 C 485.128 195.858 486.092 206.033 488.02 218.12 C 490.223 234.523 493.459 246.178 497.728 253.085 C 500.481 257.401 503.373 259.559 506.402 259.559 Z M 601.171 267.699 C 598.004 267.699 594.63 264.616 591.05 258.449 C 585.681 249.199 580.38 233.968 575.148 212.755 C 573.633 206.958 572.394 201.593 571.43 196.66 C 566.473 205.54 563.995 216.27 563.995 228.849 L 563.995 263.074 C 563.995 265.911 562.618 267.329 559.864 267.329 C 557.799 267.329 556.112 266.805 554.804 265.757 C 553.496 264.708 552.842 263.259 552.842 261.409 L 552.842 205.355 C 552.842 199.929 553.531 189.939 554.907 175.386 C 556.284 162.682 556.973 152.693 556.973 145.416 C 558.074 143.073 560.071 141.901 562.962 141.901 C 564.752 141.901 566.267 142.456 567.505 143.566 C 568.745 144.676 569.365 146.033 569.365 147.636 L 569.365 148.191 C 567.574 150.904 566.679 162.127 566.679 181.86 L 566.679 188.52 L 574.322 175.016 C 579.003 166.259 583.409 158.736 587.54 152.446 C 591.395 146.28 594.217 143.196 596.007 143.196 C 598.21 143.196 600.103 143.628 601.687 144.491 C 603.271 145.354 604.062 146.588 604.062 148.191 L 599.106 155.591 C 588.779 170.514 582.996 179.147 581.757 181.49 C 581.757 183.587 581.688 185.437 581.55 187.04 L 581.344 192.59 C 581.344 197.894 583.719 207.791 588.469 222.283 C 593.219 236.774 597.178 246.363 600.345 251.049 L 603.029 254.379 C 605.646 257.586 606.954 260.422 606.954 262.889 C 606.954 264.246 606.369 265.387 605.199 266.312 C 604.028 267.237 602.685 267.699 601.171 267.699 Z M 634.854 236.989 C 633.477 236.989 632.169 235.448 630.929 232.365 C 629.69 229.158 629.071 224.41 629.071 218.12 C 629.071 215.9 629.209 211.706 629.484 205.54 C 629.759 200.977 629.897 195.92 629.897 190.37 L 629.484 160.031 L 629.071 129.691 C 629.071 127.718 629.966 126.022 631.755 124.604 C 633.546 123.186 635.542 122.477 637.745 122.477 C 639.122 122.477 640.292 122.908 641.256 123.771 C 642.22 124.635 642.702 125.745 642.702 127.101 C 642.702 137.954 642.014 152.693 640.637 171.316 C 639.122 191.912 638.364 206.65 638.364 215.53 C 638.364 222.067 638.261 226.784 638.054 229.683 C 637.848 232.58 637.504 234.523 637.022 235.509 C 636.54 236.496 635.817 236.989 634.854 236.989 Z M 631.136 268.624 C 629.484 268.624 627.935 267.946 626.488 266.589 C 625.043 265.233 624.32 263.568 624.32 261.594 C 624.32 259.374 625.146 257.432 626.798 255.767 C 628.451 254.102 630.447 253.269 632.788 253.269 C 635.267 253.269 637.297 254.102 638.88 255.767 C 640.464 257.432 641.256 259.559 641.256 262.149 C 641.256 266.466 637.883 268.624 631.136 268.624 Z M 716.817 268.624 C 711.86 268.624 707.591 267.822 704.012 266.219 C 701.809 265.109 700.707 263.814 700.707 262.334 C 700.707 260.854 701.12 259.652 701.946 258.727 C 702.772 257.802 703.943 257.339 705.457 257.339 C 706.834 257.339 708.83 257.832 711.447 258.819 C 714.338 259.806 716.128 260.299 716.817 260.299 C 719.432 260.299 721.807 259.282 723.942 257.247 C 726.076 255.212 727.763 252.529 729.002 249.199 C 731.48 243.033 732.719 237.483 732.719 232.549 C 732.719 227.246 731.79 221.666 729.931 215.807 C 728.072 209.949 725.56 204.245 722.392 198.695 L 719.088 192.776 C 715.646 186.609 712.996 181.737 711.137 178.16 C 709.278 174.584 707.66 170.699 706.283 166.506 C 704.218 160.586 703.185 154.851 703.185 149.301 C 703.185 144.861 704.046 140.668 705.767 136.721 C 707.488 132.774 710.07 129.444 713.512 126.731 C 716.954 123.771 721.222 122.291 726.317 122.291 C 728.796 122.291 731.205 122.939 733.545 124.234 C 735.886 125.529 737.539 127.163 738.502 129.137 L 734.992 133.021 C 731.412 133.021 728.727 132.404 726.936 131.171 C 724.458 131.418 722.289 132.497 720.43 134.409 C 718.572 136.321 717.161 138.51 716.196 140.976 C 715.37 143.319 714.957 145.663 714.957 148.006 C 714.957 152.693 715.68 157.472 717.126 162.344 C 718.572 167.215 720.465 171.809 722.806 176.126 L 737.263 202.025 C 739.604 206.465 741.463 211.46 742.84 217.01 C 744.217 222.56 744.905 228.11 744.905 233.659 C 744.905 241.799 742.702 249.446 738.296 256.599 C 735.955 260.299 732.926 263.228 729.209 265.387 C 725.491 267.545 721.36 268.624 716.817 268.624 Z M 792.817 268.069 C 789.237 268.069 785.932 267.051 782.903 265.017 C 779.874 262.982 777.395 260.238 775.468 256.784 C 771.474 249.261 768.996 241.059 768.033 232.179 C 766.793 223.793 766.173 215.715 766.173 207.945 C 766.173 206.465 766.242 205.232 766.38 204.245 L 766.38 200.915 C 766.38 200.298 766.311 199.99 766.173 199.99 L 766.173 196.66 L 766.38 183.71 C 766.518 179.764 767.068 173.474 768.033 164.84 C 768.721 158.921 770.304 153.186 772.782 147.636 C 773.746 145.17 774.986 143.289 776.5 141.994 C 778.015 140.699 779.736 140.051 781.664 140.051 C 787.171 140.051 792.128 140.945 796.534 142.734 C 800.94 144.522 804.658 147.02 807.687 150.226 C 810.441 153.309 812.781 157.102 814.709 161.604 C 816.637 166.105 818.014 170.884 818.84 175.94 C 819.666 181.12 820.079 186.609 820.079 192.406 L 820.079 193.886 C 820.079 197.708 820.148 201.162 820.285 204.245 L 820.492 214.79 C 820.492 250.309 811.267 268.069 792.817 268.069 Z M 791.99 260.299 C 794.469 260.299 796.741 259.405 798.806 257.617 C 800.871 255.829 802.455 253.393 803.556 250.309 C 806.172 244.02 807.755 237.236 808.306 229.959 C 808.995 223.67 809.339 218.243 809.339 213.68 C 809.339 208.13 808.857 200.854 807.893 191.85 C 807.067 182.354 806.654 175.262 806.654 170.576 L 806.654 167.246 C 806.378 162.559 804.623 158.489 801.388 155.036 C 798.152 151.583 794.193 149.856 789.512 149.856 C 784.831 149.856 781.732 152.261 780.218 157.071 C 778.841 160.894 778.152 165.827 778.152 171.87 C 778.152 174.214 778.221 176.187 778.359 177.79 L 778.359 182.786 L 777.946 191.296 C 777.671 193.885 777.533 196.722 777.533 199.805 C 777.533 206.465 777.739 213.063 778.152 219.6 C 778.703 228.85 780.08 237.853 782.283 246.609 C 784.486 255.736 787.722 260.299 791.99 260.299 Z M 858.723 267.514 C 856.933 267.514 855.349 266.836 853.972 265.479 C 852.595 264.123 851.907 262.581 851.907 260.854 C 851.907 259.004 852.664 257.339 854.179 255.859 C 855.693 254.379 857.483 253.639 859.549 253.639 C 861.477 253.639 863.198 254.379 864.712 255.859 C 866.227 257.339 866.984 258.942 866.984 260.669 C 866.984 262.642 866.193 264.277 864.609 265.572 C 863.025 266.867 861.063 267.514 858.723 267.514 Z M 918.413 267.514 C 916.622 267.514 915.039 266.836 913.662 265.479 C 912.285 264.123 911.597 262.581 911.597 260.854 C 911.597 259.004 912.354 257.339 913.869 255.859 C 915.383 254.379 917.173 253.639 919.239 253.639 C 921.167 253.639 922.887 254.379 924.402 255.859 C 925.917 257.339 926.674 258.942 926.674 260.669 C 926.674 262.642 925.882 264.277 924.299 265.572 C 922.715 266.867 920.753 267.514 918.413 267.514 Z M 978.069 267.514 C 976.279 267.514 974.696 266.836 973.319 265.479 C 971.942 264.123 971.254 262.581 971.254 260.854 C 971.254 259.004 972.011 257.339 973.525 255.859 C 975.04 254.379 976.83 253.639 978.895 253.639 C 980.823 253.639 982.544 254.379 984.059 255.859 C 985.573 257.339 986.33 258.942 986.33 260.669 C 986.33 262.642 985.538 264.277 983.955 265.572 C 982.372 266.867 980.41 267.514 978.069 267.514 Z" style="white-space: pre;"/>
  <text style="font-family: &quot;Amatic SC&quot;; font-size: 54.8px; font-weight: 700; white-space: pre;" transform="matrix(0.652738, 0, 0, 0.652738, 193.685272, 110.471291)"><tspan x="487.081" y="364.106">Draw to explain<tspan x="487.08099365234375" dy="1.2em">​</tspan>Draw to grasp<tspan x="487.08099365234375" dy="1.2em">​</tspan>Organize your drawings</tspan><tspan x="487.08099365234375" dy="1.2em">​</tspan></text>
  <text style="fill: rgb(163, 163, 163); font-family: &quot;Amatic SC&quot;; font-size: 15.9px; font-weight: 700; white-space: pre;" x="947.098" y="424.384">okso.app</text>
</svg>