<?xml version="1.0" encoding="utf-8"?>
<svg viewBox="66.415 3.469 1047.485 488.721" xmlns="http://www.w3.org/2000/svg" xmlns:bx="https://boxy-svg.com">
  <defs>
    <style bx:fonts="Amatic SC">@import url(https://fonts.googleapis.com/css2?family=Amatic+SC%3Aital%2Cwght%400%2C400%3B0%2C700&amp;display=swap);</style>
    <bx:grid x="67.416" y="3.455" width="54.388" height="54.388"/>
  </defs>
  <path d="M 300.169 106.268 C 295.703 107.373 291.018 111.086 287.349 116.393 C 285.801 118.646 285.713 118.868 286.201 120.458 C 286.51 121.431 286.597 123.111 286.422 124.303 C 286.111 126.779 287.084 129.521 289.029 131.555 C 289.647 132.262 290.355 133.721 290.62 135.003 C 290.93 136.329 291.991 138.628 293.184 140.44 C 294.291 142.207 295.219 143.933 295.175 144.286 C 295.175 144.64 294.51 147.514 293.758 150.652 C 293.008 153.747 292.433 156.4 292.521 156.488 C 292.61 156.577 293.758 154.809 295.085 152.552 L 297.516 148.486 L 302.292 148.353 C 304.901 148.309 307.021 148.088 307.021 147.913 C 307.021 147.733 306.314 146.85 305.473 145.923 C 304.457 144.773 303.574 144.286 302.732 144.286 C 300.655 144.286 299.594 143.843 299.772 143.05 C 299.816 142.607 300.037 141.368 300.169 140.175 L 300.435 138.096 L 302.822 138.096 C 305.032 138.096 305.208 138.009 306.05 136.594 C 306.846 135.268 307.243 135.048 308.878 134.915 L 310.779 134.782 L 308.213 133.278 C 305.607 131.776 305.607 131.776 302.601 132.307 C 300.966 132.571 298.667 133.19 297.562 133.632 L 295.571 134.517 L 295.306 133.101 C 295.131 132.307 295.085 130.405 295.175 128.858 C 295.306 126.426 295.439 125.895 296.455 125.189 C 298.181 123.862 300.169 124.04 304.59 125.895 C 306.8 126.824 308.966 127.531 309.453 127.444 C 313.123 127.001 314.936 127.266 316.615 128.638 C 317.543 129.387 318.736 130.67 319.312 131.51 C 319.885 132.35 320.505 133.056 320.681 133.146 C 320.858 133.19 320.948 131.598 320.858 129.61 C 320.681 126.382 320.505 125.807 319.576 124.967 C 317.72 123.244 315.599 123.154 312.149 124.614 C 311.398 124.967 311.354 124.836 311.619 123.244 C 311.796 122.314 312.017 121.21 312.149 120.811 C 312.281 120.28 311.752 119.84 310.205 119.177 C 307.42 117.983 301.982 116.524 298.843 116.169 L 296.368 115.86 L 297.782 114.579 C 298.578 113.827 299.994 112.722 300.966 112.102 C 304.236 109.937 308.966 110.821 315.73 114.888 C 320.284 117.63 323.864 121.076 328.949 127.709 C 329.567 128.548 329.611 128.414 329.436 126.117 C 328.993 121.431 325.853 116.656 320.505 112.633 C 313.962 107.728 305.253 104.985 300.169 106.268 Z M 330.451 130.096 C 330.451 131.201 332.13 134.605 334.561 138.539 C 336.022 140.837 337.215 142.782 337.258 142.782 C 337.258 142.829 342.077 142.385 347.914 141.855 C 353.749 141.324 358.657 140.971 358.877 141.059 C 359.052 141.147 360.204 142.564 361.397 144.152 C 367.718 152.509 372.89 167.76 372.89 178.061 C 372.89 185.312 371.522 193.003 368.647 202.065 L 367.056 206.972 L 370.725 214.001 C 372.714 217.847 375.765 223.683 377.488 226.954 L 380.627 232.923 L 380.849 239.112 L 381.07 245.3 L 382.263 242.825 C 383.942 239.29 384.386 237.343 384.386 233.585 C 384.386 228.458 382.44 222.976 377.488 214.047 C 375.455 210.332 375.19 209.581 375.543 208.519 C 376.428 206 377.753 197.822 378.283 192.119 C 378.683 187.521 378.683 184.781 378.239 179.741 C 376.781 162.234 374.482 153.791 369.001 145.745 C 365.684 140.927 362.458 138.495 356.71 136.505 C 353.484 135.399 352.599 135.268 345.614 135.178 L 337.967 135.091 L 335.669 133.411 C 334.387 132.482 332.663 131.245 331.911 130.67 C 331.115 130.05 330.451 129.831 330.451 130.096 Z" style=""/>
  <path d="M 321.611 140.351 C 321.567 141.059 318.87 148.398 317.63 151.05 L 316.304 154.057 L 314.316 152.686 C 313.211 151.934 312.327 151.448 312.327 151.581 C 312.327 151.713 312.725 153.349 313.211 155.205 C 313.918 157.814 314.051 159.229 313.829 161.526 C 313.476 165.416 313.168 165.86 311.752 164.931 C 310.869 164.357 310.602 163.604 310.161 160.863 C 309.851 158.964 309.453 157.636 309.233 157.814 C 309.055 158.034 308.259 159.935 307.464 162.058 L 306.05 165.903 L 304.058 166.036 L 302.071 166.17 L 303.353 167.937 C 305.342 170.678 308.791 178.326 310.779 184.293 C 312.327 189.156 312.768 189.82 314.051 189.82 C 318.383 189.82 328.019 188.802 328.33 188.362 C 328.506 188.052 328.684 187.3 328.684 186.637 C 328.684 184.603 330.849 176.911 332.088 174.568 C 332.707 173.332 334.208 171.208 335.358 169.795 C 337.48 167.275 337.526 167.142 337.526 164.269 C 337.526 161.086 338.541 158.52 341.416 154.366 C 342.167 153.216 342.83 152.199 342.83 152.111 C 342.83 151.493 336.199 153.791 332.265 155.736 C 330.01 156.886 329.346 157.062 329.081 156.577 C 326.517 152.731 323.378 146.275 322.892 144.065 C 322.45 141.765 321.655 139.557 321.611 140.351 Z M 319.489 162.191 C 322.803 165.992 322.671 165.506 322.009 170.5 C 321.477 174.923 321.39 175.098 318.56 179.608 L 315.686 184.206 L 315.111 182.923 C 314.404 181.332 311.531 173.463 311.354 172.579 C 311.266 172.18 311.796 171.784 312.725 171.43 C 314.095 170.988 314.404 170.59 315.73 167.097 C 316.837 164.269 317.1 163.074 316.792 162.456 C 316.482 161.925 316.528 161.483 316.837 161.173 C 317.63 160.378 317.986 160.511 319.489 162.191 Z" style=""/>
  <path d="M 274.709 233.647 C 273.754 232.116 273.217 231.528 271.789 229.033 C 270.374 226.512 270.329 226.246 270.374 221.959 C 270.418 219.484 270.55 217.009 270.683 216.477 C 270.859 215.946 272.008 214.312 273.202 212.852 L 275.414 210.156 L 275.725 213.957 C 275.855 216.036 276.343 219.306 276.74 221.296 C 277.137 223.241 278.242 227.176 279.214 230.005 C 280.233 232.833 281.206 235.797 281.426 236.548 C 281.867 237.963 281.956 238.008 284.255 238.008 C 286.907 238.008 286.952 237.917 286.289 235.354 C 285.183 231.153 284.962 231.553 288.719 231.243 C 290.576 231.11 292.168 230.888 292.301 230.8 C 292.388 230.666 292.964 227.884 293.493 224.567 C 294.069 221.251 294.644 218.379 294.82 218.245 C 294.953 218.111 295.085 219.704 295.085 221.782 C 295.085 224.789 295.263 225.937 295.968 227.176 C 297.031 229.033 297.076 230.623 296.235 235.001 C 295.175 240.57 292.035 248.527 290.267 250.119 C 289.604 250.693 289.338 250.649 287.57 249.544 C 285.41 248.179 284.092 246.495 281.658 244.084 C 281.406 244.94 278.181 250.368 278.324 250.581 C 281.925 255.98 284.888 260.15 290.93 267.006 C 292.257 268.51 293.758 270.277 294.291 270.985 C 294.865 271.693 295.793 272.84 296.412 273.549 C 297.031 274.257 297.738 275.053 297.96 275.317 C 298.225 275.626 298.889 276.38 299.461 277.041 L 300.566 278.234 L 299.196 279.694 C 298.491 280.447 296.544 282.787 294.953 284.866 C 291.064 289.862 288.057 292.426 285.404 292.867 C 281.16 293.664 280.055 294.68 280.055 297.687 C 280.055 299.543 281.072 299.897 286.774 299.941 C 292.83 299.941 292.344 300.252 283.149 302.107 C 279.392 302.903 275.545 303.698 274.617 303.92 L 272.981 304.362 L 272.981 307.457 C 272.981 310.197 273.072 310.55 273.777 310.33 C 274.174 310.197 279.127 309.313 284.699 308.296 C 290.311 307.323 301.142 305.422 308.791 304.051 C 316.438 302.725 325.501 301.135 328.904 300.515 C 336.376 299.145 336.728 299.145 339.425 300.073 C 342.917 301.266 342.83 301.311 342.83 296.537 C 342.83 294.238 343.007 292.426 343.183 292.558 C 343.404 292.692 349.019 294.414 355.694 296.361 C 362.369 298.35 372.493 301.356 378.197 303.079 C 383.899 304.76 389.248 306.351 390.042 306.616 C 394.508 307.897 389.823 305.954 371.654 298.969 L 351.451 291.232 L 351.318 284.381 L 351.229 277.572 L 352.688 276.644 C 354.323 275.582 352.378 275.406 369.796 278.234 L 377.975 279.561 L 381.644 277.971 C 383.633 277.041 385.269 276.201 385.269 276.07 C 385.224 275.936 381.51 274.123 376.959 272.09 C 372.405 270.012 367.718 267.89 366.482 267.317 C 365.288 266.784 360.778 264.752 356.534 262.808 L 348.798 259.314 L 348.046 256.618 L 347.338 253.921 L 349.107 249.366 C 350.124 246.891 351.052 244.724 351.185 244.55 C 351.361 244.373 357.329 246.229 364.446 248.614 C 371.608 251.048 377.533 252.993 377.621 252.904 C 378.062 252.418 376.251 243.355 375.455 241.984 C 372.184 236.548 368.25 235.001 361.131 236.369 C 352.953 237.963 351.229 237.829 347.294 235.398 C 345.835 234.514 341.903 231.11 338.541 227.839 C 333.238 222.666 328.904 219.217 325.279 217.272 C 323.954 216.566 323.997 216.831 325.765 219.572 C 330.54 226.867 333.59 233.541 336.861 243.753 C 338.497 248.748 339.999 253.524 340.221 254.363 C 342.212 261.968 342.387 262.454 345.13 265.149 C 348.489 268.51 349.638 270.676 349.284 273.108 C 348.798 276.246 347.338 277.927 340.839 282.832 C 337.436 285.396 333.148 288.668 331.293 290.083 C 328.286 292.382 327.579 292.736 324.085 293.441 L 320.239 294.284 L 319.045 292.867 L 317.852 291.496 L 315.067 292.514 C 311.487 293.84 307.774 293.531 304.635 291.63 C 302.779 290.523 302.601 290.259 302.601 288.756 L 302.601 287.077 L 305.208 287.077 C 306.846 287.077 308.525 286.767 309.718 286.194 C 311.045 285.618 312.636 285.31 314.669 285.31 L 317.63 285.31 L 317.63 283.805 C 317.63 279.96 316.879 277.971 314.447 275.539 C 311.974 273.062 309.233 268.067 306.58 261.127 C 305.298 257.767 305.253 257.501 305.253 249.809 L 305.253 241.941 L 307.111 243.046 C 308.657 243.93 310.382 246.141 316.35 254.804 C 320.772 261.215 323.643 265.769 323.556 266.21 C 322.981 268.42 320.372 282.435 320.461 282.569 C 320.593 282.656 326.429 272.974 329.876 266.874 L 330.938 265.017 L 329.745 262.011 C 324.351 248.264 317.277 237.873 305.74 226.867 L 300.39 221.782 L 300.346 217.627 C 300.301 215.327 300.39 212.543 300.612 211.437 C 300.877 209.536 301.053 209.359 302.512 208.918 C 307.243 207.546 309.851 207.282 317.677 207.282 L 325.898 207.282 L 328.949 209.934 C 335.845 215.946 338.851 217.847 344.332 219.616 C 347.162 220.544 348.666 220.765 352.29 220.765 C 358.347 220.765 358.523 220.544 355.87 217.406 L 353.705 214.886 L 354.545 213.516 C 359.717 204.851 361.706 200.209 362.502 194.816 C 363.253 189.598 362.414 184.647 359.76 178.988 C 358.745 176.778 357.419 174.79 356.977 174.79 C 356.489 174.79 353.618 183.764 352.819 187.83 C 351.981 192.251 351.229 199.102 351.229 202.595 C 351.229 204.055 351.052 205.338 350.831 205.513 C 348.886 206.706 339.514 207.504 332.883 207.017 C 324.261 206.397 323.954 206.354 321.477 205.382 C 311.839 201.668 304.723 200.607 297.871 201.8 C 294.598 202.374 294.909 201.933 292.83 208.829 C 292.035 211.394 290.93 214.399 290.355 215.549 C 289.338 217.671 289.294 217.671 287.174 217.671 C 284.786 217.671 284.786 217.671 284.21 220.986 C 283.856 223.021 283.194 224.567 283.149 223.418 C 283.149 223.064 282.663 219.306 282.044 215.063 L 280.984 207.371 L 286.332 201.58 C 289.251 198.397 292.078 195.566 292.61 195.259 C 293.097 194.991 297.031 194.108 301.274 193.358 C 305.519 192.559 309.233 191.898 309.453 191.809 C 309.718 191.721 306.712 191.633 302.779 191.633 L 295.703 191.589 L 296.323 188.14 C 296.677 186.195 296.943 181.332 296.986 176.778 C 297.076 170.016 296.943 168.468 296.235 166.39 C 295.394 163.87 292.875 159.317 292.388 159.317 C 292.212 159.317 291.46 160.29 290.708 161.44 C 288.719 164.578 287.969 167.097 287.969 170.634 C 287.969 173.197 288.189 174.348 289.338 176.824 C 290.046 178.459 291.195 180.492 291.813 181.287 C 292.919 182.746 292.964 182.923 292.655 187.168 L 292.344 191.545 L 286.597 196.318 C 281.956 200.209 280.541 201.623 279.171 204.011 C 277.492 206.84 277.358 206.972 274.087 208.209 C 271.127 209.359 270.55 209.714 269.357 211.615 C 266.527 216.08 265.731 221.251 267.013 227.352 C 267.946 231.803 268.961 234.56 271.299 239.152 C 271.475 239.499 274.632 233.535 274.709 233.647 Z" style=""/>
  <path d="M 384.826 256.087 C 387.877 257.501 392.476 259.668 395.038 260.906 L 399.769 263.116 L 397.426 269.659 C 396.144 273.284 394.331 278.279 393.447 280.799 L 391.855 285.353 L 394.729 293.089 L 397.646 300.826 L 396.721 304.584 C 396.188 306.661 395.834 308.386 395.922 308.43 C 396.012 308.517 397.736 308.958 399.725 309.489 L 403.305 310.418 L 404.19 307.942 L 405.118 305.511 L 403.792 301.666 C 401.847 295.83 401.185 291.541 401.185 285 C 401.185 278.589 401.934 273.24 403.616 267.848 L 404.675 264.399 L 399.991 259.27 L 395.304 254.142 L 391.282 253.877 C 389.07 253.7 385.49 253.568 383.279 253.524 L 379.301 253.48 L 384.826 256.087 Z M 342.521 306.573 L 342.608 311.081 L 334.208 311.168 C 329.611 311.214 319.843 311.788 312.548 312.453 C 305.253 313.071 295.394 313.911 290.664 314.265 C 285.935 314.663 280.099 315.148 277.71 315.369 C 275.325 315.635 273.115 315.813 272.76 315.813 C 272.363 315.813 271.921 315.016 271.611 313.822 C 271.036 311.568 270.727 311.479 268.693 312.716 C 267.367 313.513 267.234 313.777 267.234 315.856 L 267.234 318.154 L 281.513 317.845 C 289.338 317.712 314.051 317.27 336.419 316.916 C 377.268 316.297 400.875 315.768 400.652 315.591 C 400.564 315.503 398.222 314.928 395.436 314.308 C 392.651 313.69 386.595 312.275 381.954 311.214 C 377.356 310.154 370.371 308.561 366.482 307.677 C 362.592 306.794 357.729 305.643 355.65 305.156 C 353.573 304.716 350.124 303.876 347.914 303.389 C 345.748 302.903 343.582 302.372 343.183 302.284 C 342.476 302.063 342.431 302.505 342.521 306.573 Z" style=""/>
  <g transform="matrix(0.077716, -0.02236, 0.02236, 0.077716, 246.224792, 236.008408)" style="">
    <path d="M130.415,277.741C95.083,313.074,45.038,324.723,0,312.697c5.918,22.164,17.568,43.116,34.956,60.504 c52.721,52.721,138.198,52.721,190.919,0c26.361-26.36,26.36-69.099,0-95.459C199.514,251.38,156.776,251.38,130.415,277.741z"/>
    <path d="M 212.771 234.276 C 225.499 239.103 237.174 246.614 247.088 256.528 C 257.165 266.605 264.544 278.366 269.278 290.906 L 378.225 185.412 L 322.309 128.421 C 302.015 148.715 226.908 220.139 212.771 234.276 Z"/>
    <path d="M 480.639 26.519 C 465.018 10.898 439.691 10.898 424.071 26.519 C 418.184 32.406 369.575 81.015 321.57 129.02 L 378.138 185.589 L 480.639 83.088 C 496.26 67.467 496.26 42.14 480.639 26.519 Z"/>
  </g>
  <path d="M 279.762 393.778 C 278.289 393.778 276.954 393.341 275.752 392.459 C 274.551 391.58 273.513 390.383 272.642 388.868 C 271.058 386.229 269.887 382.612 269.123 378.018 C 268.577 374.84 268.168 371.174 267.895 367.02 L 267.813 363.136 L 267.813 359.175 C 267.76 357.906 267.732 356.367 267.732 354.559 C 267.732 351.624 267.868 349.035 268.141 346.788 C 268.359 344.439 268.904 342.121 269.777 339.822 C 270.65 337.818 271.907 336.401 273.544 335.571 C 274.525 335.178 275.505 334.985 276.489 334.985 C 279.38 334.985 281.674 336.01 283.364 338.061 C 285.22 340.361 286.446 342.927 287.046 345.76 C 287.919 349.182 288.41 352.457 288.519 355.583 C 288.738 359.056 288.847 362.328 288.847 365.408 L 288.847 369.586 C 288.847 370.416 288.711 371.982 288.437 374.278 C 288.219 376.088 288.111 377.627 288.111 378.897 L 288.111 379.191 C 287.784 380.557 287.62 382.172 287.62 384.029 C 287.62 385.397 287.293 386.814 286.637 388.281 C 285.983 389.747 285.056 390.994 283.856 392.02 C 282.655 393.193 281.293 393.778 279.762 393.778 Z M 279.926 389.747 C 281.018 389.747 281.946 388.844 282.708 387.035 C 283.364 385.421 283.843 383.455 284.142 381.135 C 284.442 378.812 284.701 376.185 284.918 373.253 C 285.028 371.982 285.082 370.343 285.082 368.34 L 285.001 361.595 C 284.893 358.956 284.565 355.657 284.019 351.699 C 283.582 348.327 282.766 345.346 281.564 342.754 C 281.018 341.533 280.335 340.579 279.518 339.894 C 278.7 339.21 277.826 338.869 276.899 338.869 C 275.534 338.869 274.525 339.822 273.87 341.728 C 273.05 343.734 272.507 345.933 272.233 348.327 C 271.907 350.918 271.716 353.384 271.66 355.732 L 271.578 358.151 C 271.524 358.835 271.496 359.762 271.496 360.936 L 271.496 361.23 C 271.496 364.504 271.878 368.535 272.642 373.326 C 273.513 379.827 274.796 384.446 276.489 387.183 C 277.58 388.893 278.727 389.747 279.926 389.747 Z M 317.482 392.972 C 316.227 392.972 314.89 391.751 313.472 389.308 C 311.343 385.642 309.243 379.606 307.171 371.2 C 306.57 368.904 306.08 366.774 305.695 364.822 C 303.73 368.34 302.75 372.592 302.75 377.578 L 302.75 391.139 C 302.75 392.263 302.204 392.827 301.113 392.827 C 300.295 392.827 299.627 392.619 299.107 392.203 C 298.588 391.789 298.331 391.214 298.331 390.48 L 298.331 368.268 C 298.331 366.117 298.602 362.159 299.148 356.391 C 299.695 351.356 299.968 347.399 299.968 344.514 C 300.404 343.585 301.196 343.12 302.341 343.12 C 303.049 343.12 303.651 343.34 304.14 343.781 C 304.631 344.218 304.878 344.761 304.878 345.394 L 304.878 345.616 C 304.169 346.688 303.813 351.136 303.813 358.956 L 303.813 361.595 L 306.842 356.244 C 308.698 352.775 310.444 349.794 312.08 347.3 C 313.607 344.857 314.726 343.636 315.436 343.636 C 316.308 343.636 317.059 343.806 317.687 344.147 C 318.316 344.49 318.627 344.978 318.627 345.616 L 316.662 348.546 C 312.572 354.46 310.278 357.879 309.789 358.81 C 309.789 359.641 309.761 360.375 309.707 361.01 L 309.626 363.208 C 309.626 365.31 310.566 369.233 312.449 374.974 C 314.33 380.719 315.901 384.518 317.154 386.375 L 318.217 387.693 C 319.255 388.966 319.774 390.089 319.774 391.066 C 319.774 391.605 319.542 392.058 319.078 392.424 C 318.615 392.791 318.083 392.972 317.482 392.972 Z M 330.83 380.803 C 330.285 380.803 329.766 380.191 329.276 378.971 C 328.785 377.701 328.537 375.818 328.537 373.326 C 328.537 372.446 328.593 370.785 328.702 368.34 C 328.813 366.532 328.867 364.53 328.867 362.328 L 328.702 350.306 L 328.537 338.282 C 328.537 337.5 328.894 336.826 329.602 336.266 C 330.31 335.705 331.101 335.424 331.977 335.424 C 332.521 335.424 332.986 335.595 333.365 335.936 C 333.749 336.279 333.941 336.719 333.941 337.255 C 333.941 341.556 333.666 347.399 333.122 354.779 C 332.521 362.94 332.221 368.78 332.221 372.298 C 332.221 374.888 332.181 376.76 332.098 377.908 C 332.017 379.056 331.882 379.827 331.691 380.216 C 331.498 380.606 331.212 380.803 330.83 380.803 Z M 329.355 393.341 C 328.702 393.341 328.087 393.071 327.516 392.535 C 326.942 391.996 326.657 391.335 326.657 390.554 C 326.657 389.674 326.984 388.904 327.638 388.246 C 328.293 387.585 329.084 387.253 330.012 387.253 C 330.995 387.253 331.797 387.585 332.426 388.246 C 333.054 388.904 333.365 389.747 333.365 390.775 C 333.365 392.484 332.029 393.341 329.355 393.341 Z M 363.311 393.341 C 361.346 393.341 359.654 393.021 358.239 392.386 C 357.363 391.948 356.927 391.435 356.927 390.847 C 356.927 390.26 357.091 389.783 357.417 389.416 C 357.745 389.052 358.21 388.868 358.81 388.868 C 359.355 388.868 360.145 389.062 361.182 389.454 C 362.33 389.845 363.039 390.039 363.311 390.039 C 364.348 390.039 365.288 389.637 366.134 388.831 C 366.981 388.026 367.648 386.963 368.14 385.642 C 369.121 383.197 369.613 380.999 369.613 379.043 C 369.613 376.942 369.244 374.73 368.509 372.408 C 367.769 370.087 366.776 367.828 365.52 365.629 L 364.21 363.282 C 362.848 360.838 361.797 358.907 361.059 357.49 C 360.323 356.072 359.682 354.533 359.136 352.873 C 358.318 350.526 357.909 348.254 357.909 346.051 C 357.909 344.293 358.25 342.632 358.932 341.07 C 359.615 339.506 360.637 338.185 361.999 337.109 C 363.365 335.936 365.056 335.35 367.075 335.35 C 368.058 335.35 369.011 335.608 369.94 336.12 C 370.868 336.633 371.524 337.28 371.904 338.061 L 370.513 339.602 C 369.096 339.602 368.031 339.357 367.321 338.869 C 366.341 338.967 365.479 339.396 364.743 340.154 C 364.006 340.908 363.448 341.776 363.065 342.754 C 362.737 343.685 362.574 344.612 362.574 345.542 C 362.574 347.399 362.861 349.292 363.435 351.223 C 364.006 353.152 364.758 354.974 365.684 356.684 L 371.413 366.946 C 372.34 368.706 373.078 370.687 373.625 372.886 C 374.171 375.084 374.442 377.285 374.442 379.484 C 374.442 382.709 373.568 385.742 371.823 388.574 C 370.895 390.039 369.695 391.2 368.221 392.058 C 366.747 392.912 365.111 393.341 363.311 393.341 Z M 393.428 393.12 C 392.009 393.12 390.7 392.715 389.501 391.91 C 388.299 391.103 387.318 390.017 386.554 388.648 C 384.971 385.666 383.987 382.416 383.606 378.897 C 383.113 375.573 382.87 372.373 382.87 369.294 C 382.87 368.706 382.898 368.22 382.953 367.828 L 382.953 366.507 C 382.953 366.265 382.925 366.141 382.87 366.141 L 382.87 364.822 L 382.953 359.69 C 383.007 358.126 383.224 355.633 383.606 352.212 C 383.88 349.866 384.507 347.594 385.489 345.394 C 385.871 344.416 386.361 343.672 386.962 343.158 C 387.562 342.645 388.245 342.388 389.009 342.388 C 391.192 342.388 393.156 342.743 394.902 343.451 C 396.647 344.16 398.121 345.148 399.32 346.42 C 400.413 347.642 401.341 349.147 402.104 350.929 C 402.868 352.713 403.414 354.609 403.742 356.61 C 404.067 358.662 404.232 360.838 404.232 363.136 L 404.232 363.723 C 404.232 365.235 404.259 366.605 404.312 367.828 L 404.396 372.007 C 404.396 386.081 400.741 393.12 393.428 393.12 Z M 393.101 390.039 C 394.082 390.039 394.984 389.686 395.802 388.977 C 396.62 388.27 397.248 387.305 397.686 386.081 C 398.72 383.59 399.348 380.9 399.566 378.018 C 399.84 375.525 399.976 373.374 399.976 371.565 C 399.976 369.367 399.783 366.484 399.404 362.916 C 399.077 359.153 398.91 356.341 398.91 354.485 L 398.91 353.166 C 398.802 351.308 398.106 349.694 396.824 348.327 C 395.541 346.957 393.973 346.273 392.119 346.273 C 390.263 346.273 389.035 347.227 388.435 349.133 C 387.89 350.647 387.617 352.603 387.617 354.996 C 387.617 355.926 387.643 356.707 387.699 357.344 L 387.699 359.324 L 387.537 362.695 C 387.427 363.723 387.372 364.847 387.372 366.068 C 387.372 368.706 387.454 371.323 387.617 373.912 C 387.837 377.578 388.38 381.146 389.254 384.614 C 390.126 388.233 391.41 390.039 393.101 390.039 Z M 419.548 392.9 C 418.836 392.9 418.209 392.632 417.664 392.094 C 417.118 391.556 416.844 390.944 416.844 390.26 C 416.844 389.527 417.145 388.868 417.745 388.281 C 418.344 387.693 419.056 387.4 419.873 387.4 C 420.638 387.4 421.32 387.693 421.919 388.281 C 422.52 388.868 422.82 389.502 422.82 390.187 C 422.82 390.968 422.507 391.616 421.879 392.13 C 421.251 392.644 420.474 392.9 419.548 392.9 Z M 443.201 392.9 C 442.49 392.9 441.864 392.632 441.318 392.094 C 440.772 391.556 440.499 390.944 440.499 390.26 C 440.499 389.527 440.799 388.868 441.399 388.281 C 441.999 387.693 442.708 387.4 443.528 387.4 C 444.292 387.4 444.974 387.693 445.573 388.281 C 446.175 388.868 446.473 389.502 446.473 390.187 C 446.473 390.968 446.161 391.616 445.534 392.13 C 444.905 392.644 444.128 392.9 443.201 392.9 Z M 466.841 392.9 C 466.132 392.9 465.504 392.632 464.96 392.094 C 464.411 391.556 464.14 390.944 464.14 390.26 C 464.14 389.527 464.44 388.868 465.04 388.281 C 465.641 387.693 466.35 387.4 467.168 387.4 C 467.933 387.4 468.614 387.693 469.215 388.281 C 469.817 388.868 470.116 389.502 470.116 390.187 C 470.116 390.968 469.802 391.616 469.173 392.13 C 468.546 392.644 467.769 392.9 466.841 392.9 Z" style="white-space: pre;"/>
  <text style="fill: rgb(163, 163, 163); font-family: &quot;Amatic SC&quot;; font-size: 15.9px; font-weight: 700; white-space: pre;" x="535.124" y="390.117">okso.app</text>
  <text style="font-family: &quot;Amatic SC&quot;; font-size: 54.8px; font-weight: 700; white-space: pre;" transform="matrix(1.060355, 0, 0, 1.060355, 18.645029, -220.813522)"><tspan x="487.081" y="364.106">Draw to explain<tspan x="487.08099365234375" dy="1.2em">​</tspan>Draw to grasp<tspan x="487.08099365234375" dy="1.2em">​</tspan>Organize your drawings</tspan><tspan x="487.08099365234375" dy="1.2em">​</tspan></text>
</svg>