<?xml version="1.0" encoding="utf-8"?>
<svg viewBox="66.415 3.469 1047.485 488.721" xmlns="http://www.w3.org/2000/svg" xmlns:bx="https://boxy-svg.com">
  <defs>
    <style bx:fonts="Amatic SC">@import url(https://fonts.googleapis.com/css2?family=Amatic+SC%3Aital%2Cwght%400%2C400%3B0%2C700&amp;display=swap);</style>
    <bx:grid x="67.416" y="3.455" width="54.388" height="54.388"/>
  </defs>
  <path d="M 254.621 47.436 C 246.383 49.476 237.737 56.327 230.968 66.113 C 228.114 70.273 227.95 70.681 228.848 73.617 C 229.419 75.412 229.581 78.511 229.256 80.712 C 228.685 85.28 230.478 90.337 234.068 94.088 C 235.209 95.393 236.515 98.084 237.004 100.45 C 237.574 102.897 239.532 107.138 241.735 110.481 C 243.773 113.743 245.486 116.925 245.404 117.576 C 245.404 118.23 244.181 123.531 242.794 129.322 C 241.407 135.031 240.348 139.925 240.51 140.087 C 240.674 140.25 242.794 136.989 245.241 132.828 L 249.727 125.324 L 258.536 125.081 C 263.348 124.999 267.262 124.591 267.262 124.265 C 267.262 123.938 265.956 122.307 264.407 120.595 C 262.532 118.474 260.9 117.576 259.35 117.576 C 255.517 117.576 253.56 116.761 253.886 115.294 C 253.968 114.478 254.376 112.194 254.621 109.991 L 255.11 106.158 L 259.514 106.158 C 263.592 106.158 263.918 105.996 265.468 103.386 C 266.935 100.94 267.67 100.532 270.687 100.286 L 274.194 100.042 L 269.463 97.268 C 264.652 94.496 264.652 94.496 259.107 95.475 C 256.089 95.963 251.848 97.106 249.809 97.921 L 246.138 99.553 L 245.649 96.942 C 245.322 95.475 245.241 91.968 245.404 89.113 C 245.649 84.627 245.893 83.648 247.769 82.344 C 250.95 79.897 254.621 80.224 262.776 83.648 C 266.854 85.361 270.85 86.666 271.748 86.504 C 278.517 85.688 281.861 86.177 284.961 88.705 C 286.673 90.091 288.875 92.457 289.935 94.006 C 290.995 95.555 292.138 96.86 292.463 97.025 C 292.79 97.106 292.953 94.17 292.79 90.499 C 292.463 84.546 292.138 83.485 290.425 81.936 C 286.999 78.755 283.085 78.591 276.722 81.283 C 275.336 81.936 275.254 81.691 275.743 78.755 C 276.071 77.042 276.478 75.004 276.722 74.269 C 276.967 73.29 275.989 72.475 273.134 71.252 C 267.996 69.049 257.963 66.358 252.173 65.705 L 247.607 65.134 L 250.216 62.769 C 251.684 61.383 254.294 59.344 256.089 58.202 C 262.123 54.206 270.85 55.837 283.328 63.34 C 291.73 68.397 298.335 74.758 307.715 86.993 C 308.856 88.542 308.938 88.296 308.613 84.057 C 307.797 75.412 302.005 66.603 292.138 59.181 C 280.066 50.128 263.999 45.071 254.621 47.436 Z M 310.488 91.397 C 310.488 93.435 313.587 99.716 318.072 106.974 C 320.764 111.215 322.967 114.803 323.048 114.803 C 323.048 114.886 331.938 114.07 342.704 113.091 C 353.469 112.112 362.523 111.461 362.931 111.623 C 363.256 111.786 365.377 114.397 367.579 117.332 C 379.242 132.747 388.784 160.884 388.784 179.887 C 388.784 193.264 386.256 207.454 380.954 224.174 L 378.018 233.228 L 384.788 246.195 C 388.458 253.29 394.085 264.057 397.267 270.092 L 403.057 281.102 L 403.465 292.52 L 403.873 303.939 L 406.074 299.371 C 409.174 292.847 409.99 289.257 409.99 282.326 C 409.99 272.864 406.401 262.751 397.267 246.277 C 393.515 239.426 393.025 238.039 393.678 236.082 C 395.309 231.433 397.756 216.344 398.734 205.823 C 399.468 197.341 399.468 192.285 398.652 182.987 C 395.961 150.689 391.721 135.112 381.608 120.268 C 375.49 111.378 369.536 106.893 358.933 103.222 C 352.98 101.183 351.349 100.94 338.462 100.775 L 324.353 100.612 L 320.113 97.514 C 317.747 95.801 314.566 93.517 313.179 92.457 C 311.711 91.315 310.488 90.907 310.488 91.397 Z" style=""/>
  <path d="M 294.177 110.318 C 294.095 111.623 289.12 125.162 286.835 130.055 L 284.389 135.602 L 280.72 133.073 C 278.68 131.687 277.048 130.789 277.048 131.034 C 277.048 131.279 277.784 134.296 278.68 137.722 C 279.984 142.534 280.23 145.144 279.822 149.384 C 279.17 156.561 278.599 157.378 275.989 155.665 C 274.358 154.604 273.869 153.217 273.053 148.161 C 272.482 144.655 271.748 142.207 271.34 142.534 C 271.013 142.942 269.546 146.448 268.077 150.363 L 265.468 157.459 L 261.797 157.704 L 258.128 157.948 L 260.492 161.21 C 264.163 166.267 270.525 180.377 274.194 191.387 C 277.048 200.358 277.864 201.582 280.23 201.582 C 288.222 201.582 306.002 199.707 306.574 198.891 C 306.899 198.32 307.226 196.933 307.226 195.71 C 307.226 191.958 311.222 177.766 313.505 173.444 C 314.648 171.161 317.42 167.245 319.54 164.636 C 323.456 159.987 323.538 159.743 323.538 154.441 C 323.538 148.569 325.413 143.838 330.715 136.173 C 332.101 134.053 333.325 132.176 333.325 132.012 C 333.325 130.871 321.09 135.112 313.832 138.701 C 309.672 140.822 308.448 141.147 307.959 140.25 C 303.229 133.155 297.439 121.247 296.541 117.168 C 295.726 112.928 294.258 108.85 294.177 110.318 Z M 290.262 150.609 C 296.378 157.622 296.134 156.725 294.91 165.941 C 293.931 174.097 293.769 174.422 288.548 182.743 L 283.248 191.224 L 282.187 188.858 C 280.882 185.922 275.581 171.405 275.254 169.774 C 275.092 169.04 276.071 168.307 277.784 167.653 C 280.312 166.838 280.882 166.104 283.328 159.661 C 285.368 154.441 285.856 152.239 285.286 151.097 C 284.715 150.119 284.797 149.303 285.368 148.732 C 286.835 147.264 287.489 147.509 290.262 150.609 Z" style=""/>
  <path d="M 207.647 282.439 C 205.885 279.614 204.896 278.531 202.26 273.925 C 199.65 269.277 199.568 268.787 199.65 260.875 C 199.731 256.308 199.976 251.741 200.22 250.762 C 200.547 249.784 202.668 246.766 204.87 244.074 L 208.948 239.1 L 209.519 246.113 C 209.763 249.946 210.66 255.982 211.394 259.652 C 212.128 263.241 214.167 270.499 215.961 275.719 C 217.837 280.939 219.632 286.403 220.04 287.79 C 220.855 290.4 221.018 290.482 225.258 290.482 C 230.153 290.482 230.235 290.318 229.011 285.588 C 226.971 277.839 226.564 278.574 233.497 278.003 C 236.922 277.758 239.858 277.35 240.102 277.187 C 240.266 276.942 241.327 271.805 242.305 265.687 C 243.365 259.57 244.425 254.269 244.751 254.025 C 244.997 253.779 245.241 256.715 245.241 260.548 C 245.241 266.095 245.568 268.215 246.871 270.499 C 248.829 273.925 248.912 276.861 247.361 284.935 C 245.404 295.212 239.614 309.892 236.351 312.828 C 235.128 313.888 234.638 313.807 231.376 311.768 C 227.389 309.249 224.958 306.141 220.47 301.692 C 220.003 303.272 214.055 313.286 214.319 313.681 C 220.96 323.64 226.428 331.334 237.574 343.983 C 240.022 346.757 242.794 350.018 243.773 351.324 C 244.833 352.629 246.546 354.749 247.688 356.054 C 248.829 357.36 250.135 358.827 250.543 359.317 C 251.032 359.888 252.256 361.275 253.315 362.497 L 255.354 364.699 L 252.826 367.391 C 251.521 368.777 247.933 373.1 244.997 376.933 C 237.82 386.15 232.273 390.88 227.379 391.695 C 219.551 393.163 217.511 395.039 217.511 400.586 C 217.511 404.011 219.386 404.663 229.907 404.745 C 241.081 404.745 240.184 405.316 223.22 408.742 C 216.288 410.209 209.192 411.678 207.479 412.086 L 204.461 412.901 L 204.461 418.609 C 204.461 423.666 204.625 424.319 205.929 423.911 C 206.664 423.666 215.799 422.035 226.075 420.159 C 236.433 418.366 256.414 414.858 270.525 412.33 C 284.634 409.883 301.354 406.947 307.634 405.805 C 321.417 403.276 322.069 403.276 327.044 404.989 C 333.487 407.191 333.325 407.273 333.325 398.465 C 333.325 394.224 333.651 390.88 333.976 391.124 C 334.384 391.369 344.743 394.55 357.058 398.139 C 369.373 401.809 388.05 407.355 398.572 410.535 C 409.093 413.635 418.96 416.571 420.429 417.06 C 428.666 419.425 420.021 415.837 386.501 402.95 L 349.228 388.678 L 348.984 376.037 L 348.82 363.475 L 351.512 361.763 C 354.529 359.806 350.941 359.48 383.075 364.699 L 398.164 367.146 L 404.933 364.211 C 408.603 362.497 411.621 360.947 411.621 360.704 C 411.539 360.458 404.687 357.114 396.288 353.362 C 387.888 349.529 379.242 345.614 376.959 344.554 C 374.756 343.575 366.437 339.824 358.608 336.236 L 344.335 329.792 L 342.948 324.818 L 341.643 319.842 L 344.905 311.441 C 346.782 306.875 348.495 302.877 348.739 302.552 C 349.065 302.226 360.075 305.651 373.206 310.054 C 386.418 314.541 397.347 318.129 397.511 317.967 C 398.326 317.069 394.982 300.349 393.515 297.821 C 387.48 287.79 380.221 284.935 367.089 287.463 C 352.001 290.4 348.82 290.155 341.561 285.67 C 338.87 284.038 331.613 277.758 325.413 271.723 C 315.626 262.18 307.634 255.819 300.946 252.23 C 298.499 250.925 298.58 251.414 301.843 256.471 C 310.651 269.928 316.279 282.244 322.313 301.084 C 325.331 310.3 328.104 319.108 328.512 320.657 C 332.183 334.686 332.508 335.582 337.565 340.558 C 343.764 346.757 345.884 350.753 345.232 355.239 C 344.335 361.029 341.643 364.129 329.654 373.181 C 323.374 377.911 315.463 383.947 312.038 386.557 C 306.491 390.798 305.187 391.451 298.743 392.755 L 291.648 394.306 L 289.446 391.695 L 287.243 389.167 L 282.106 391.043 C 275.499 393.49 268.649 392.919 262.858 389.411 C 259.433 387.373 259.107 386.883 259.107 384.11 L 259.107 381.011 L 263.918 381.011 C 266.935 381.011 270.036 380.44 272.237 379.381 C 274.684 378.319 277.62 377.749 281.371 377.749 L 286.835 377.749 L 286.835 374.975 C 286.835 367.881 285.449 364.211 280.963 359.725 C 276.397 355.157 271.34 345.941 266.446 333.136 C 264.081 326.938 263.999 326.448 263.999 312.257 L 263.999 297.74 L 267.425 299.779 C 270.279 301.41 273.461 305.488 284.471 321.473 C 292.628 333.3 297.928 341.7 297.764 342.516 C 296.705 346.593 291.892 372.447 292.055 372.693 C 292.3 372.855 303.066 354.994 309.427 343.739 L 311.385 340.313 L 309.183 334.768 C 299.233 309.403 286.184 290.236 264.897 269.928 L 255.028 260.548 L 254.946 252.883 C 254.865 248.642 255.028 243.503 255.435 241.464 C 255.925 237.956 256.251 237.631 258.942 236.815 C 267.67 234.287 272.482 233.798 286.918 233.798 L 302.087 233.798 L 307.715 238.692 C 320.438 249.784 325.984 253.29 336.097 256.553 C 341.318 258.266 344.09 258.674 350.777 258.674 C 361.952 258.674 362.277 258.266 357.384 252.475 L 353.388 247.826 L 354.938 245.298 C 364.48 229.313 368.15 220.749 369.618 210.799 C 371.004 201.174 369.454 192.04 364.561 181.6 C 362.685 177.523 360.239 173.852 359.423 173.852 C 358.526 173.852 353.226 190.409 351.756 197.912 C 350.207 206.068 348.82 218.709 348.82 225.153 C 348.82 227.843 348.495 230.209 348.087 230.536 C 344.497 232.738 327.207 234.206 314.974 233.308 C 299.069 232.166 298.499 232.085 293.931 230.292 C 276.151 223.44 263.02 221.482 250.379 223.685 C 244.343 224.745 244.914 223.929 241.081 236.653 C 239.614 241.383 237.574 246.928 236.515 249.05 C 234.638 252.964 234.557 252.964 230.643 252.964 C 226.238 252.964 226.238 252.964 225.178 259.081 C 224.525 262.833 223.301 265.687 223.22 263.567 C 223.22 262.914 222.322 255.982 221.181 248.152 L 219.224 233.961 L 229.092 223.277 C 234.476 217.405 239.694 212.185 240.674 211.615 C 241.571 211.125 248.829 209.494 256.659 208.107 C 264.489 206.638 271.34 205.415 271.748 205.253 C 272.237 205.089 266.692 204.926 259.433 204.926 L 246.383 204.845 L 247.525 198.483 C 248.177 194.894 248.666 185.922 248.748 177.523 C 248.912 165.044 248.666 162.189 247.361 158.356 C 245.812 153.707 241.164 145.307 240.266 145.307 C 239.94 145.307 238.553 147.102 237.166 149.222 C 233.497 155.012 232.11 159.661 232.11 166.186 C 232.11 170.916 232.518 173.038 234.638 177.604 C 235.943 180.622 238.064 184.373 239.206 185.841 C 241.245 188.533 241.327 188.858 240.756 196.689 L 240.184 204.764 L 229.581 213.572 C 221.018 220.749 218.408 223.358 215.88 227.763 C 212.781 232.982 212.536 233.228 206.501 235.51 C 201.037 237.631 199.976 238.284 197.773 241.79 C 192.554 250.028 191.086 259.57 193.45 270.826 C 195.174 279.036 197.046 284.126 201.358 292.596 C 201.683 293.236 207.506 282.23 207.647 282.439 Z" style=""/>
  <path d="M 410.805 323.839 C 416.432 326.448 424.915 330.445 429.644 332.729 L 438.373 336.806 L 434.05 348.877 C 431.684 355.565 428.34 364.781 426.708 369.43 L 423.773 377.83 L 429.074 392.103 L 434.457 406.376 L 432.745 413.309 C 431.766 417.142 431.113 420.323 431.276 420.404 C 431.439 420.567 434.621 421.383 438.29 422.361 L 444.896 424.073 L 446.527 419.507 L 448.24 415.022 L 445.794 407.925 C 442.205 397.159 440.982 389.249 440.982 377.178 C 440.982 365.352 442.368 355.483 445.467 345.533 L 447.424 339.172 L 438.78 329.711 L 430.134 320.25 L 422.713 319.761 C 418.634 319.434 412.029 319.19 407.95 319.108 L 400.61 319.026 L 410.805 323.839 Z M 332.754 416.979 L 332.916 425.298 L 317.42 425.46 C 308.938 425.542 290.914 426.602 277.456 427.826 C 263.999 428.968 245.812 430.517 237.086 431.17 C 228.358 431.904 217.594 432.802 213.188 433.208 C 208.784 433.698 204.707 434.024 204.053 434.024 C 203.32 434.024 202.504 432.556 201.933 430.354 C 200.873 426.194 200.302 426.031 196.551 428.315 C 194.104 429.783 193.859 430.273 193.859 434.106 L 193.859 438.347 L 220.202 437.776 C 234.638 437.531 280.23 436.716 321.498 436.063 C 396.859 434.922 440.411 433.943 440.003 433.616 C 439.84 433.453 435.517 432.394 430.38 431.25 C 425.241 430.109 414.067 427.5 405.503 425.542 C 397.022 423.585 384.136 420.648 376.959 419.017 C 369.782 417.387 360.81 415.266 356.976 414.368 C 353.143 413.553 346.782 412.003 342.704 411.106 C 338.707 410.209 334.711 409.231 333.976 409.067 C 332.672 408.659 332.59 409.475 332.754 416.979 Z" style=""/>
  <g transform="matrix(0.143377, -0.041253, 0.041253, 0.143377, 155.098251, 286.791443)" style="">
    <path d="M130.415,277.741C95.083,313.074,45.038,324.723,0,312.697c5.918,22.164,17.568,43.116,34.956,60.504 c52.721,52.721,138.198,52.721,190.919,0c26.361-26.36,26.36-69.099,0-95.459C199.514,251.38,156.776,251.38,130.415,277.741z"/>
    <path d="M 212.771 234.276 C 225.499 239.103 237.174 246.614 247.088 256.528 C 257.165 266.605 264.544 278.366 269.278 290.906 L 378.225 185.412 L 322.309 128.421 C 302.015 148.715 226.908 220.139 212.771 234.276 Z"/>
    <path d="M 480.639 26.519 C 465.018 10.898 439.691 10.898 424.071 26.519 C 418.184 32.406 369.575 81.015 321.57 129.02 L 378.138 185.589 L 480.639 83.088 C 496.26 67.467 496.26 42.14 480.639 26.519 Z"/>
  </g>
  <path d="M 507.865 265.416 C 504.147 265.416 500.773 264.306 497.744 262.086 C 494.715 259.866 492.099 256.845 489.896 253.021 C 485.903 246.361 482.943 237.235 481.016 225.641 C 479.639 217.625 478.606 208.375 477.917 197.892 L 477.711 188.088 L 477.711 178.098 C 477.573 174.891 477.504 171.006 477.504 166.442 C 477.504 159.043 477.848 152.506 478.537 146.833 C 479.088 140.913 480.465 135.055 482.668 129.258 C 484.871 124.202 488.038 120.625 492.168 118.529 C 494.647 117.542 497.125 117.049 499.604 117.049 C 506.901 117.049 512.684 119.639 516.952 124.819 C 521.634 130.615 524.732 137.09 526.246 144.243 C 528.449 152.876 529.688 161.139 529.963 169.032 C 530.514 177.789 530.79 186.052 530.79 193.822 L 530.79 204.367 C 530.79 206.464 530.445 210.41 529.757 216.207 C 529.207 220.77 528.931 224.655 528.931 227.861 L 528.931 228.601 C 528.105 232.055 527.692 236.125 527.692 240.811 C 527.692 244.264 526.866 247.841 525.214 251.541 C 523.561 255.241 521.221 258.386 518.192 260.976 C 515.162 263.936 511.72 265.416 507.865 265.416 Z M 508.278 255.241 C 511.032 255.241 513.372 252.959 515.3 248.397 C 516.952 244.326 518.157 239.362 518.914 233.505 C 519.671 227.646 520.325 221.017 520.876 213.617 C 521.151 210.41 521.289 206.279 521.289 201.222 L 521.083 184.202 C 520.808 177.542 519.981 169.218 518.605 159.228 C 517.503 150.718 515.438 143.195 512.409 136.658 C 511.032 133.575 509.31 131.17 507.245 129.443 C 505.18 127.716 502.977 126.853 500.636 126.853 C 497.194 126.853 494.647 129.258 492.994 134.068 C 490.929 139.125 489.552 144.675 488.864 150.718 C 488.038 157.254 487.556 163.482 487.418 169.402 L 487.212 175.508 C 487.073 177.234 487.004 179.578 487.004 182.538 L 487.004 183.278 C 487.004 191.54 487.968 201.715 489.896 213.802 C 492.099 230.205 495.335 241.86 499.604 248.767 C 502.357 253.083 505.249 255.241 508.278 255.241 Z M 603.047 263.381 C 599.88 263.381 596.506 260.298 592.926 254.131 C 587.557 244.881 582.256 229.65 577.024 208.437 C 575.509 202.64 574.27 197.275 573.306 192.342 C 568.349 201.222 565.871 211.952 565.871 224.531 L 565.871 258.756 C 565.871 261.593 564.494 263.011 561.74 263.011 C 559.675 263.011 557.988 262.487 556.68 261.439 C 555.372 260.39 554.718 258.941 554.718 257.091 L 554.718 201.037 C 554.718 195.611 555.407 185.621 556.783 171.068 C 558.16 158.364 558.849 148.375 558.849 141.098 C 559.95 138.755 561.947 137.583 564.838 137.583 C 566.628 137.583 568.143 138.138 569.381 139.248 C 570.621 140.358 571.241 141.715 571.241 143.318 L 571.241 143.873 C 569.45 146.586 568.555 157.809 568.555 177.542 L 568.555 184.202 L 576.198 170.698 C 580.879 161.941 585.285 154.418 589.416 148.128 C 593.271 141.962 596.093 138.878 597.883 138.878 C 600.086 138.878 601.979 139.31 603.563 140.173 C 605.147 141.036 605.938 142.27 605.938 143.873 L 600.982 151.273 C 590.655 166.196 584.872 174.829 583.633 177.172 C 583.633 179.269 583.564 181.119 583.426 182.722 L 583.22 188.272 C 583.22 193.576 585.595 203.473 590.345 217.965 C 595.095 232.456 599.054 242.045 602.221 246.731 L 604.905 250.061 C 607.522 253.268 608.83 256.104 608.83 258.571 C 608.83 259.928 608.245 261.069 607.075 261.994 C 605.904 262.919 604.561 263.381 603.047 263.381 Z M 636.73 232.671 C 635.353 232.671 634.045 231.13 632.805 228.047 C 631.566 224.84 630.947 220.092 630.947 213.802 C 630.947 211.582 631.085 207.388 631.36 201.222 C 631.635 196.659 631.773 191.602 631.773 186.052 L 631.36 155.713 L 630.947 125.373 C 630.947 123.4 631.842 121.704 633.631 120.286 C 635.422 118.868 637.418 118.159 639.621 118.159 C 640.998 118.159 642.168 118.59 643.132 119.453 C 644.096 120.317 644.578 121.427 644.578 122.783 C 644.578 133.636 643.89 148.375 642.513 166.998 C 640.998 187.594 640.24 202.332 640.24 211.212 C 640.24 217.749 640.137 222.466 639.93 225.365 C 639.724 228.262 639.38 230.205 638.898 231.191 C 638.416 232.178 637.693 232.671 636.73 232.671 Z M 633.012 264.306 C 631.36 264.306 629.811 263.628 628.364 262.271 C 626.919 260.915 626.196 259.25 626.196 257.276 C 626.196 255.056 627.022 253.114 628.674 251.449 C 630.327 249.784 632.323 248.951 634.664 248.951 C 637.143 248.951 639.173 249.784 640.756 251.449 C 642.34 253.114 643.132 255.241 643.132 257.831 C 643.132 262.148 639.759 264.306 633.012 264.306 Z M 718.693 264.306 C 713.736 264.306 709.467 263.504 705.888 261.901 C 703.685 260.791 702.583 259.496 702.583 258.016 C 702.583 256.536 702.996 255.334 703.822 254.409 C 704.648 253.484 705.819 253.021 707.333 253.021 C 708.71 253.021 710.706 253.514 713.323 254.501 C 716.214 255.488 718.004 255.981 718.693 255.981 C 721.308 255.981 723.683 254.964 725.818 252.929 C 727.952 250.894 729.639 248.211 730.878 244.881 C 733.356 238.715 734.595 233.165 734.595 228.231 C 734.595 222.928 733.666 217.348 731.807 211.489 C 729.948 205.631 727.436 199.927 724.268 194.377 L 720.964 188.458 C 717.522 182.291 714.872 177.419 713.013 173.842 C 711.154 170.266 709.536 166.381 708.159 162.188 C 706.094 156.268 705.061 150.533 705.061 144.983 C 705.061 140.543 705.922 136.35 707.643 132.403 C 709.364 128.456 711.946 125.126 715.388 122.413 C 718.83 119.453 723.098 117.973 728.193 117.973 C 730.672 117.973 733.081 118.621 735.421 119.916 C 737.762 121.211 739.415 122.845 740.378 124.819 L 736.868 128.703 C 733.288 128.703 730.603 128.086 728.812 126.853 C 726.334 127.1 724.165 128.179 722.306 130.091 C 720.448 132.003 719.037 134.192 718.072 136.658 C 717.246 139.001 716.833 141.345 716.833 143.688 C 716.833 148.375 717.556 153.154 719.002 158.026 C 720.448 162.897 722.341 167.491 724.682 171.808 L 739.139 197.707 C 741.48 202.147 743.339 207.142 744.716 212.692 C 746.093 218.242 746.781 223.792 746.781 229.341 C 746.781 237.481 744.578 245.128 740.172 252.281 C 737.831 255.981 734.802 258.91 731.085 261.069 C 727.367 263.227 723.236 264.306 718.693 264.306 Z M 794.693 263.751 C 791.113 263.751 787.808 262.733 784.779 260.699 C 781.75 258.664 779.271 255.92 777.344 252.466 C 773.35 244.943 770.872 236.741 769.909 227.861 C 768.669 219.475 768.049 211.397 768.049 203.627 C 768.049 202.147 768.118 200.914 768.256 199.927 L 768.256 196.597 C 768.256 195.98 768.187 195.672 768.049 195.672 L 768.049 192.342 L 768.256 179.392 C 768.394 175.446 768.944 169.156 769.909 160.522 C 770.597 154.603 772.18 148.868 774.658 143.318 C 775.622 140.852 776.862 138.971 778.376 137.676 C 779.891 136.381 781.612 135.733 783.54 135.733 C 789.047 135.733 794.004 136.627 798.41 138.416 C 802.816 140.204 806.534 142.702 809.563 145.908 C 812.317 148.991 814.657 152.784 816.585 157.286 C 818.513 161.787 819.89 166.566 820.716 171.622 C 821.542 176.802 821.955 182.291 821.955 188.088 L 821.955 189.568 C 821.955 193.39 822.024 196.844 822.161 199.927 L 822.368 210.472 C 822.368 245.991 813.143 263.751 794.693 263.751 Z M 793.866 255.981 C 796.345 255.981 798.617 255.087 800.682 253.299 C 802.747 251.511 804.331 249.075 805.432 245.991 C 808.048 239.702 809.631 232.918 810.182 225.641 C 810.871 219.352 811.215 213.925 811.215 209.362 C 811.215 203.812 810.733 196.536 809.769 187.532 C 808.943 178.036 808.53 170.944 808.53 166.258 L 808.53 162.928 C 808.254 158.241 806.499 154.171 803.264 150.718 C 800.028 147.265 796.069 145.538 791.388 145.538 C 786.707 145.538 783.608 147.943 782.094 152.753 C 780.717 156.576 780.028 161.509 780.028 167.552 C 780.028 169.896 780.097 171.869 780.235 173.472 L 780.235 178.468 L 779.822 186.978 C 779.547 189.567 779.409 192.404 779.409 195.487 C 779.409 202.147 779.615 208.745 780.028 215.282 C 780.579 224.532 781.956 233.535 784.159 242.291 C 786.362 251.418 789.598 255.981 793.866 255.981 Z M 860.599 263.196 C 858.809 263.196 857.225 262.518 855.848 261.161 C 854.471 259.805 853.783 258.263 853.783 256.536 C 853.783 254.686 854.54 253.021 856.055 251.541 C 857.569 250.061 859.359 249.321 861.425 249.321 C 863.353 249.321 865.074 250.061 866.588 251.541 C 868.103 253.021 868.86 254.624 868.86 256.351 C 868.86 258.324 868.069 259.959 866.485 261.254 C 864.901 262.549 862.939 263.196 860.599 263.196 Z M 920.289 263.196 C 918.498 263.196 916.915 262.518 915.538 261.161 C 914.161 259.805 913.473 258.263 913.473 256.536 C 913.473 254.686 914.23 253.021 915.745 251.541 C 917.259 250.061 919.049 249.321 921.115 249.321 C 923.043 249.321 924.763 250.061 926.278 251.541 C 927.793 253.021 928.55 254.624 928.55 256.351 C 928.55 258.324 927.758 259.959 926.175 261.254 C 924.591 262.549 922.629 263.196 920.289 263.196 Z M 979.945 263.196 C 978.155 263.196 976.572 262.518 975.195 261.161 C 973.818 259.805 973.13 258.263 973.13 256.536 C 973.13 254.686 973.887 253.021 975.401 251.541 C 976.916 250.061 978.706 249.321 980.771 249.321 C 982.699 249.321 984.42 250.061 985.935 251.541 C 987.449 253.021 988.206 254.624 988.206 256.351 C 988.206 258.324 987.414 259.959 985.831 261.254 C 984.248 262.549 982.286 263.196 979.945 263.196 Z" style="white-space: pre;"/>
  <text style="font-family: &quot;Amatic SC&quot;; font-size: 54.8px; font-weight: 700; white-space: pre;" transform="matrix(1, 0, 0, 1, 0, -11.281532)"><tspan x="487.081" y="364.106">Draw to explain・Draw to grasp</tspan><tspan x="487.081" dy="1em">​</tspan></text>
  <text style="font-family: &quot;Amatic SC&quot;; font-size: 54.8px; font-weight: 700; white-space: pre;" x="489.621" y="431.641">Organize your drawings</text>
  <text style="fill: rgb(163, 163, 163); font-family: &quot;Amatic SC&quot;; font-size: 15.9px; font-weight: 700; white-space: pre;" x="958.344" y="434.602">okso.app</text>
</svg>